<svg width="32" height="32" viewBox="0 0 32 32" fill="none" xmlns="http://www.w3.org/2000/svg">
<path fill-rule="evenodd" clip-rule="evenodd" d="M13.9841 7.04398C14.1767 7.23685 14.2849 7.49829 14.2849 7.77087C14.2849 8.04345 14.1767 8.30489 13.9841 8.49775L7.51069 14.9711H26.972C27.2448 14.9711 27.5064 15.0795 27.6993 15.2724C27.8922 15.4653 28.0006 15.7269 28.0006 15.9998C28.0006 16.2726 27.8922 16.5342 27.6993 16.7271C27.5064 16.92 27.2448 17.0284 26.972 17.0284H7.51069L13.9841 23.5017C14.0851 23.5959 14.1662 23.7095 14.2224 23.8357C14.2786 23.9618 14.3089 24.098 14.3113 24.2361C14.3137 24.3743 14.2883 24.5114 14.2366 24.6395C14.1849 24.7676 14.1079 24.884 14.0102 24.9816C13.9125 25.0793 13.7962 25.1563 13.6681 25.208C13.54 25.2598 13.4028 25.2852 13.2647 25.2827C13.1266 25.2803 12.9904 25.2501 12.8642 25.1939C12.738 25.1376 12.6245 25.0566 12.5303 24.9555L4.30143 16.7266C4.10881 16.5338 4.00061 16.2723 4.00061 15.9998C4.00061 15.7272 4.10881 15.4657 4.30143 15.2729L12.5303 7.04398C12.7232 6.85136 12.9846 6.74316 13.2572 6.74316C13.5298 6.74316 13.7912 6.85136 13.9841 7.04398Z" fill="#333333"/>
</svg>
