<svg width="30" height="30" viewBox="0 0 30 30" fill="none" xmlns="http://www.w3.org/2000/svg">
<path d="M24.2501 11.7189L23.3901 10.8589L23.9901 10.2264C24.1509 10.0664 24.2314 9.88595 24.2314 9.68512C24.2314 9.48512 24.1509 9.3047 23.9901 9.14387L20.8551 6.01012C20.6951 5.85012 20.5151 5.77012 20.3151 5.77012C20.1151 5.77012 19.9347 5.85012 19.7739 6.01012L19.1414 6.61012L18.2501 5.71887L18.9476 4.99012C19.3143 4.62345 19.7639 4.44553 20.2964 4.45637C20.8289 4.4672 21.2785 4.65553 21.6451 5.02137L24.9789 8.35637C25.3455 8.72303 25.5289 9.1672 25.5289 9.68887C25.5289 10.2105 25.3455 10.6547 24.9789 11.0214L24.2501 11.7189ZM11.0526 24.9476C10.686 25.3143 10.2418 25.4976 9.72012 25.4976C9.19845 25.4976 8.75428 25.3143 8.38762 24.9476L5.15012 21.7101C4.76678 21.3268 4.57512 20.8501 4.57512 20.2801C4.57512 19.7101 4.76678 19.2339 5.15012 18.8514L5.75012 18.2501L6.64262 19.1426L6.03387 19.7426C5.87387 19.9034 5.79387 20.0839 5.79387 20.2839C5.79387 20.4839 5.87387 20.6643 6.03387 20.8251L9.17637 23.9664C9.33637 24.1272 9.51637 24.2076 9.71637 24.2076C9.91637 24.2076 10.0968 24.1272 10.2576 23.9664L10.8576 23.3589L11.7501 24.2501L11.0526 24.9476ZM23.2189 16.4426L24.6401 15.0214C24.8001 14.8614 24.8801 14.6772 24.8801 14.4689C24.8801 14.2605 24.8001 14.0764 24.6401 13.9164L16.0839 5.36137C15.9239 5.20053 15.7397 5.12012 15.5314 5.12012C15.323 5.12012 15.1389 5.20012 14.9789 5.36012L13.5576 6.78137C13.3976 6.94137 13.3176 7.12178 13.3176 7.32262C13.3176 7.52262 13.3976 7.70303 13.5576 7.86387L22.1376 16.4426C22.2976 16.6026 22.4776 16.6826 22.6776 16.6826C22.8776 16.6826 23.058 16.6026 23.2189 16.4426ZM15.0214 24.6401L16.4426 23.2114C16.6026 23.0514 16.6826 22.8714 16.6826 22.6714C16.6826 22.4714 16.6026 22.291 16.4426 22.1301L7.87012 13.5576C7.71012 13.3976 7.5297 13.3176 7.32887 13.3176C7.12887 13.3176 6.94887 13.3976 6.78887 13.5576L5.36012 14.9789C5.20012 15.1389 5.12012 15.323 5.12012 15.5314C5.12012 15.7397 5.20012 15.9239 5.36012 16.0839L13.9164 24.6389C14.0764 24.7997 14.2605 24.8801 14.4689 24.8801C14.6772 24.8801 14.8614 24.8001 15.0214 24.6401ZM14.1364 18.0489L18.0551 14.1364L15.8626 11.9451L11.9514 15.8639L14.1364 18.0489ZM15.8889 25.5239C15.5064 25.9072 15.033 26.0989 14.4689 26.0989C13.9047 26.0989 13.431 25.9072 13.0476 25.5239L4.47637 16.9526C4.09303 16.5693 3.90137 16.0955 3.90137 15.5314C3.90137 14.9672 4.09303 14.4939 4.47637 14.1114L5.89637 12.6664C6.2797 12.283 6.75637 12.0914 7.32637 12.0914C7.89637 12.0914 8.37262 12.283 8.75512 12.6664L11.0601 14.9714L14.9789 11.0526L12.6739 8.75512C12.2905 8.37178 12.0989 7.89428 12.0989 7.32262C12.0989 6.75095 12.2905 6.27345 12.6739 5.89012L14.1176 4.44512C14.5009 4.06178 14.9772 3.87012 15.5464 3.87012C16.1155 3.87012 16.5922 4.06178 16.9764 4.44512L25.5551 13.0239C25.9384 13.4072 26.1301 13.8839 26.1301 14.4539C26.1301 15.0239 25.9384 15.5001 25.5551 15.8826L24.1114 17.3276C23.728 17.711 23.2501 17.9026 22.6776 17.9026C22.1051 17.9026 21.6276 17.711 21.2451 17.3276L18.9476 15.0214L15.0289 18.9401L17.3339 21.2451C17.7172 21.6285 17.9089 22.1051 17.9089 22.6751C17.9089 23.2451 17.7172 23.7214 17.3339 24.1039L15.8889 25.5239Z" fill="#42960F"/>
</svg>
