<svg width="134" height="134" viewBox="0 0 134 134" fill="none" xmlns="http://www.w3.org/2000/svg">
<path d="M73.6998 56.95L64.2081 70.9083L61.4165 68.1166C59.1831 65.8833 55.8331 65.8833 53.5998 68.1166C51.3665 70.35 51.3665 73.7 53.5998 75.9333L61.4165 83.75C62.5331 84.8666 63.6498 85.425 65.3248 85.425H65.8831C67.5581 85.425 69.2331 84.3083 69.7915 83.1916L83.1915 63.0916C84.8665 60.3 84.3081 56.95 81.5165 55.275C78.7248 53.6 75.3748 54.1583 73.6998 56.95Z" fill="#42960F"/>
<path d="M116.133 51.3667C113.9 49.1334 112.783 46.3417 112.783 43.5501C112.783 31.2667 102.733 21.2167 90.4498 21.2167C87.6582 21.2167 84.8665 20.1001 82.6332 17.8667C73.6998 8.93341 59.7415 8.93341 50.8082 17.8667C49.1332 20.1001 46.3415 21.2167 43.5498 21.2167C31.2665 21.2167 21.2165 31.2667 21.2165 43.5501C21.2165 46.3417 20.0998 49.1334 17.8665 51.3667C8.93317 60.3001 8.93317 74.2584 17.8665 83.1917C20.0998 85.4251 21.2165 88.2167 21.2165 91.0084C21.2165 103.292 31.2665 113.342 43.5498 113.342C46.3415 113.342 49.1332 114.458 51.3665 116.692C55.8332 120.6 61.4165 122.833 66.9998 122.833C72.5832 122.833 78.7248 120.6 82.6332 116.133C84.8665 113.9 87.6582 112.783 90.4498 112.783C102.733 112.783 112.783 102.733 112.783 90.4501C112.783 87.6584 113.9 84.8667 115.575 82.6334C125.067 74.2584 125.067 59.7417 116.133 51.3667ZM108.317 74.8167C103.85 79.2834 101.617 84.8667 101.617 90.4501C101.617 96.5917 96.5915 101.617 90.4498 101.617C84.3082 101.617 78.7248 103.85 74.8165 108.317C70.3498 112.783 63.0915 112.783 59.1832 108.317C54.7165 103.85 49.1332 101.617 43.5498 101.617C37.4082 101.617 32.3832 96.5917 32.3832 90.4501C32.3832 84.3084 30.1498 78.7251 25.6832 74.8167C21.2165 70.3501 21.2165 63.6501 25.6832 59.1834C30.1498 54.7167 32.3832 49.1334 32.3832 43.5501C32.3832 37.4084 37.4082 32.3834 43.5498 32.3834C49.6915 32.3834 55.2748 30.1501 59.1832 25.6834C61.4165 23.4501 64.2082 22.3334 66.9998 22.3334C69.7915 22.3334 72.5832 23.4501 74.8165 25.6834C79.2832 30.1501 84.8665 32.3834 90.4498 32.3834C96.5915 32.3834 101.617 37.4084 101.617 43.5501C101.617 49.6917 103.85 55.2751 108.317 59.1834C112.783 63.6501 112.783 70.3501 108.317 74.8167Z" fill="#42960F"/>
</svg>
