<svg width="20" height="20" viewBox="0 0 20 20" fill="none" xmlns="http://www.w3.org/2000/svg">
<circle cx="10" cy="10" r="10" fill="#42960F"/>
<path d="M8.08494 12.1187L13.0287 7.175C13.1454 7.05833 13.2815 7 13.437 7C13.5926 7 13.7287 7.05833 13.8454 7.175C13.962 7.29167 14.0204 7.43031 14.0204 7.59092C14.0204 7.75153 13.962 7.88997 13.8454 8.00625L8.49327 13.3729C8.3766 13.4896 8.24049 13.5479 8.08494 13.5479C7.92938 13.5479 7.79327 13.4896 7.6766 13.3729L5.16827 10.8646C5.0516 10.7479 4.9956 10.6095 5.00027 10.4492C5.00494 10.289 5.0658 10.1504 5.18285 10.0333C5.29991 9.91628 5.43855 9.85794 5.59877 9.85833C5.75899 9.85872 5.89744 9.91706 6.0141 10.0333L8.08494 12.1187Z" fill="white"/>
</svg>
