<svg width="30" height="30" viewBox="0 0 30 30" fill="none" xmlns="http://www.w3.org/2000/svg">
<path fill-rule="evenodd" clip-rule="evenodd" d="M20.625 13.7499C19.6548 13.7496 18.7121 14.0717 17.945 14.6657C17.1779 15.2597 16.63 16.0918 16.3875 17.0311L15.1775 16.7186C15.4972 15.4795 16.2299 14.3865 17.2546 13.6199C18.2793 12.8533 19.5347 12.4591 20.8137 12.5022C22.0926 12.5454 23.3187 13.0233 24.2894 13.8571C25.2601 14.691 25.9175 15.8309 26.153 17.0887C26.3885 18.3466 26.1881 19.6471 25.5849 20.7757C24.9816 21.9043 24.0116 22.7934 22.8349 23.2964C21.6582 23.7993 20.3451 23.886 19.1125 23.5421C17.8799 23.1982 16.8014 22.4443 16.055 21.4049L17.07 20.6755C17.507 21.2846 18.0932 21.7711 18.7724 22.0885C19.4515 22.4058 20.2008 22.5434 20.9484 22.4879C21.696 22.4324 22.4168 22.1857 23.0416 21.7716C23.6665 21.3574 24.1744 20.7897 24.5167 20.1228C24.8591 19.4559 25.0243 18.7122 24.9966 17.9631C24.9688 17.2139 24.7491 16.4845 24.3584 15.8447C23.9677 15.2049 23.4192 14.6763 22.7654 14.3095C22.1117 13.9426 21.3746 13.7499 20.625 13.7499Z" fill="#42960F"/>
<path fill-rule="evenodd" clip-rule="evenodd" d="M20.3625 17.5H8.7625C8.43255 17.5 8.10584 17.565 7.80101 17.6913C7.49618 17.8175 7.2192 18.0026 6.98589 18.2359C6.75259 18.4692 6.56752 18.7462 6.44125 19.051C6.31499 19.3558 6.25 19.6826 6.25 20.0125C6.25 21.6813 7.8475 22.8862 9.4525 22.4281L20.6063 19.2406C20.8119 19.1817 20.9893 19.0504 21.1058 18.8711C21.2224 18.6917 21.2702 18.4763 21.2406 18.2644C21.2109 18.0526 21.1057 17.8586 20.9444 17.7181C20.783 17.5777 20.5764 17.5002 20.3625 17.5ZM8.7625 16.25C7.76462 16.25 6.80762 16.6464 6.10201 17.352C5.3964 18.0576 5 19.0146 5 20.0125C5 22.5119 7.3925 24.3162 9.79563 23.63L20.9494 20.4425C21.4448 20.3007 21.8724 19.9847 22.1533 19.5526C22.4342 19.1206 22.5496 18.6016 22.4781 18.0912C22.4067 17.5808 22.1532 17.1134 21.7645 16.7751C21.3757 16.4368 20.8779 16.2503 20.3625 16.25H8.7625ZM22.125 22.625C22.2576 22.5255 22.4243 22.4828 22.5884 22.5063C22.7525 22.5297 22.9005 22.6174 23 22.75L24.6875 25H25.625C25.7908 25 25.9497 25.0658 26.0669 25.1831C26.1842 25.3003 26.25 25.4592 26.25 25.625C26.25 25.7908 26.1842 25.9497 26.0669 26.0669C25.9497 26.1842 25.7908 26.25 25.625 26.25H22.5C22.3342 26.25 22.1753 26.1842 22.0581 26.0669C21.9408 25.9497 21.875 25.7908 21.875 25.625C21.875 25.4592 21.9408 25.3003 22.0581 25.1831C22.1753 25.0658 22.3342 25 22.5 25H23.125L22 23.5C21.9005 23.3674 21.8578 23.2007 21.8813 23.0366C21.9047 22.8725 21.9924 22.7245 22.125 22.625Z" fill="#42960F"/>
<path fill-rule="evenodd" clip-rule="evenodd" d="M8.5 22.625C8.63261 22.7245 8.72028 22.8725 8.74372 23.0366C8.76716 23.2007 8.72446 23.3674 8.625 23.5L6.75 26C6.65055 26.1326 6.50249 26.2203 6.33839 26.2437C6.1743 26.2672 6.00761 26.2245 5.875 26.125C5.74239 26.0255 5.65473 25.8775 5.63128 25.7134C5.60784 25.5493 5.65055 25.3826 5.75 25.25L7.625 22.75C7.72446 22.6174 7.87252 22.5297 8.03661 22.5063C8.20071 22.4828 8.36739 22.5255 8.5 22.625Z" fill="#42960F"/>
<path d="M4.375 25.625C4.375 25.4592 4.44085 25.3003 4.55806 25.1831C4.67527 25.0658 4.83424 25 5 25H8.125C8.29076 25 8.44973 25.0658 8.56694 25.1831C8.68415 25.3003 8.75 25.4592 8.75 25.625C8.75 25.7908 8.68415 25.9497 8.56694 26.0669C8.44973 26.1842 8.29076 26.25 8.125 26.25H5C4.83424 26.25 4.67527 26.1842 4.55806 26.0669C4.44085 25.9497 4.375 25.7908 4.375 25.625ZM8.75 20C8.75 19.8342 8.81585 19.6753 8.93306 19.5581C9.05027 19.4408 9.20924 19.375 9.375 19.375H11.875C12.0408 19.375 12.1997 19.4408 12.3169 19.5581C12.4342 19.6753 12.5 19.8342 12.5 20C12.5 20.1658 12.4342 20.3247 12.3169 20.4419C12.1997 20.5592 12.0408 20.625 11.875 20.625H9.375C9.20924 20.625 9.05027 20.5592 8.93306 20.4419C8.81585 20.3247 8.75 20.1658 8.75 20Z" fill="#42960F"/>
<path d="M10 20C10 20.3315 9.8683 20.6495 9.63388 20.8839C9.39946 21.1183 9.08152 21.25 8.75 21.25C8.41848 21.25 8.10054 21.1183 7.86612 20.8839C7.6317 20.6495 7.5 20.3315 7.5 20C7.5 19.6685 7.6317 19.3505 7.86612 19.1161C8.10054 18.8817 8.41848 18.75 8.75 18.75C9.08152 18.75 9.39946 18.8817 9.63388 19.1161C9.8683 19.3505 10 19.6685 10 20Z" fill="#42960F"/>
<path fill-rule="evenodd" clip-rule="evenodd" d="M6.68882 11.2787C6.84695 11.2294 7.01819 11.2449 7.16492 11.3218C7.31164 11.3987 7.42184 11.5307 7.47132 11.6887L9.03382 16.6887C9.07707 16.8451 9.05784 17.0121 8.98021 17.1545C8.90258 17.2969 8.77262 17.4036 8.61779 17.452C8.46297 17.5003 8.2954 17.4866 8.15051 17.4137C8.00562 17.3408 7.89474 17.2144 7.84132 17.0612L6.27882 12.0612C6.22951 11.9031 6.245 11.7319 6.32188 11.5851C6.39876 11.4384 6.53073 11.3282 6.68882 11.2787ZM22.0894 3.78749C22.1666 3.81566 22.2374 3.85875 22.2979 3.91431C22.3583 3.96986 22.4072 4.03678 22.4418 4.11125C22.4764 4.18571 22.496 4.26627 22.4995 4.34831C22.5029 4.43034 22.4902 4.51226 22.4619 4.58937L21.8369 6.30062C21.8066 6.38379 21.7589 6.45956 21.6971 6.52292C21.6352 6.58627 21.5606 6.63577 21.4782 6.66812L19.2357 7.54624L21.2113 12.9087C21.2417 12.9862 21.2564 13.0689 21.2544 13.152C21.2525 13.2352 21.2339 13.3171 21.1999 13.393C21.1659 13.4689 21.117 13.5373 21.0562 13.594C20.9954 13.6508 20.9239 13.6949 20.8459 13.7237C20.7679 13.7525 20.6849 13.7654 20.6018 13.7617C20.5187 13.758 20.4371 13.7377 20.362 13.7021C20.2868 13.6665 20.2195 13.6162 20.164 13.5542C20.1085 13.4923 20.066 13.4199 20.0388 13.3412L17.8513 7.40374C17.7947 7.2503 17.8005 7.08079 17.8675 6.93158C17.9344 6.78237 18.0572 6.66534 18.2094 6.60562L20.7594 5.60687L21.2882 4.16062C21.3451 4.005 21.4615 3.87835 21.6117 3.8085C21.762 3.73865 21.9338 3.73069 22.0894 3.78749Z" fill="#42960F"/>
<path fill-rule="evenodd" clip-rule="evenodd" d="M8.39881 10.4712L5.58443 10.19C5.51291 10.183 5.44071 10.1907 5.37222 10.2124C5.30372 10.2342 5.24036 10.2696 5.18594 10.3165C5.13153 10.3635 5.08721 10.421 5.05566 10.4855C5.02411 10.5501 5.00599 10.6204 5.0024 10.6922C4.9988 10.7639 5.0098 10.8357 5.03474 10.9031C5.05967 10.9705 5.09802 11.0321 5.14747 11.0843C5.19691 11.1364 5.25642 11.178 5.3224 11.2065C5.38837 11.235 5.45944 11.2498 5.53131 11.25H8.35943C8.45883 11.2489 8.55405 11.2098 8.62569 11.1409C8.69734 11.072 8.74002 10.9784 8.74504 10.8791C8.75006 10.7798 8.71704 10.6824 8.65271 10.6066C8.58838 10.5308 8.49758 10.4824 8.39881 10.4712ZM5.70881 8.94625C5.46869 8.92236 5.22622 8.94751 4.99612 9.02017C4.76602 9.09283 4.55308 9.21148 4.37022 9.36892C4.18736 9.52637 4.0384 9.71933 3.93238 9.93609C3.82635 10.1528 3.76548 10.3889 3.75344 10.6299C3.7414 10.8709 3.77846 11.1118 3.86235 11.3381C3.94625 11.5643 4.07524 11.7712 4.2415 11.946C4.40776 12.1209 4.60782 12.2602 4.82953 12.3554C5.05125 12.4507 5.29 12.4998 5.53131 12.5H8.35943C8.77937 12.4985 9.18274 12.336 9.48646 12.0459C9.79018 11.7559 9.97113 11.3605 9.99203 10.9411C10.0129 10.5216 9.87222 10.1102 9.59884 9.79138C9.32547 9.4726 8.94026 9.27079 8.52256 9.2275L5.70881 8.94625Z" fill="#42960F"/>
</svg>
