<svg width="30" height="30" viewBox="0 0 30 30" fill="none" xmlns="http://www.w3.org/2000/svg">
<path d="M15.55 11.4087L13.79 18.4524L19.9525 26.3762M12.91 22.8549L10.2688 26.3749" stroke="#42960F" stroke-width="1.875" stroke-linecap="round" stroke-linejoin="round"/>
<path d="M10.2688 16.6912C10.2688 11.7612 13.79 11.4087 15.5513 11.4087H17.3113C17.605 12.8762 18.8963 15.9875 21.7138 16.6912M16.25 8.75C16.9131 8.75 17.549 8.48661 18.0178 8.01777C18.4867 7.54893 18.75 6.91304 18.75 6.25C18.75 5.58696 18.4867 4.95107 18.0178 4.48223C17.549 4.01339 16.9131 3.75 16.25 3.75C15.587 3.75 14.9511 4.01339 14.4823 4.48223C14.0134 4.95107 13.75 5.58696 13.75 6.25C13.75 6.91304 14.0134 7.54893 14.4823 8.01777C14.9511 8.48661 15.587 8.75 16.25 8.75Z" stroke="#42960F" stroke-width="1.875" stroke-linecap="round" stroke-linejoin="round"/>
</svg>
