<svg width="300" height="300" viewBox="0 0 300 300" fill="none" xmlns="http://www.w3.org/2000/svg">
<path d="M213.805 241.291H142.11V299.618H213.805V241.291Z" fill="#B3D59F"/>
<path opacity="0.1" d="M213.805 241.291H142.11V299.618H213.805V241.291Z" fill="black"/>
<path d="M242.215 241.298H213.805V299.625H242.215V241.298Z" fill="#B3D59F"/>
<path opacity="0.2" d="M242.215 241.298H213.805V299.625H242.215V241.298Z" fill="black"/>
<path d="M240.252 295.602C238.152 291.457 236.068 287.297 234.001 283.124L227.837 270.575L221.753 257.976C219.739 253.769 217.742 249.549 215.761 245.314C217.871 249.464 219.957 253.623 222.019 257.792L228.176 270.341L234.26 282.94C236.284 287.146 238.281 291.367 240.252 295.602Z" fill="#B3D59F"/>
<path d="M240.252 245.314C238.276 249.563 236.279 253.784 234.26 257.976L228.176 270.575L222.019 283.124C219.952 287.293 217.866 291.452 215.761 295.602C217.742 291.353 219.739 287.132 221.753 282.94L227.837 270.341L234.001 257.799C236.068 253.621 238.152 249.459 240.252 245.314Z" fill="#B3D59F"/>
<path d="M183.028 253.897H181.899H181.043L180.561 252.927L179.878 253.897L178.95 251.9L178.08 253.897H175.577H174.433L174.016 252.566L173.628 253.897H172.887V241.298H183.028V253.897Z" fill="white"/>
<path d="M218.128 182.972H164.637V241.291H218.128V182.972Z" fill="#B3D59F"/>
<path d="M245.747 182.972H218.128V241.298H245.747V182.972Z" fill="#B3D59F"/>
<path opacity="0.1" d="M245.747 182.972H218.128V241.298H245.747V182.972Z" fill="black"/>
<g opacity="0.1">
<path d="M214.208 237.276C210.281 233.126 206.387 228.967 202.527 224.798L190.998 212.22L179.641 199.622C175.872 195.415 172.141 191.194 168.449 186.959C172.381 191.109 176.274 195.271 180.13 199.445L191.638 211.987L202.995 224.585C206.778 228.811 210.516 233.041 214.208 237.276Z" fill="black"/>
<path d="M214.208 186.988C210.511 191.237 206.78 195.457 203.016 199.65L191.659 212.22L180.151 224.769C176.315 228.938 172.422 233.098 168.47 237.248C172.167 232.998 175.898 228.778 179.662 224.585L190.997 212.015L202.505 199.473C206.375 195.295 210.276 191.133 214.208 186.988Z" fill="black"/>
</g>
<path d="M241.863 231.426H237.022V238.154H241.863V231.426Z" fill="white"/>
<path d="M0 299.646L37.5018 299.469L75.0036 299.412L150 299.292L224.996 299.412L262.498 299.469L300 299.646L262.498 299.816L224.996 299.88L150 300L75.0036 299.88L37.5018 299.816L0 299.646Z" fill="#263238"/>
<path d="M178.569 98.7689C178.166 98.5139 177.763 98.266 177.36 98.0253L177.641 97.5649L178.864 98.3227L178.569 98.7689Z" fill="#263238"/>
<path d="M161.004 169.729H160.487V169.198C161.447 169.219 162.408 169.184 163.364 169.092L163.421 169.623C162.637 169.68 161.817 169.729 161.004 169.729ZM166.341 169.148L166.226 168.631C167.162 168.423 168.08 168.146 168.974 167.803L169.168 168.299C168.248 168.646 167.303 168.925 166.341 169.134V169.148ZM171.829 167.024L171.563 166.564C172.39 166.088 173.176 165.548 173.915 164.949L174.26 165.353C173.499 165.978 172.686 166.539 171.829 167.031V167.024ZM176.382 163.341L175.986 162.98C176.632 162.282 177.226 161.538 177.763 160.756L178.209 161.054C177.658 161.864 177.047 162.633 176.382 163.355V163.341ZM179.676 158.533L179.187 158.306C179.597 157.453 179.932 156.567 180.187 155.657L180.705 155.799C180.444 156.74 180.099 157.657 179.676 158.54V158.533ZM181.23 152.924L180.69 152.881C180.69 152.499 180.741 152.109 180.741 151.734C180.739 151.209 180.707 150.684 180.647 150.162C180.087 150.125 179.53 150.056 178.979 149.957L179.072 149.433C179.95 149.589 180.841 149.669 181.733 149.673H181.92V150.204H181.726H181.187C181.244 150.717 181.273 151.232 181.273 151.748C181.28 152.131 181.259 152.534 181.23 152.931V152.924ZM184.876 149.85L184.754 149.333C185.679 149.118 186.575 148.794 187.423 148.37L187.667 148.845C186.781 149.29 185.844 149.63 184.876 149.857V149.85ZM176.116 149.192C175.186 148.862 174.284 148.459 173.419 147.988L173.685 147.527C174.522 147.983 175.395 148.371 176.296 148.689L176.116 149.192ZM179.986 147.322C179.67 146.437 179.255 145.589 178.748 144.794L179.202 144.511C179.734 145.337 180.169 146.221 180.496 147.145L179.986 147.322ZM190.141 147.209L189.796 146.805C190.526 146.198 191.193 145.522 191.788 144.787L192.206 145.12C191.591 145.89 190.9 146.597 190.141 147.23V147.209ZM170.98 146.359L170.829 146.217C170.117 145.602 169.55 144.84 169.168 143.987L169.671 143.788C170.022 144.57 170.543 145.266 171.196 145.828L171.34 145.955L170.98 146.359ZM193.874 142.74L193.414 142.464C193.917 141.642 194.385 140.8 194.795 139.971L195.284 140.205C194.867 141.048 194.392 141.904 193.874 142.74ZM176.957 142.634C176.3 142.007 175.577 141.452 174.8 140.977L174.692 140.906L174.972 140.453L175.087 140.524C175.889 141.022 176.634 141.604 177.31 142.259L176.957 142.634ZM169.815 141.267L169.369 140.97C169.677 140.544 170.085 140.197 170.559 139.961C171.032 139.724 171.557 139.604 172.088 139.61V140.141C171.646 140.139 171.209 140.239 170.814 140.435C170.419 140.631 170.077 140.916 169.815 141.267ZM196.428 137.535L195.924 137.351C196.257 136.462 196.543 135.557 196.78 134.638L197.298 134.766C197.066 135.705 196.778 136.63 196.435 137.535H196.428ZM197.866 131.919L197.327 131.848C197.455 130.909 197.53 129.963 197.55 129.015H198.089C198.069 129.987 197.995 130.956 197.866 131.919ZM197.449 126.183C197.362 125.232 197.226 124.287 197.039 123.35L197.571 123.244C197.759 124.192 197.898 125.15 197.988 126.112L197.449 126.183ZM196.334 120.616C196.061 119.724 195.737 118.825 195.363 117.932L195.867 117.734C196.241 118.633 196.586 119.554 196.852 120.461L196.334 120.616ZM194.176 115.34C193.745 114.512 193.263 113.676 192.738 112.855L193.198 112.578C193.716 113.407 194.205 114.257 194.637 115.1L194.176 115.34ZM191.148 110.482C190.594 109.717 189.997 108.96 189.379 108.223L189.796 107.883C190.422 108.627 191.026 109.399 191.587 110.171L191.148 110.482ZM187.466 106.077C186.811 105.369 186.121 104.711 185.416 104.059L185.783 103.67C186.502 104.335 187.221 105.022 187.854 105.716L187.466 106.077ZM183.244 102.161C182.524 101.559 181.74 100.964 180.971 100.398L181.287 99.9728C182.071 100.539 182.848 101.141 183.589 101.757L183.244 102.161Z" fill="#263238"/>
<path d="M157.473 169.474C156.989 169.415 156.509 169.33 156.034 169.219L156.164 168.702C156.164 168.702 156.682 168.83 157.545 168.95L157.473 169.474Z" fill="#263238"/>
<path d="M150.216 168.419C149.878 171.252 155.754 172.838 156.2 169.127C156.646 165.416 150.554 165.565 150.216 168.419Z" fill="#263238"/>
<path d="M157.912 173.107C157.365 174.177 155.43 174.325 153.431 172.951C152.073 171.931 150.925 170.664 150.05 169.219C151.741 169.046 153.45 169.192 155.085 169.651C157.451 170.437 158.487 172.024 157.912 173.107Z" fill="#EBEBEB"/>
<path d="M150.072 169.219C151.208 169.722 152.323 170.267 153.438 170.806C154.553 171.344 155.653 171.917 156.739 172.512C155.603 172.009 154.488 171.464 153.373 170.926C152.258 170.388 151.158 169.814 150.072 169.219Z" fill="#263238"/>
<path d="M155.294 173.086C155.035 172.791 154.795 172.481 154.574 172.158C154.357 171.838 154.16 171.504 153.985 171.16C154.243 171.455 154.483 171.764 154.704 172.087C154.923 172.407 155.12 172.741 155.294 173.086Z" fill="#263238"/>
<path d="M152.877 170.6C153.273 170.499 153.674 170.419 154.078 170.359C154.486 170.303 154.896 170.267 155.308 170.253C154.511 170.448 153.697 170.565 152.877 170.6Z" fill="#263238"/>
<path d="M152.251 171.068C152.004 170.764 151.827 170.411 151.733 170.034C151.981 170.337 152.158 170.69 152.251 171.068Z" fill="#263238"/>
<path d="M158.861 165.692C158.581 164.524 156.739 163.943 154.474 164.821C152.91 165.507 151.494 166.48 150.302 167.689C151.919 168.241 153.628 168.481 155.337 168.398C157.761 168.199 159.149 166.896 158.861 165.692Z" fill="#EBEBEB"/>
<path d="M150.302 167.69C151.525 167.463 152.74 167.18 153.949 166.903C155.157 166.627 156.365 166.33 157.545 165.997C156.329 166.224 155.114 166.507 153.905 166.783C152.697 167.059 151.503 167.357 150.302 167.69Z" fill="#263238"/>
<path d="M156.293 165.112C155.98 165.331 155.68 165.567 155.394 165.82C155.109 166.085 154.838 166.363 154.582 166.656C154.898 166.441 155.198 166.204 155.481 165.947C155.768 165.685 156.039 165.406 156.293 165.112Z" fill="#263238"/>
<path d="M153.344 166.981C154.073 167.355 154.84 167.651 155.632 167.867C154.904 167.49 154.137 167.193 153.344 166.981Z" fill="#263238"/>
<path d="M152.877 166.386C152.72 166.502 152.578 166.635 152.453 166.783C152.328 166.935 152.22 167.099 152.129 167.272C152.286 167.154 152.428 167.018 152.553 166.868C152.684 166.723 152.793 166.561 152.877 166.386Z" fill="#263238"/>
<path d="M150.216 168.419C150.422 168.443 150.616 168.526 150.774 168.658C150.932 168.79 151.047 168.966 151.104 169.162C151.161 169.358 151.158 169.567 151.094 169.761C151.031 169.956 150.911 170.128 150.748 170.255C150.586 170.382 150.389 170.459 150.183 170.476C149.976 170.494 149.769 170.45 149.587 170.351C149.405 170.253 149.258 170.103 149.162 169.922C149.067 169.741 149.028 169.536 149.051 169.333C149.083 169.06 149.224 168.811 149.442 168.639C149.66 168.468 149.938 168.389 150.216 168.419Z" fill="#455A64"/>
<path d="M150.46 166.358C150.598 166.374 150.731 166.416 150.852 166.483C150.972 166.549 151.079 166.638 151.165 166.745C151.25 166.852 151.314 166.974 151.352 167.105C151.389 167.236 151.401 167.374 151.385 167.509C151.369 167.644 151.326 167.775 151.258 167.894C151.191 168.013 151.1 168.118 150.992 168.202C150.883 168.287 150.759 168.349 150.626 168.387C150.492 168.424 150.353 168.435 150.216 168.419C149.938 168.387 149.685 168.248 149.512 168.032C149.338 167.816 149.259 167.541 149.292 167.268C149.324 166.995 149.465 166.745 149.685 166.575C149.904 166.404 150.183 166.326 150.46 166.358Z" fill="#455A64"/>
<path d="M85.2672 235.102C85.2672 235.102 69.9328 265.334 69.9256 265.334C68.6597 271.573 67.6671 277.076 67.4154 279.965C67.4117 279.982 67.4117 279.999 67.4154 280.015C67.2826 280.685 67.3097 281.376 67.4945 282.033C67.4908 282.05 67.4908 282.067 67.4945 282.083C69.1272 283.712 119.518 295.135 121.438 294.951C123.359 294.767 122.949 289.434 121.352 287.458C119.755 285.482 102.443 272.586 102.443 272.586L117.432 242.304L85.2672 235.102Z" fill="#D3766A"/>
<path d="M120.676 294.979C118.784 295.163 69.1487 283.733 67.5232 282.111C67.5208 282.095 67.5208 282.078 67.5232 282.062C67.3349 281.405 67.3054 280.714 67.4369 280.043C67.4308 280.027 67.4308 280.01 67.4369 279.994C67.6814 277.104 68.6812 271.602 69.9399 265.356L73.608 258.118L105.406 266.701L102.472 272.636C102.472 272.636 119.014 285.503 120.618 287.508C122.222 289.512 122.575 294.802 120.676 294.979Z" fill="#EBEBEB"/>
<path d="M121.366 294.186C119.446 294.327 68.9329 281.651 67.3218 279.965C66.7032 279.335 68.1489 271.977 70.1556 263.139L70.2204 262.863L102.903 270.688L102.752 271.226C102.752 271.226 119.878 284.597 121.453 286.636C123.028 288.676 123.28 294.051 121.366 294.186Z" fill="#263238"/>
<path d="M121.287 292.111C112.829 289.774 78.4775 281.106 69.9328 279.42C69.8608 279.42 69.8464 279.456 69.9328 279.477C78.2689 281.977 112.692 290.369 121.273 292.224C121.438 292.288 121.467 292.16 121.287 292.111Z" fill="white"/>
<path d="M105.464 272.013C102.27 270.554 98.041 270.03 94.8763 271.743C94.754 271.807 94.8763 271.977 94.9626 271.97C98.4287 271.756 101.908 271.908 105.341 272.423C105.392 272.426 105.442 272.412 105.483 272.384C105.524 272.355 105.555 272.314 105.569 272.266C105.583 272.218 105.58 272.167 105.561 272.121C105.542 272.075 105.508 272.037 105.464 272.013Z" fill="white"/>
<path d="M107.506 274.052C104.32 272.6 100.091 272.076 96.9191 273.783C96.7968 273.847 96.9191 274.017 97.0126 274.017C100.479 273.799 103.958 273.951 107.391 274.47C107.444 274.475 107.496 274.462 107.54 274.432C107.583 274.403 107.614 274.359 107.628 274.309C107.642 274.259 107.637 274.206 107.615 274.159C107.593 274.112 107.554 274.074 107.506 274.052Z" fill="white"/>
<path d="M109.556 276.099C106.363 274.64 102.134 274.116 98.9689 275.823C98.8466 275.893 98.9689 276.063 99.0624 276.056C102.526 275.842 106.003 275.994 109.434 276.509C109.484 276.512 109.534 276.499 109.576 276.47C109.617 276.441 109.647 276.4 109.661 276.352C109.676 276.304 109.673 276.253 109.654 276.207C109.635 276.161 109.6 276.123 109.556 276.099Z" fill="white"/>
<path d="M122.596 292.599C123.409 293.166 122.438 296.105 121.726 296.183C121.014 296.261 65.9985 282.196 65.1282 281.75C64.2579 281.304 65.4518 278.089 66.5667 278.209C67.6815 278.329 122.596 292.599 122.596 292.599Z" fill="#B3D59F"/>
<path d="M77.1181 270.525C73.9246 267.806 69.6235 272.692 72.8026 275.419C75.9817 278.145 80.3188 273.252 77.1181 270.525Z" fill="white"/>
<path d="M73.7017 255.703L110.556 264.853C110.556 264.853 144.908 203.814 144.138 188.298C143.081 166.896 117.562 101.092 117.562 101.092H87.0078C87.0078 101.092 107.284 172.229 107.564 184.197C107.686 190.458 73.7017 255.703 73.7017 255.703Z" fill="#455A64"/>
<path d="M112.131 257.488C110.168 256.716 92.6252 251.73 79.5348 248.989C79.5204 248.994 79.5079 249.003 79.499 249.015C79.4901 249.027 79.4854 249.042 79.4854 249.057C79.4854 249.072 79.4901 249.086 79.499 249.098C79.5079 249.11 79.5204 249.119 79.5348 249.124C83.6561 250.54 109.664 257.289 112.103 257.622C112.16 257.643 112.218 257.544 112.131 257.488Z" fill="#263238"/>
<path d="M110.096 168.915C107.665 158.873 105.061 148.859 102.328 138.909C99.5947 128.959 96.6673 118.917 93.4523 109.045C93.0639 107.834 92.6539 106.637 92.2583 105.433C92.2469 105.394 92.2203 105.362 92.1846 105.343C92.1488 105.323 92.1068 105.319 92.0677 105.33C92.0286 105.341 91.9956 105.368 91.9761 105.403C91.9565 105.438 91.952 105.479 91.9634 105.518C94.8404 115.355 97.7174 125.17 100.443 135.042C103.169 144.914 105.766 154.815 108.211 164.786C108.823 167.25 109.42 169.708 110.002 172.179C110.679 174.713 111.203 177.283 111.57 179.877C111.873 182.356 111.699 184.869 111.06 187.285C110.366 189.659 109.458 191.967 108.348 194.183C103.941 203.602 99.5371 213.023 95.1353 222.447C90.7335 231.894 90.0214 234.047 85.785 243.572C85.26 244.754 84.7349 245.937 84.2314 247.113C84.2314 247.191 84.3106 247.261 84.3537 247.176C89.1727 237.842 89.9135 235.598 94.4232 226.094C98.933 216.59 103.414 206.973 107.888 197.405C109.902 193.085 112.268 188.68 112.57 183.85C112.872 178.808 111.261 173.752 110.096 168.915Z" fill="#263238"/>
<path d="M111.764 247.056L112.944 280.341C113.138 286.714 113.419 292.288 113.843 295.156C113.84 295.172 113.84 295.189 113.843 295.206C113.867 295.886 114.049 296.552 114.375 297.153L114.418 297.196C116.382 298.421 168.089 298.392 169.894 297.79C171.7 297.188 170.103 292.09 168.096 290.51C166.09 288.931 146.281 280.227 146.281 280.227L144.778 246.978L111.764 247.056Z" fill="#D3766A"/>
<path d="M112.699 273.528C112.699 273.528 112.944 280.341 112.944 280.362C113.138 286.736 113.419 292.309 113.843 295.177C113.84 295.194 113.84 295.21 113.843 295.227C113.941 295.895 114.12 296.548 114.375 297.174L114.418 297.217C116.382 298.442 168.089 298.414 169.894 297.812C171.7 297.21 170.103 292.111 168.096 290.532C166.09 288.952 146.281 280.249 146.281 280.249L146.13 273.316L112.699 273.528Z" fill="#EBEBEB"/>
<path d="M169.923 297.755C168.096 298.329 115.979 297.535 114.009 296.261C113.289 295.786 112.93 288.308 112.8 279.264V278.981L146.433 279.123V279.689C146.433 279.689 166.248 288.775 168.255 290.397C170.261 292.019 171.757 297.203 169.923 297.755Z" fill="#263238"/>
<path d="M169.369 295.786C160.587 295.439 125.128 294.859 116.418 295.177C116.346 295.177 116.346 295.227 116.418 295.227C125.114 295.758 160.58 296.063 169.369 295.935C169.549 295.893 169.556 295.786 169.369 295.786Z" fill="white"/>
<path d="M149.237 279.817C145.792 279.109 141.549 279.583 138.873 281.941C138.765 282.033 138.873 282.175 139.017 282.147C142.337 281.149 145.756 280.501 149.216 280.213C149.257 280.2 149.294 280.175 149.321 280.141C149.348 280.107 149.363 280.065 149.365 280.022C149.368 279.979 149.357 279.937 149.334 279.9C149.311 279.863 149.277 279.834 149.237 279.817Z" fill="white"/>
<path d="M151.712 281.332C148.259 280.624 144.023 281.106 141.347 283.492C141.239 283.584 141.347 283.726 141.484 283.69C144.806 282.691 148.228 282.046 151.69 281.764C151.742 281.758 151.79 281.734 151.826 281.696C151.862 281.658 151.883 281.609 151.885 281.557C151.888 281.505 151.872 281.455 151.84 281.413C151.808 281.372 151.763 281.344 151.712 281.332Z" fill="white"/>
<path d="M154.179 282.855C150.734 282.147 146.497 282.621 143.814 284.979C143.714 285.071 143.814 285.213 143.958 285.185C147.279 284.188 150.698 283.539 154.157 283.251C154.199 283.238 154.236 283.213 154.262 283.179C154.289 283.145 154.305 283.103 154.307 283.06C154.309 283.017 154.298 282.975 154.275 282.938C154.252 282.901 154.219 282.872 154.179 282.855Z" fill="white"/>
<path d="M170.75 295.928C171.678 296.296 171.426 299.377 170.75 299.611C170.074 299.844 113.21 298.732 112.282 298.506C111.354 298.279 111.728 294.873 112.858 294.71C113.987 294.547 170.75 295.928 170.75 295.928Z" fill="#B3D59F"/>
<path d="M121.316 284.845C117.569 282.926 114.534 288.662 118.288 290.581C122.043 292.5 125.071 286.764 121.316 284.845Z" fill="white"/>
<path d="M117.18 101.035C117.044 101.651 109.427 131.303 108.477 131.855C107.399 132.486 136.154 170.579 139.564 189.282C141.721 201.243 146.756 270.964 146.756 270.964H110.089C110.089 270.964 106.492 211.753 105.298 192.242C104.831 184.672 75.9889 149.673 73.2485 126.339C72.3854 118.988 77.7511 101.007 77.7511 101.007L117.18 101.035Z" fill="#455A64"/>
<path d="M109.161 242.793C108.729 232.984 108.334 223.155 107.607 213.36C107.197 207.808 106.392 202.433 105.831 196.902C105.831 196.612 105.564 196.541 105.572 196.839C105.831 206.689 106.658 216.434 107.19 226.278C107.722 236.122 108.233 238.416 108.801 248.232C109.118 253.784 109.398 259.336 109.837 264.881C109.842 264.895 109.851 264.908 109.863 264.916C109.875 264.925 109.89 264.93 109.905 264.93C109.92 264.93 109.935 264.925 109.947 264.916C109.96 264.908 109.969 264.895 109.974 264.881C109.995 255.023 109.599 252.637 109.161 242.793Z" fill="#263238"/>
<path d="M139.599 189.75C139.286 187.159 138.776 184.596 138.075 182.08C137.319 179.642 136.324 177.282 135.104 175.033C132.608 170.317 129.767 165.756 127.027 161.174C124.287 156.592 121.431 151.911 118.54 147.336C116.914 144.768 115.282 142.202 113.642 139.638C111.973 137.053 110.211 134.518 108.492 131.969C108.478 131.947 108.457 131.932 108.432 131.926C108.407 131.92 108.381 131.924 108.359 131.937C108.337 131.95 108.321 131.971 108.315 131.996C108.309 132.02 108.313 132.046 108.326 132.068C111.131 136.699 113.908 141.338 116.713 145.969C119.518 150.601 122.28 155.247 125.042 159.892C127.804 164.538 130.487 169.042 133.09 173.688C134.372 175.894 135.476 178.195 136.392 180.571C137.243 183.034 137.862 185.568 138.24 188.142C139.218 194.14 140.017 200.181 141.239 206.123C141.244 206.137 141.253 206.149 141.265 206.158C141.278 206.167 141.293 206.172 141.308 206.172C141.323 206.172 141.338 206.167 141.35 206.158C141.362 206.149 141.371 206.137 141.376 206.123C140.995 200.656 140.333 195.181 139.599 189.75Z" fill="#263238"/>
<path d="M143.527 264.775C141.434 264.506 125.459 263.96 112.095 264.527C112.009 264.527 112.016 264.654 112.095 264.662C116.447 265.037 141.052 265.207 143.505 264.924C143.57 264.917 143.599 264.789 143.527 264.775Z" fill="#263238"/>
<path d="M113.26 129.83C109.525 131.17 105.915 132.829 102.472 134.787C102.442 134.8 102.419 134.825 102.408 134.854C102.396 134.884 102.397 134.917 102.411 134.947C102.424 134.976 102.448 134.998 102.479 135.01C102.509 135.021 102.543 135.02 102.572 135.007C106.212 133.463 109.93 131.99 113.483 130.255C113.541 130.226 113.584 130.175 113.603 130.115C113.623 130.055 113.617 129.989 113.588 129.933C113.558 129.876 113.507 129.834 113.446 129.815C113.384 129.795 113.318 129.801 113.26 129.83Z" fill="#263238"/>
<path d="M114.361 105.284C114.361 105.164 114.131 105.135 114.131 105.284C114.132 109.286 113.928 113.285 113.519 117.267C113.347 119.115 111.836 129.306 108.585 128.598C108.039 128.47 107.765 127.946 107.679 127.132C107.688 126.075 107.833 125.023 108.111 124.002C108.47 121.877 108.758 119.752 108.945 117.564C109.326 113.543 109.283 109.494 108.816 105.482C108.809 105.46 108.796 105.44 108.777 105.425C108.758 105.411 108.735 105.403 108.711 105.403C108.687 105.403 108.664 105.411 108.645 105.425C108.627 105.44 108.613 105.46 108.607 105.482C108.701 111.056 108.369 116.629 107.614 122.153C107.204 124.809 105.845 128.81 108.672 129.235C111.498 129.66 113.404 122.953 113.75 121.119C114.649 115.889 114.855 110.566 114.361 105.284Z" fill="#263238"/>
<path d="M108.672 128.817C108.383 129.509 108.143 130.219 107.952 130.942C107.745 131.497 107.643 132.085 107.65 132.677C107.654 132.701 107.665 132.724 107.681 132.742C107.698 132.76 107.72 132.772 107.744 132.777C107.769 132.783 107.794 132.781 107.817 132.772C107.84 132.763 107.86 132.747 107.873 132.726C108.213 132.204 108.468 131.633 108.628 131.034C108.88 130.375 109.139 129.731 109.348 129.065C109.381 128.977 109.377 128.879 109.338 128.794C109.298 128.708 109.225 128.641 109.136 128.608C109.046 128.576 108.947 128.579 108.86 128.618C108.773 128.657 108.705 128.729 108.672 128.817Z" fill="#263238"/>
<path d="M110.204 201.76C109.858 196.718 109.88 191.4 107.701 186.726C106.543 184.448 105.211 182.26 103.716 180.182C102.23 177.944 100.762 175.694 99.3142 173.433C93.5602 164.389 88.0076 155.162 82.9512 145.707C80.513 141.154 78.2689 136.451 77.0462 131.423C75.8538 126.132 75.6273 120.674 76.3773 115.305C76.5499 113.967 76.7369 112.635 76.9599 111.304C76.9606 111.286 76.9549 111.268 76.9439 111.254C76.9328 111.239 76.917 111.229 76.8991 111.225C76.8813 111.221 76.8625 111.223 76.8461 111.231C76.8296 111.239 76.8164 111.252 76.8088 111.268C75.6254 116.374 75.2206 121.625 75.6077 126.848C76.1612 131.842 77.5896 136.704 79.8297 141.218C82.0594 145.969 84.7134 150.544 87.3315 155.098C90.0311 159.819 92.8098 164.472 95.6676 169.056C98.5446 173.631 101.508 178.114 104.478 182.618C105.994 184.743 107.175 187.08 107.981 189.551C108.635 192.13 109.011 194.77 109.103 197.426C109.822 208.573 112.699 245.633 113.721 256.723C113.843 258.139 113.973 259.556 114.109 260.972C114.105 260.987 114.105 261.002 114.107 261.017C114.11 261.032 114.117 261.046 114.126 261.058C114.136 261.07 114.148 261.08 114.162 261.087C114.176 261.094 114.191 261.097 114.206 261.097C114.222 261.097 114.237 261.094 114.251 261.087C114.265 261.08 114.277 261.07 114.286 261.058C114.296 261.046 114.302 261.032 114.305 261.017C114.308 261.002 114.308 260.987 114.303 260.972C113.872 249.839 110.945 212.872 110.204 201.76Z" fill="#263238"/>
<path d="M92.6037 110.808C92.6037 110.73 92.4742 110.758 92.4742 110.808C92.3663 113.903 92.4742 117.104 91.2443 120.014C90.1367 122.698 87.907 124.582 85.4112 125.992C83.9597 126.793 82.4637 127.515 80.9302 128.151C80.8223 128.201 80.8655 128.371 80.9878 128.336C83.8648 127.429 86.8353 126.445 89.2448 124.547C91.8197 122.507 92.9489 119.554 93.0712 116.367C93.1153 114.503 92.9586 112.64 92.6037 110.808Z" fill="#263238"/>
<path d="M108.564 60.364C112.678 72.7997 123.79 93.9816 127.761 96.5381C131.278 98.7972 147.828 96.2761 155.092 94.5552C157.797 93.9108 151.712 73.6141 148.828 74.3577C145.368 75.25 135.061 77.5375 134.313 76.9709C133.565 76.4044 123.172 63.7987 115.807 56.3769C109.103 49.6562 107.01 55.6616 108.564 60.364Z" fill="#D3766A"/>
<path d="M153.503 94.711C154.891 94.5411 166.636 94.0028 172.023 91.1205C174.9 89.5837 182.244 84.499 181.51 82.6718C180.841 81.0076 178.482 81.9141 178.482 81.9141C178.482 81.9141 181.726 79.5983 180.777 77.2896C179.827 74.9809 175.907 76.716 175.907 76.716C175.907 76.716 179.065 74.0957 177.95 71.8649C176.835 69.6341 173.196 72.0207 173.196 72.0207C173.196 72.0207 176.195 69.7616 174.49 68.3027C172.433 66.5464 167.377 71.3338 163.961 72.4527C163.184 72.7077 147.878 76.5177 147.878 76.5177L153.503 94.711Z" fill="#D3766A"/>
<path d="M173.066 71.9569C169.341 75.4624 167.089 76.3618 162.112 77.3533C162.019 77.3533 162.026 77.5233 162.112 77.5091C167.075 76.978 170.06 76.2485 173.232 72.1269C173.404 71.9215 173.239 71.787 173.066 71.9569Z" fill="#263238"/>
<path d="M175.785 76.6309C171.592 79.9453 169.161 80.9367 164.025 82.3531C163.953 82.3531 163.982 82.5018 164.061 82.4876C169.211 81.5103 172.174 80.7172 175.922 76.8646C176.094 76.6947 175.979 76.4822 175.785 76.6309Z" fill="#263238"/>
<path d="M178.231 81.9707C173.915 84.8884 171.319 86.0994 166.154 86.843C166.129 86.843 166.106 86.8527 166.088 86.87C166.071 86.8873 166.061 86.9107 166.061 86.9351C166.061 86.9595 166.071 86.9829 166.088 87.0002C166.106 87.0175 166.129 87.0272 166.154 87.0272C171.498 86.7722 174.785 85.2921 178.288 82.1123C178.547 81.9141 178.497 81.7937 178.231 81.9707Z" fill="#263238"/>
<path d="M143.865 77.1692C143.865 77.1692 148.144 72.4031 150.489 70.7176C152.834 69.0321 163.939 65.9161 164.759 68.239C165.816 71.2417 159.767 74.2798 156.61 75.3846C156.61 75.3846 159.063 82.3248 155.171 85.4266C151.28 88.5285 143.865 77.1692 143.865 77.1692Z" fill="#D3766A"/>
<path d="M164.78 69.1666C163.738 72.5872 159.494 73.7769 156.509 75.0729C156.465 75.0917 156.426 75.1203 156.395 75.1566C156.364 75.1928 156.342 75.2357 156.331 75.2818C156.32 75.3278 156.32 75.3758 156.331 75.4219C156.341 75.468 156.363 75.511 156.394 75.5474C157.228 78.5218 157.516 82.955 155.401 85.462C155.344 85.5328 155.437 85.632 155.509 85.5682C158.149 83.1887 158.221 78.805 157.099 75.604C160.184 74.3222 164.385 72.9413 164.809 69.1808C164.816 69.1666 164.788 69.1666 164.78 69.1666Z" fill="#263238"/>
<path d="M153.495 98.2024L148.072 73.8832L134.651 76.284C129.357 70.314 118.777 58.381 114.512 54.7976C109.477 50.591 106.183 53.7495 108.039 60.1232C112.232 74.6906 124.495 96.0778 127.703 98.0961C132.357 101.035 153.495 98.2024 153.495 98.2024Z" fill="#B3D59F"/>
<path opacity="0.1" d="M134.334 83.6846C134.999 83.8268 135.676 83.9051 136.356 83.9183C137.794 84.1095 138.427 86.1986 137.118 86.9918C136.431 87.4087 135.653 87.6611 134.849 87.7288C134.045 87.7964 133.235 87.6774 132.486 87.3813C131.047 86.8289 129.832 85.455 130.141 83.8404C130.195 83.5394 130.327 83.2571 130.524 83.0211C130.721 82.7851 130.977 82.6034 131.266 82.4936C131.556 82.3838 131.87 82.3497 132.177 82.3946C132.484 82.4395 132.774 82.5618 133.018 82.7498C133.417 83.1128 133.859 83.4267 134.334 83.6846ZM130.623 77.8987C130.105 80.3065 133.889 82.3744 135.823 81.0926C135.979 80.9763 136.107 80.8269 136.196 80.6555C136.285 80.4841 136.334 80.295 136.339 80.1025C136.344 79.9099 136.304 79.7187 136.224 79.5432C136.143 79.3676 136.024 79.2122 135.874 79.0884C135.305 78.6352 134.831 78.5644 134.327 78.1536C134.151 78.0183 133.996 77.8585 133.867 77.6792C133.582 77.292 133.216 76.9686 132.795 76.7302C132.576 76.638 132.339 76.596 132.101 76.6073C131.863 76.6186 131.63 76.6829 131.421 76.7954C131.212 76.9078 131.032 77.0656 130.893 77.2567C130.755 77.4478 130.663 77.6673 130.623 77.8987ZM124.589 78.0262C123.812 79.0247 124.394 80.5261 125.078 81.4325C125.385 81.884 125.809 82.247 126.306 82.4847C126.802 82.7223 127.354 82.826 127.904 82.7852C128.105 82.7574 128.293 82.673 128.446 82.5423C128.599 82.4116 128.711 82.2401 128.767 82.0484C128.823 81.8568 128.822 81.6532 128.763 81.4623C128.705 81.2713 128.591 81.1011 128.437 80.9722C128.004 80.6483 127.658 80.2253 127.43 79.74C127.092 78.9893 126.869 78.0191 125.991 77.6933C125.752 77.5963 125.487 77.5762 125.235 77.636C124.983 77.6958 124.757 77.8323 124.589 78.0262ZM140.52 93.7762C139.506 95.7946 142.591 98.0891 144.462 97.6925C145.087 97.5579 145.691 96.7506 145.138 96.1699C144.692 95.7025 144.159 95.3342 143.742 94.8385C143.232 94.2366 142.951 93.4646 142.153 93.1601C141.852 93.0363 141.515 93.0313 141.211 93.146C140.907 93.2608 140.659 93.4865 140.52 93.7762ZM111.549 69.0251C111.372 68.6935 111.127 68.4017 110.829 68.1682C111.232 69.1833 111.656 70.2007 112.102 71.2205C112.126 70.4525 111.935 69.6929 111.549 69.0251ZM115.555 66.9006C115.414 65.1512 114.72 63.4893 113.57 62.1486C112.707 61.0509 111.211 59.3159 109.628 59.6912C109.46 59.743 109.313 59.8467 109.21 59.987C109.106 60.1273 109.051 60.2967 109.053 60.4702C108.952 61.6671 110.347 62.9489 110.952 63.9049C111.671 65.1089 112.239 66.4402 113.016 67.6371C113.178 67.8831 113.417 68.0709 113.697 68.1723C113.976 68.2736 114.282 68.2832 114.568 68.1995C114.853 68.1159 115.104 67.9435 115.282 67.7081C115.46 67.4727 115.555 67.1869 115.555 66.8935V66.9006ZM115.087 74.5136C115.368 74.4993 115.637 74.3966 115.855 74.2207C116.072 74.0449 116.227 73.805 116.296 73.5363C116.407 72.9865 116.37 72.4174 116.188 71.8862C116.08 71.3804 115.831 70.9143 115.469 70.5406C115.339 70.4224 115.18 70.3393 115.008 70.2996C114.835 70.2599 114.656 70.2649 114.486 70.3142C114.316 70.3635 114.163 70.4553 114.04 70.5806C113.917 70.706 113.829 70.8606 113.785 71.0293C113.728 71.4428 113.728 71.8622 113.785 72.2757C113.785 72.4527 113.785 72.6298 113.785 72.8139C113.782 73.0808 113.811 73.3471 113.872 73.6071C113.949 73.8658 114.109 74.0931 114.328 74.2551C114.547 74.4171 114.813 74.5053 115.087 74.5065V74.5136Z" fill="#030402"/>
<path d="M148.799 96.0778C148.18 94.6614 146.641 88.3727 146.303 86.8076C145.965 85.2426 144.713 78.9114 144.347 77.3038C144.347 77.2117 144.447 77.1621 144.469 77.2471C144.857 78.8335 146.591 85.0797 146.972 86.6377C147.353 88.1957 148.784 94.4773 148.885 96.0566C148.887 96.0621 148.887 96.0679 148.886 96.0736C148.885 96.0793 148.883 96.0848 148.88 96.0897C148.874 96.0997 148.864 96.1069 148.853 96.1097C148.841 96.1125 148.829 96.1107 148.819 96.1047C148.809 96.0988 148.802 96.0891 148.799 96.0778Z" fill="#263238"/>
<path opacity="0.1" d="M136.334 99.4204C132.558 99.4204 129.242 99.0663 127.703 98.0961C124.474 96.0423 112.21 74.7259 107.988 60.1302C106.924 56.4759 107.564 53.8698 109.247 53.1121L136.334 99.4204Z" fill="black"/>
<path d="M75.4709 104.371C75.5644 104.505 120.446 110.171 120.928 109.76C121.181 108.53 121.362 107.286 121.467 106.035C121.467 106.035 117.353 57.9206 115.224 55.095C113.361 52.6305 107.708 50.8459 103.86 52.4535C95.7826 55.8244 76.4419 98.8113 76.6505 100.61C76.6361 100.589 75.3559 104.201 75.4709 104.371Z" fill="#B3D59F"/>
<path opacity="0.1" d="M91.6542 98.5139C92.3464 98.8449 93.0689 99.1104 93.812 99.3071C95.308 99.8949 95.4447 102.352 93.812 102.848C92.9441 103.119 92.0238 103.187 91.1246 103.045C90.2255 102.904 89.3723 102.557 88.6334 102.034C87.1949 101.042 86.267 99.2008 87.0438 97.5578C87.1864 97.2452 87.4082 96.9739 87.688 96.7702C87.9679 96.5664 88.2962 96.4369 88.6416 96.3942C88.9869 96.3516 89.3376 96.3971 89.6599 96.5265C89.9822 96.6558 90.2652 96.8647 90.4818 97.1329C90.8846 97.5933 91.1292 98.2023 91.6542 98.5139ZM89.1944 91.1983C87.9645 93.6982 91.5248 96.963 93.9918 96.0777C94.1985 95.9964 94.3831 95.8689 94.5313 95.7054C94.6794 95.5418 94.787 95.3467 94.8455 95.1353C94.9041 94.9238 94.912 94.7019 94.8687 94.487C94.8254 94.272 94.7321 94.0699 94.596 93.8965C94.1069 93.2521 93.6034 93.0467 93.1575 92.4801C93.0035 92.2843 92.8799 92.0672 92.7906 91.8357C92.578 91.3413 92.2675 90.8935 91.8772 90.5185C91.0213 89.7041 89.6475 90.2777 89.1944 91.1983ZM85.0371 88.5356C83.6921 89.0313 83.3469 90.8159 83.4476 92.0765C83.4683 92.6889 83.6536 93.2849 83.9846 93.8037C84.3157 94.3225 84.7806 94.7455 85.332 95.0296C85.5401 95.1211 85.7706 95.1514 85.9958 95.1166C86.2209 95.0819 86.431 94.9836 86.6007 94.8338C86.7703 94.684 86.8923 94.489 86.9518 94.2724C87.0113 94.0558 87.0058 93.8268 86.9359 93.6132C86.7076 93.047 86.6284 92.4331 86.7058 91.8286C86.828 90.9221 87.1949 89.8599 86.5835 89.0454C86.4133 88.8107 86.1721 88.6349 85.8944 88.5433C85.6166 88.4517 85.3165 88.449 85.0371 88.5356ZM99.7818 96.963C99.4413 96.9343 99.1026 97.0349 98.8351 97.2443C98.5676 97.4537 98.3916 97.7559 98.3433 98.089C98.3064 98.4468 98.3977 98.8061 98.6012 99.1048C98.8048 99.4035 99.1078 99.6228 99.4581 99.7249C99.9486 99.8843 100.478 99.8843 100.969 99.7249C101.22 99.6272 101.426 99.4436 101.551 99.2079C101.696 98.9799 101.754 98.7092 101.717 98.4431C101.677 98.1947 101.561 97.9642 101.385 97.7821C101.209 97.5999 100.981 97.4748 100.731 97.4233C100.686 97.3645 100.633 97.312 100.573 97.2675C100.345 97.0928 100.07 96.9871 99.7818 96.963ZM88.7556 79.8744C87.5473 81.0925 88.0364 83.8615 89.4174 84.7963C89.5952 84.9294 89.8052 85.0144 90.0267 85.0428C90.2481 85.0712 90.4733 85.0421 90.6798 84.9583C90.8863 84.8746 91.067 84.7391 91.2038 84.5653C91.3407 84.3915 91.429 84.1855 91.46 83.9677C91.4813 83.6872 91.4813 83.4055 91.46 83.125C91.46 82.8205 91.4169 82.6293 91.46 82.4168C91.5676 81.8113 91.5894 81.194 91.5248 80.5826C91.4689 80.2926 91.3305 80.0243 91.1257 79.8087C90.9209 79.5932 90.6581 79.4393 90.368 79.3651C90.0778 79.2909 89.7722 79.2994 89.4868 79.3896C89.2013 79.4797 88.9478 79.6479 88.7556 79.8744ZM80.9518 97.4941C79.2903 99.4345 82.0306 102.763 84.1812 102.827C84.9005 102.827 85.7851 102.119 85.3392 101.34C84.9796 100.716 84.4977 100.164 84.1812 99.5195C83.7928 98.7263 83.6993 97.7986 82.9081 97.2604C82.6131 97.0469 82.2464 96.9522 81.8829 96.9956C81.5194 97.039 81.1864 97.2173 80.9518 97.4941ZM120.633 96.878C120.362 96.9179 120.11 97.0362 119.907 97.2178C119.705 97.3993 119.562 97.636 119.496 97.8978C119.266 98.6839 119.238 99.385 118.641 100.022C117.994 100.523 117.415 101.101 116.914 101.743C116.831 101.904 116.791 102.083 116.799 102.263C116.807 102.443 116.862 102.618 116.959 102.77C117.056 102.923 117.192 103.048 117.353 103.134C117.514 103.22 117.695 103.263 117.878 103.259C119.134 103.107 120.284 102.489 121.093 101.531C120.949 100.185 120.806 98.606 120.64 96.8497L120.633 96.878ZM117.037 91.0354C116.634 91.9986 116.706 93.0892 116.368 94.0948C116.071 95.0167 115.718 95.9202 115.31 96.8001C115.008 97.4375 115.613 98.4431 116.396 98.1031C117.672 97.6212 118.715 96.6828 119.317 95.4758C119.863 94.3639 120.467 92.4943 119.942 91.3116C119.417 90.129 117.634 89.612 117.022 91.0071L117.037 91.0354ZM112.937 100.688C112.339 101.448 111.574 102.066 110.7 102.494C110.492 102.558 110.299 102.664 110.136 102.807C109.973 102.949 109.842 103.124 109.752 103.32C109.663 103.516 109.617 103.728 109.617 103.943C109.617 104.158 109.664 104.37 109.754 104.566C109.844 104.761 109.975 104.936 110.138 105.078C110.302 105.22 110.495 105.326 110.703 105.39C110.912 105.453 111.131 105.472 111.348 105.445C111.564 105.418 111.773 105.347 111.959 105.235C112.703 104.92 113.368 104.449 113.907 103.855C114.447 103.26 114.847 102.556 115.08 101.793C115.418 100.568 113.735 99.7674 112.923 100.66L112.937 100.688ZM106.363 65.9869C106.765 66.0706 107.184 65.9979 107.533 65.7841C107.881 65.5702 108.132 65.2317 108.233 64.8396C108.636 63.317 107.255 61.7519 106.162 60.803C105.068 59.854 103.529 58.99 101.997 59.4787C101.793 59.5437 101.609 59.659 101.463 59.8136C101.317 59.9682 101.214 60.1569 101.163 60.3619C101.112 60.5669 101.114 60.7814 101.171 60.985C101.228 61.1886 101.336 61.3746 101.486 61.5253C102.155 62.3468 103.083 62.9417 103.795 63.749C104.507 64.5564 105.097 65.7532 106.349 65.9586L106.363 65.9869ZM111.88 71.9994C112.484 71.1425 112.016 69.8748 111.585 69.0604C111.355 68.6112 110.998 68.2372 110.556 67.984C110.259 67.7968 109.899 67.7327 109.554 67.8057C109.209 67.8786 108.908 68.0827 108.715 68.3735C108.519 68.7762 108.488 69.2378 108.629 69.6624C108.689 69.8845 108.771 70.1003 108.873 70.3068V70.3706V70.4272C109.002 71.1035 109.293 71.7397 109.722 72.2827C109.87 72.4299 110.051 72.5414 110.251 72.6083C110.451 72.6752 110.663 72.6957 110.872 72.6683C111.081 72.6409 111.281 72.5662 111.456 72.4502C111.63 72.3341 111.775 72.1798 111.88 71.9994ZM115.591 66.9288C115.45 65.1794 114.756 63.5175 113.606 62.1769C112.743 61.0792 111.247 59.3441 109.664 59.7194C109.496 59.7712 109.349 59.8749 109.246 60.0152C109.142 60.1555 109.087 60.325 109.089 60.4985C108.988 61.6953 110.384 62.9771 110.988 63.9332C111.707 65.1371 112.275 66.4685 113.052 67.6653C113.221 67.8978 113.461 68.0718 113.736 68.1625C114.012 68.2531 114.31 68.2559 114.587 68.1704C114.864 68.0849 115.107 67.9154 115.281 67.6861C115.455 67.4569 115.551 67.1794 115.555 66.8934L115.591 66.9288ZM110.161 79.0529C110.424 79.1095 110.696 79.1095 110.959 79.0529C111.358 78.9321 111.695 78.6662 111.901 78.3093C112.094 77.9295 112.191 77.5089 112.182 77.0842C112.169 76.6817 112.058 76.2883 111.858 75.9369L111.621 75.6466L111.304 75.4199C111.106 75.3194 110.888 75.2641 110.665 75.2582C110.442 75.2522 110.221 75.2958 110.018 75.3856C109.815 75.4754 109.635 75.6092 109.491 75.777C109.348 75.9448 109.245 76.1423 109.19 76.3547C109.07 76.7672 108.986 77.1889 108.938 77.6153L109.003 78.0048C109.053 78.2003 109.152 78.3803 109.29 78.5289C109.508 78.7761 109.8 78.9475 110.125 79.0175L110.161 79.0529ZM115.123 74.5418C115.404 74.5275 115.673 74.4249 115.891 74.249C116.108 74.0731 116.263 73.8332 116.332 73.5645C116.444 73.0147 116.406 72.4456 116.224 71.9144C116.116 71.4086 115.867 70.9425 115.505 70.5689C115.375 70.4506 115.216 70.3675 115.044 70.3278C114.872 70.2881 114.692 70.2932 114.522 70.3424C114.352 70.3917 114.199 70.4835 114.076 70.6088C113.953 70.7342 113.865 70.8888 113.822 71.0575C113.764 71.471 113.764 71.8904 113.822 72.3039C113.822 72.481 113.822 72.658 113.822 72.8421C113.818 73.109 113.847 73.3753 113.908 73.6353C113.988 73.8831 114.145 74.1 114.357 74.2561C114.568 74.4122 114.823 74.4996 115.087 74.5064L115.123 74.5418Z" fill="#030402"/>
<path d="M112.599 62.6372C109.858 62.3893 106.348 56.6247 105.679 52.9634C105.636 52.7084 106.73 50.5768 107.931 47.9282C108.65 46.3206 109.427 44.5076 110.002 42.808L119.957 48.9763C118.613 50.9003 117.514 52.979 116.684 55.1658C116.61 55.3967 116.557 55.6337 116.526 55.874C116.528 55.9141 116.528 55.9543 116.526 55.9944C116.274 57.4108 115.253 62.878 112.599 62.6372Z" fill="#D3766A"/>
<path d="M116.526 55.8882C116.528 55.9283 116.528 55.9685 116.526 56.0086C116.142 55.9347 115.765 55.8329 115.397 55.7041C109.168 53.4945 110.268 45.4495 110.707 43.2258L113.189 44.7697L119.985 49.0188C118.643 50.9421 117.546 53.0209 116.72 55.2083C116.634 55.4287 116.569 55.6562 116.526 55.8882Z" fill="#263238"/>
<path d="M111.045 31.4558C108.988 35.103 108.629 46.8164 110.909 49.9253C114.203 54.4294 120.82 56.1857 125.013 52.0499C129.077 47.9991 129.264 32.7235 126.617 29.7774C122.704 25.4008 114.08 26.0665 111.045 31.4558Z" fill="#D3766A"/>
<path d="M120.597 40.9242C120.597 40.9242 120.532 40.9242 120.532 40.995C120.532 41.8023 120.388 42.723 119.64 42.9638V43.0133C120.554 42.9142 120.726 41.689 120.597 40.9242Z" fill="#263238"/>
<path d="M119.899 40.0602C118.583 39.9185 118.389 42.5105 119.604 42.645C120.82 42.7796 121 40.1806 119.899 40.0602Z" fill="#263238"/>
<path d="M125.315 41.2004C125.315 41.2004 125.373 41.2429 125.373 41.2783C125.279 42.0786 125.315 43.0134 126.027 43.3321C126.027 43.3321 126.027 43.3887 126.027 43.3816C125.128 43.1834 125.099 41.944 125.315 41.2004Z" fill="#263238"/>
<path d="M126.114 40.4214C127.43 40.4214 127.322 43.0204 126.114 43.0204C124.905 43.0204 125.006 40.4143 126.114 40.4214Z" fill="#263238"/>
<path d="M120.964 39.5362C120.597 39.6141 120.244 39.6212 119.885 39.6637C119.512 39.7596 119.118 39.7323 118.763 39.5858C118.659 39.5187 118.581 39.4198 118.541 39.3045C118.501 39.1892 118.5 39.064 118.54 38.9484C118.658 38.7372 118.83 38.5605 119.04 38.4361C119.25 38.3117 119.489 38.2442 119.734 38.2402C120.231 38.1462 120.745 38.2424 121.172 38.5094C121.261 38.5751 121.329 38.6643 121.369 38.7666C121.409 38.8689 121.418 38.9801 121.396 39.0874C121.374 39.1948 121.322 39.2939 121.246 39.3733C121.169 39.4527 121.071 39.5092 120.964 39.5362Z" fill="#263238"/>
<path d="M127.293 38.0064C126.944 37.91 126.6 37.7941 126.265 37.6594C125.886 37.5892 125.542 37.3974 125.286 37.1141C125.222 37.0103 125.195 36.8885 125.21 36.7679C125.224 36.6473 125.279 36.5349 125.365 36.4484C125.562 36.3006 125.796 36.208 126.041 36.1806C126.287 36.1531 126.536 36.1919 126.761 36.2926C127.247 36.4236 127.667 36.7261 127.94 37.1425C127.997 37.2413 128.024 37.3542 128.017 37.4675C128.01 37.5809 127.97 37.6899 127.901 37.7813C127.833 37.8727 127.739 37.9426 127.631 37.9825C127.523 38.0225 127.406 38.0308 127.293 38.0064Z" fill="#263238"/>
<path d="M120 47.312C121.059 47.0624 122.163 47.0624 123.222 47.312C123.316 47.312 123.409 47.1279 123.431 47.0429L123.488 45.3433C123.711 45.4708 124.833 46.0515 124.833 45.7399C124.95 42.9774 124.779 40.2105 124.323 37.4824C124.318 37.4666 124.308 37.4527 124.294 37.4429C124.28 37.433 124.264 37.4277 124.247 37.4277C124.23 37.4277 124.214 37.433 124.2 37.4429C124.187 37.4527 124.177 37.4666 124.172 37.4824C124.056 40.039 124.387 42.5884 124.308 45.1592C123.911 44.9426 123.485 44.7828 123.042 44.6847C122.949 44.6847 123.042 46.4905 123.042 46.7597C122.052 46.4239 120.968 46.4823 120.021 46.9225C119.647 47.1562 119.496 47.4678 120 47.312Z" fill="#263238"/>
<path d="M117.871 48.9975C118.051 49.1958 118.23 49.4649 118.518 49.5074C118.821 49.5216 119.122 49.4708 119.403 49.3586C119.403 49.3586 119.453 49.3586 119.403 49.4011C119.279 49.5515 119.115 49.6653 118.93 49.7303C118.745 49.7952 118.545 49.8088 118.353 49.7694C118.196 49.7199 118.056 49.6267 117.952 49.5011C117.847 49.3754 117.781 49.2227 117.763 49.0612C117.777 48.9833 117.842 48.9691 117.871 48.9975Z" fill="#263238"/>
<path opacity="0.2" d="M114.519 27.7378C114.411 29.5578 113.972 35.2021 113.081 36.3493C112.189 37.4966 110.304 40.1665 109.348 40.5985C109.477 36.838 110.067 33.2616 111.052 31.392C111.86 29.8941 113.056 28.6333 114.519 27.7378Z" fill="#263238"/>
<path d="M124.768 33.2545C124.266 33.7586 123.64 34.1273 122.951 34.3257C122.263 34.5241 121.534 34.5454 120.834 34.3876C120.118 34.2308 119.456 33.8949 118.91 33.4123C118.365 32.9298 117.955 32.3168 117.72 31.6328C117.72 31.5903 117.641 31.6328 117.655 31.6328C117.838 32.3713 118.223 33.0464 118.768 33.5846C119.313 34.1227 119.998 34.5034 120.748 34.6851C121.496 34.8257 122.269 34.7688 122.988 34.52C123.707 34.2712 124.346 33.8395 124.84 33.2687C124.884 33.2758 124.826 33.212 124.768 33.2545Z" fill="#263238"/>
<path d="M121.158 22.7592C120.053 22.6856 118.946 22.887 117.941 23.3449C116.935 23.8028 116.063 24.5025 115.404 25.3795C114.843 26.272 114.604 27.3253 114.728 28.368H114.821C114.835 27.4531 115.1 26.5587 115.587 25.7796C116.074 25.0005 116.767 24.3655 117.59 23.9419C118.491 23.4455 119.496 23.1611 120.526 23.1107C121.557 23.0603 122.586 23.2454 123.532 23.6515C124.462 24.0292 125.226 24.7192 125.689 25.599C125.732 25.6911 125.919 25.6486 125.883 25.5565C125.294 24.0127 123.388 22.8654 121.158 22.7592Z" fill="#263238"/>
<path d="M134.896 28.9346C134.583 27.7357 133.849 26.6845 132.824 25.9673C131.386 24.9546 129.703 24.9688 128.02 25.0254C127.969 25.0254 127.976 25.0962 128.02 25.0892C129.45 24.9421 130.894 25.2052 132.177 25.8469C133.221 26.4638 134.016 27.417 134.428 28.5451C134.82 29.7021 134.775 30.9596 134.3 32.0864C133.826 33.2131 132.954 34.1334 131.846 34.678C131.201 34.9766 130.5 35.1419 129.788 35.1638C129.075 35.1857 128.366 35.0638 127.703 34.8055C127.653 34.8055 127.61 34.855 127.66 34.8834C128.557 35.2734 129.547 35.4088 130.517 35.2742C131.488 35.1396 132.402 34.7404 133.154 34.1216C133.907 33.5029 134.469 32.6893 134.776 31.7727C135.084 30.8561 135.125 29.8731 134.896 28.9346Z" fill="#263238"/>
<path d="M110.326 33.7574C110.326 33.7574 108.341 29.3029 110.463 26.9659C111.664 25.6487 115.275 26.1019 115.275 26.1019C116.353 24.7538 117.931 23.8827 119.662 23.6799C122.748 23.2054 126.265 25.2592 126.265 25.2592C126.265 25.2592 129.271 23.8428 131.853 25.5637C135.45 27.9645 134.55 33.5804 130.623 35.1101C127.861 36.1936 124.423 33.6016 124.423 33.6016C124.078 33.6016 120.352 35.4712 117.9 32.1428C117.9 32.1428 115.569 33.892 113.707 32.4048C113.352 32.9447 112.838 33.3642 112.233 33.6062C111.628 33.8482 110.962 33.901 110.326 33.7574Z" fill="#263238"/>
<path d="M111.498 41.1579C111.498 41.1579 109.614 37.0009 107.751 37.617C105.888 38.2331 106.794 43.8844 108.636 44.9892C108.86 45.1429 109.114 45.2506 109.381 45.306C109.648 45.3615 109.925 45.3635 110.193 45.312C110.461 45.2605 110.716 45.1565 110.943 45.0062C111.17 44.8558 111.363 44.6622 111.513 44.4368L111.498 41.1579Z" fill="#D3766A"/>
<path d="M108.053 39.2175V39.2671C109.333 40.0815 109.815 41.4908 110.067 42.9001C110.013 42.7482 109.926 42.6098 109.812 42.4942C109.698 42.3787 109.56 42.2889 109.408 42.231C109.255 42.1731 109.092 42.1485 108.929 42.1588C108.766 42.1692 108.607 42.2143 108.463 42.2911C108.42 42.2911 108.463 42.369 108.463 42.369C108.725 42.3391 108.99 42.3916 109.22 42.5187C109.45 42.6459 109.633 42.8413 109.743 43.0771C109.938 43.4602 110.088 43.8642 110.189 44.2811C110.189 44.4156 110.462 44.3944 110.448 44.2811C110.815 42.4539 109.916 39.7558 108.053 39.2175Z" fill="#263238"/>
<path d="M211.192 49.4088L133.756 72.7629L147.718 117.643L225.154 94.2892L211.192 49.4088Z" fill="#B3D59F"/>
<path opacity="0.2" d="M211.192 49.4088L133.756 72.7629L147.718 117.643L225.154 94.2892L211.192 49.4088Z" fill="black"/>
<path opacity="0.2" d="M211.189 49.409L185.166 57.2573L199.127 102.138L225.15 94.2894L211.189 49.409Z" fill="black"/>
<path d="M209.942 51.6957C209.065 55.671 208.211 59.6462 207.382 63.6215L204.929 75.5757L202.556 87.5795C201.779 91.5736 201.021 95.5749 200.283 99.5832C201.16 95.6127 202.014 91.6374 202.843 87.6574L205.296 75.7032L207.669 63.7278C208.446 59.7147 209.204 55.704 209.942 51.6957Z" fill="#B3D59F"/>
<path d="M222.723 92.7847C219.846 89.8764 216.943 86.9799 214.013 84.0952L205.238 75.4837L196.406 66.9359C193.452 64.1031 190.484 61.2704 187.502 58.4376C190.379 61.3506 193.282 64.2471 196.212 67.1271L204.987 75.7386L213.819 84.2864C216.778 87.1475 219.746 89.9802 222.723 92.7847Z" fill="#B3D59F"/>
<path d="M148.628 78.5464L149.055 78.4178L147.22 72.52L146.794 72.6486L148.628 78.5464Z" fill="#263238"/>
<path d="M147.616 78.846L148.042 78.7174L146.207 72.8196L145.781 72.9482L147.616 78.846Z" fill="#263238"/>
<path d="M146.593 79.167L147.02 79.0385L145.185 73.1406L144.759 73.2692L146.593 79.167Z" fill="#263238"/>
<path d="M145.582 79.456L146.008 79.3275L144.175 73.4294L143.748 73.5579L145.582 79.456Z" fill="#263238"/>
<path d="M144.561 79.7682L144.987 79.6396L143.153 73.7418L142.726 73.8704L144.561 79.7682Z" fill="#263238"/>
<path d="M143.546 80.068L143.972 79.9395L142.137 74.0416L141.711 74.1702L143.546 80.068Z" fill="#263238"/>
<path d="M142.519 80.398L142.945 80.2694L141.111 74.3716L140.684 74.5002L142.519 80.398Z" fill="#263238"/>
<path d="M141.503 80.6958L141.929 80.5671L140.093 74.6696L139.667 74.7983L141.503 80.6958Z" fill="#263238"/>
<path d="M140.477 81.0137L140.904 80.8851L139.069 74.9873L138.642 75.1159L140.477 81.0137Z" fill="#263238"/>
<path d="M151.532 71.7091L149.762 71.7516L153.596 70.5831L152.1 71.5321L152.776 73.6991C153.992 73.4938 154.812 74.4923 155.43 76.4752L151.597 77.665C150.978 75.6892 151.086 74.4073 152.208 73.9045L151.532 71.7091Z" fill="#263238"/>
<path d="M155.387 73.2176L156.387 72.913L155.488 70.0236L158.048 69.2517L158.947 72.1411L159.954 71.8366L158.602 75.5333L155.387 73.2176Z" fill="#263238"/>
<path opacity="0.1" d="M133.759 72.7643L134.903 76.4469L188.43 67.7503L185.164 57.2621L133.759 72.7643Z" fill="black"/>
<path d="M235.188 99.378L209.158 107.225L199.125 102.14L225.154 94.2861L235.188 99.378Z" fill="#B3D59F"/>
<path opacity="0.2" d="M235.188 99.378L209.158 107.225L199.125 102.14L225.154 94.2861L235.188 99.378Z" fill="black"/>
<path d="M142.297 127.394L168.326 119.54L173.742 109.795L147.713 117.642L142.297 127.394Z" fill="#B3D59F"/>
<path opacity="0.1" d="M142.297 127.394L168.326 119.54L173.742 109.795L147.713 117.642L142.297 127.394Z" fill="black"/>
<path d="M99.458 65.8382C103.263 78.3661 113.843 99.8312 117.77 102.451C121.23 104.796 137.837 102.664 145.102 101.113C147.821 100.539 142.225 80.1011 139.348 80.7739C135.867 81.5883 125.502 83.6066 124.769 83.0472C124.035 82.4877 113.98 69.5916 106.787 62.0282C100.256 55.1446 98.0195 61.1005 99.458 65.8382Z" fill="#D3766A"/>
<path d="M137.852 82.4381C137.852 82.4381 143.354 76.3335 147.252 74.0036C151.367 71.6845 155.993 70.3843 160.731 70.2148C165.845 70.0165 178.353 73.005 178.101 76.7018C177.878 80.0515 165.255 76.3547 165.255 76.3547C165.255 76.3547 178.756 78.0332 177.734 82.0202C176.713 86.0073 162.306 80.8871 162.306 80.8871C162.306 80.8871 176.138 82.9126 174.455 86.8713C173.16 89.8528 159.847 85.9436 159.847 85.9436C159.847 85.9436 171.729 87.7707 170.527 90.9009C169.204 94.3498 156.682 91.5029 156.682 91.5029C152.287 98.9246 147.101 100.709 143.268 101.51C142.311 101.672 137.852 82.4381 137.852 82.4381Z" fill="#D3766A"/>
<path d="M160.623 75.4766C162.213 75.6182 163.831 75.7528 165.406 76.0289C166.981 76.3051 168.542 76.6451 170.089 77.07C172.114 77.5826 174.074 78.3216 175.929 79.2724C172.512 77.8207 166.888 76.7301 165.313 76.4397C163.738 76.1493 162.177 75.8023 160.609 75.5261C160.566 75.5403 160.58 75.4766 160.623 75.4766Z" fill="#263238"/>
<path d="M159.494 81.0643C161.515 81.3263 163.543 81.5175 165.557 81.8716C167.571 82.2257 169.434 82.7356 171.412 83.2243C171.563 83.2597 171.491 83.3305 171.34 83.2951C169.341 82.8843 167.471 82.6577 165.471 82.2753C163.472 81.8929 161.486 81.4255 159.48 81.1068C159.451 81.1068 159.458 81.0572 159.494 81.0643Z" fill="#263238"/>
<path d="M157.645 85.6816C160.764 86.015 163.84 86.6653 166.823 87.622C166.974 87.6645 166.873 87.7424 166.715 87.707C163.68 86.9988 161.299 86.4323 157.638 85.7878C157.581 85.7808 157.581 85.6745 157.645 85.6816Z" fill="#263238"/>
<path d="M143.455 104.739L138.621 80.2923L125.15 82.3743C120 76.2839 109.715 64.1031 105.514 60.4205C100.587 56.0935 97.214 59.1812 98.9042 65.5903C102.774 80.2427 114.512 101.885 117.691 104.009C122.251 107.055 143.455 104.739 143.455 104.739Z" fill="#B3D59F"/>
<path opacity="0.1" d="M134.335 83.6845C134.999 83.8267 135.676 83.905 136.356 83.9182C137.794 84.1094 138.427 86.1985 137.118 86.9917C136.431 87.4086 135.653 87.661 134.849 87.7287C134.045 87.7963 133.235 87.6773 132.486 87.3812C131.048 86.8288 129.832 85.4549 130.141 83.8403C130.195 83.5393 130.327 83.257 130.524 83.021C130.721 82.785 130.977 82.6033 131.266 82.4935C131.556 82.3837 131.87 82.3496 132.177 82.3945C132.484 82.4394 132.774 82.5617 133.018 82.7497C133.417 83.1127 133.859 83.4266 134.335 83.6845ZM132.896 81.1775C133.347 81.3917 133.844 81.4958 134.345 81.481C134.846 81.4662 135.336 81.333 135.773 81.0925C135.934 80.9865 136.063 80.8398 136.147 80.6676L132.896 81.1775ZM125.898 82.2539C126.47 82.6658 127.177 82.855 127.883 82.7851C128.126 82.7522 128.35 82.6364 128.516 82.4579C128.681 82.2793 128.778 82.0493 128.789 81.8078L125.898 82.2539ZM141.146 93.1671C140.861 93.2846 140.631 93.5015 140.498 93.7761C139.894 94.973 140.736 96.2619 141.937 97.0338L141.146 93.1671ZM119.482 97.8695C119.252 98.6555 119.223 99.3566 118.626 99.994C117.983 100.504 117.408 101.092 116.914 101.743C116.831 101.904 116.791 102.083 116.799 102.263C116.807 102.443 116.862 102.618 116.959 102.77C117.056 102.923 117.192 103.048 117.353 103.134C117.514 103.22 117.695 103.263 117.878 103.259C119.131 103.107 120.281 102.497 121.099 101.55C121.917 100.603 122.343 99.3879 122.294 98.1456C122.254 97.8273 122.105 97.5319 121.872 97.3078C121.638 97.0837 121.335 96.9442 121.011 96.9121C120.687 96.88 120.361 96.9573 120.087 97.1312C119.813 97.3051 119.608 97.5654 119.504 97.8695H119.482ZM117.001 91.0071C116.598 91.9703 116.67 93.0609 116.332 94.0665C116.035 94.9884 115.682 95.8918 115.274 96.7718C114.972 97.4091 115.576 98.4148 116.36 98.0748C117.635 97.5929 118.678 96.6544 119.281 95.4475C119.827 94.3356 120.431 92.466 119.906 91.2833C119.381 90.1006 117.633 89.612 117.022 91.0071H117.001ZM106.327 65.9586C106.729 66.0423 107.148 65.9696 107.496 65.7557C107.845 65.5419 108.096 65.2034 108.197 64.8113C108.6 63.2887 107.219 61.7236 106.125 60.7747C105.032 59.8257 103.493 58.9617 101.961 59.4503C101.757 59.5154 101.573 59.6307 101.427 59.7853C101.281 59.9399 101.178 60.1286 101.127 60.3336C101.076 60.5386 101.078 60.7531 101.135 60.9567C101.192 61.1603 101.3 61.3463 101.45 61.497C102.119 62.3185 103.047 62.9134 103.759 63.7207C104.471 64.528 105.097 65.7532 106.348 65.9586H106.327ZM111.879 71.9994C112.484 71.1425 112.016 69.8748 111.585 69.0604C111.355 68.6112 110.997 68.2372 110.556 67.984C110.259 67.7968 109.899 67.7327 109.554 67.8057C109.209 67.8786 108.908 68.0827 108.715 68.3735C108.519 68.7762 108.488 69.2378 108.628 69.6624C108.689 69.8845 108.77 70.1003 108.873 70.3068V70.3706V70.4272C109.002 71.1035 109.293 71.7397 109.722 72.2827C109.87 72.4299 110.051 72.5414 110.251 72.6083C110.45 72.6752 110.663 72.6957 110.872 72.6683C111.081 72.6409 111.281 72.5662 111.455 72.4502C111.63 72.3341 111.775 72.1799 111.879 71.9994ZM110.16 79.0813C110.423 79.1379 110.696 79.1379 110.959 79.0813C111.358 78.9604 111.694 78.6945 111.901 78.3377C112.094 77.9578 112.191 77.5373 112.182 77.1125C112.169 76.7101 112.058 76.3166 111.858 75.9653L111.621 75.6749L111.304 75.4483C111.106 75.3477 110.888 75.2924 110.665 75.2865C110.442 75.2805 110.221 75.3241 110.018 75.4139C109.815 75.5038 109.635 75.6376 109.491 75.8053C109.348 75.9731 109.245 76.1706 109.189 76.3831C109.07 76.7956 108.986 77.2172 108.938 77.6437L109.002 78.0332C109.053 78.2286 109.152 78.4087 109.29 78.5572C109.512 78.794 109.804 78.9552 110.124 79.0175L110.16 79.0813ZM116.195 71.8932L114.756 70.2998C114.527 70.2728 114.295 70.3301 114.105 70.4607C113.915 70.5913 113.781 70.7861 113.728 71.0079C113.67 71.4215 113.67 71.8408 113.728 72.2544C113.728 72.4314 113.728 72.6084 113.728 72.7926C113.724 73.0594 113.753 73.3257 113.814 73.5857C113.893 73.8553 114.061 74.0911 114.292 74.2554C114.523 74.4197 114.803 74.5031 115.087 74.4922C115.368 74.4779 115.637 74.3753 115.855 74.1994C116.072 74.0235 116.227 73.7836 116.296 73.5149C116.404 72.9748 116.369 72.4164 116.195 71.8932Z" fill="#030402"/>
<path d="M138.808 102.494C138.226 101.042 136.859 94.7393 136.535 93.16C136.212 91.5807 135.14 85.2354 134.816 83.6136C134.816 83.5287 134.917 83.472 134.939 83.5641C135.284 85.1575 136.873 91.4391 137.212 93.0113C137.55 94.5835 138.837 100.886 138.895 102.473C138.897 102.484 138.896 102.496 138.89 102.506C138.883 102.516 138.874 102.523 138.862 102.526C138.851 102.529 138.839 102.527 138.829 102.521C138.818 102.515 138.811 102.505 138.808 102.494Z" fill="#263238"/>
<path d="M134.363 105.426C132.155 105.553 129.947 105.603 127.739 105.589C125.523 105.598 123.308 105.473 121.108 105.213C119.98 105.103 118.878 104.817 117.842 104.363C116.911 103.716 116.103 102.913 115.454 101.991C114.15 100.219 112.971 98.3616 111.923 96.4318C109.765 92.6147 107.909 88.6417 106.097 84.6901C104.284 80.7384 102.637 76.6734 101.127 72.5801C102.961 76.5388 104.773 80.5047 106.658 84.4351C108.542 88.3655 110.448 92.2818 112.505 96.1131C113.532 98.0241 114.665 99.8777 115.9 101.665C116.477 102.555 117.207 103.339 118.058 103.981C119.039 104.426 120.085 104.716 121.158 104.838C125.538 105.361 129.953 105.557 134.363 105.426Z" fill="#263238"/>
<path d="M102.529 76.036C102.234 75.7422 101.966 75.4222 101.731 75.08C101.487 74.7411 101.3 74.3656 101.177 73.9681C101.285 74.1441 101.403 74.3143 101.529 74.478L101.882 74.9809C102.119 75.3197 102.335 75.672 102.529 76.036Z" fill="#263238"/>
<path d="M113.886 69.4712C115.706 71.27 117.339 73.2458 119.029 75.1367C120.719 77.0275 122.337 79.0246 124.064 80.9084L124.704 81.6166C124.819 81.7228 124.927 81.8432 125.035 81.9424C125.143 82.0415 125.143 82.0344 125.193 82.0769C125.193 82.0769 125.243 82.0769 125.272 82.0769C125.819 82.0769 126.509 81.9565 127.128 81.8786L130.954 81.3192C133.5 80.9509 136.054 80.5685 138.607 80.2285L138.708 80.8517L138.557 80.2356H138.593C136.068 80.7668 133.558 81.2413 130.997 81.7016C129.724 81.9282 128.451 82.1265 127.171 82.3177C126.516 82.4295 125.856 82.5052 125.193 82.5443C125.14 82.551 125.087 82.551 125.035 82.5443C124.964 82.5235 124.898 82.4899 124.84 82.4452C124.768 82.3897 124.698 82.3306 124.632 82.2681L124.279 81.9282C124.049 81.6945 123.833 81.4608 123.618 81.22C121.927 79.2867 120.288 77.3321 118.676 75.3491L116.267 72.3677C115.476 71.44 114.757 70.4202 113.886 69.4712Z" fill="#263238"/>
<path d="M114.828 69.6836C115.099 70.0113 115.34 70.362 115.548 70.7317C115.75 71.0969 115.894 71.4912 115.972 71.9002C115.886 71.709 115.778 71.539 115.677 71.3549L115.382 70.8096C115.177 70.4444 114.992 70.0685 114.828 69.6836Z" fill="#263238"/>
<path d="M28.5616 254.867C28.2953 248.241 28.389 241.605 28.8421 234.988C29.834 221.351 31.9483 207.816 35.1643 194.516C36.9264 187.023 39.0986 179.644 41.3642 172.293C41.429 172.073 41.7886 172.137 41.7311 172.364C34.7327 198.312 28.9859 225.095 29.3815 252.063C29.4966 259.612 30.3813 267.027 31.1077 274.527C31.1077 274.732 30.7912 274.81 30.7481 274.604C29.3024 268.167 28.8349 261.425 28.5616 254.867Z" fill="#B3D59F"/>
<path d="M41.731 172.328C41.731 172.328 52.3328 198.828 49.9593 205.053C47.5858 211.278 42.6877 212.61 42.6877 212.61C42.6877 212.61 49.1609 221.731 44.644 230.314C40.1271 238.898 30.0432 238.459 29.3671 248.161C29.3671 248.132 28.8061 207.582 41.731 172.328Z" fill="#B3D59F"/>
<path d="M30.525 231.391C30.5073 231.345 30.5073 231.295 30.525 231.249C31.9232 213.158 35.3756 195.278 40.8175 177.944C40.8175 177.895 40.9182 177.909 40.9038 177.944C38.8036 185.692 36.9479 193.482 35.3368 201.314C36.7536 199.99 38.4844 199.035 40.3716 198.538C40.3716 198.538 40.4219 198.538 40.3716 198.588C38.3796 199.313 36.5903 200.493 35.1498 202.029C34.8429 203.559 34.5432 205.096 34.2507 206.64C36.6171 204.034 39.904 202.738 43.191 201.505C43.2342 201.505 43.2629 201.562 43.191 201.576C39.7674 202.95 36.3509 204.721 34.0349 207.624C33.2198 212.02 32.5005 216.432 31.8772 220.86C33.5913 219.101 35.7879 217.871 38.1994 217.319C38.2713 217.319 38.3145 217.411 38.1994 217.433C35.7105 218.141 33.4841 219.546 31.7909 221.476H31.7477C31.5367 223.034 31.3378 224.595 31.1507 226.157C32.517 225.047 34.0602 224.166 35.718 223.551C35.7612 223.551 35.7827 223.601 35.718 223.615C34.0944 224.324 32.6076 225.304 31.3234 226.511C31.3234 226.511 31.3234 226.511 31.2658 226.511C31.0932 227.992 30.9134 229.479 30.7624 230.966C33.151 228.125 36.2495 225.946 39.753 224.642C39.7601 224.639 39.7677 224.638 39.7753 224.638C39.7829 224.638 39.7905 224.639 39.7975 224.642C39.8045 224.645 39.8108 224.65 39.8162 224.655C39.8215 224.66 39.8257 224.667 39.8285 224.674C39.8314 224.681 39.8328 224.688 39.8327 224.696C39.8326 224.703 39.831 224.711 39.828 224.718C39.825 224.724 39.8206 224.731 39.8152 224.736C39.8097 224.741 39.8032 224.745 39.7962 224.748C36.3355 226.249 33.2953 228.553 30.935 231.462C30.9107 231.496 30.8758 231.521 30.8356 231.534C30.7953 231.547 30.7519 231.546 30.712 231.533C30.4818 233.813 30.2733 236.1 30.1078 238.388H30.0503C30.1654 236.072 30.3308 233.728 30.525 231.391Z" fill="#263238"/>
<path d="M39.0409 195.932C40.9603 194.755 43.1545 194.082 45.4135 193.977C45.4638 193.977 45.471 194.048 45.4135 194.055C43.2315 194.453 41.1127 195.134 39.1128 196.081C39.094 196.084 39.0745 196.082 39.0573 196.073C39.0402 196.065 39.0264 196.051 39.0182 196.034C39.0099 196.017 39.0077 195.998 39.0118 195.979C39.0159 195.961 39.0262 195.944 39.0409 195.932Z" fill="#263238"/>
<path d="M37.7534 223.983C39.2297 223.153 40.8529 222.608 42.5365 222.376C42.594 222.376 42.6012 222.454 42.5365 222.461C40.8872 222.787 39.292 223.338 37.7966 224.097C37.7462 224.125 37.6887 224.019 37.7534 223.983Z" fill="#263238"/>
<path d="M0.690379 205.485C5.17317 208.539 9.28964 212.084 12.9608 216.052C16.7568 220.245 19.6882 225.125 21.5918 230.421C25.6148 241.457 27.7795 253.066 28.0004 264.789C28.1382 271.282 27.5033 277.768 26.1087 284.115C26.0965 284.16 26.0679 284.198 26.0285 284.223C25.9891 284.247 25.9417 284.256 25.8958 284.248C25.8498 284.24 25.8085 284.216 25.7801 284.179C25.7516 284.143 25.738 284.097 25.7419 284.052C27.4792 272.849 27.4209 261.448 25.5693 250.264C23.7424 239.301 20.887 227.375 13.8095 218.466C9.91838 213.637 5.11378 209.805 0.395485 205.847C0.114977 205.648 0.431448 205.308 0.690379 205.485Z" fill="#B3D59F"/>
<path d="M26.4181 256.9C23.8682 252.834 20.8699 249.057 17.4778 245.64C12.1697 240.42 7.70319 236.709 7.01271 233.253C6.32223 229.798 12.328 227.262 12.328 227.262C12.328 227.262 4.98442 228.558 2.9777 225.52C0.97099 222.482 0 204.926 0 204.926C0 204.926 13.3421 214.345 19.578 227.468C25.814 240.59 26.4181 256.9 26.4181 256.9Z" fill="#B3D59F"/>
<path d="M4.76856 221.427C5.64743 221.303 6.53742 221.274 7.4226 221.342C7.53049 221.342 7.52329 221.526 7.4226 221.526C6.54511 221.526 5.66762 221.483 4.78294 221.526C4.71102 221.512 4.71102 221.427 4.76856 221.427Z" fill="#263238"/>
<path d="M14.3778 238.423C15.7897 238.452 17.1851 238.728 18.4991 239.238C18.4991 239.238 18.4991 239.301 18.4991 239.294C17.1397 238.976 15.7659 238.841 14.3921 238.622C14.2555 238.622 14.2627 238.423 14.3778 238.423Z" fill="#263238"/>
<path d="M17.2622 232.552C17.8485 232.548 18.434 232.6 19.0099 232.708C19.0675 232.708 19.0603 232.814 19.0099 232.814C18.4259 232.843 17.8405 232.814 17.2622 232.729C17.2426 232.724 17.2254 232.712 17.2132 232.696C17.201 232.68 17.1943 232.661 17.1943 232.641C17.1943 232.621 17.201 232.601 17.2132 232.585C17.2254 232.569 17.2426 232.558 17.2622 232.552Z" fill="#263238"/>
<path d="M65.5598 224.132C61.2167 225.581 57.0545 227.51 53.1526 229.883C49.1125 232.424 45.608 235.708 42.8314 239.556C36.9848 247.573 32.5073 256.477 29.5756 265.915C27.9442 271.138 26.9352 276.531 26.5691 281.984C26.5691 282.025 26.5858 282.065 26.6154 282.094C26.6451 282.123 26.6854 282.14 26.7273 282.14C26.7693 282.14 26.8095 282.123 26.8392 282.094C26.8689 282.065 26.8856 282.025 26.8856 281.984C28.101 272.536 30.8118 263.333 34.9196 254.712C38.969 246.256 44.0829 237.255 51.9011 231.66C56.1591 228.608 60.9421 226.618 65.7108 224.507C65.9913 224.394 65.8475 224.047 65.5598 224.132Z" fill="#B3D59F"/>
<path d="M32.6755 259.881C35.6918 257.169 39.0037 254.794 42.5509 252.799C48.0747 249.783 52.5557 247.793 53.9294 245.158C55.3032 242.524 51.0524 239.096 51.0524 239.096C51.0524 239.096 56.6842 241.815 59.0217 239.804C61.3593 237.793 66.2646 223.806 66.2646 223.806C66.2646 223.806 53.2605 228.367 45.133 237.602C37.0054 246.837 32.6755 259.881 32.6755 259.881Z" fill="#B3D59F"/>
<path d="M43.4715 247.021C44.7481 246.933 46.0299 247.087 47.2476 247.474C47.2476 247.474 47.2476 247.538 47.2476 247.53C46.0031 247.325 44.7467 247.197 43.4859 247.148C43.4687 247.15 43.4515 247.145 43.438 247.134C43.4245 247.124 43.4159 247.108 43.414 247.091C43.4121 247.075 43.4171 247.058 43.4279 247.044C43.4386 247.031 43.4543 247.022 43.4715 247.021Z" fill="#263238"/>
<path d="M54.8213 232.361C55.4034 232.32 55.9885 232.353 56.5619 232.46C56.5729 232.464 56.5824 232.471 56.5891 232.481C56.5958 232.49 56.5994 232.502 56.5994 232.513C56.5994 232.525 56.5958 232.536 56.5891 232.546C56.5824 232.555 56.5729 232.562 56.5619 232.566C55.9937 232.503 55.4254 232.524 54.85 232.51C54.8323 232.509 54.8154 232.502 54.8021 232.491C54.7887 232.479 54.7796 232.464 54.7763 232.447C54.773 232.429 54.7756 232.412 54.7838 232.396C54.7919 232.381 54.8051 232.368 54.8213 232.361Z" fill="#263238"/>
<path d="M15.8955 299.646H45.2554L41.0693 269.442L39.9976 261.701H21.1532L20.0816 269.442L15.8955 299.646Z" fill="#455A64"/>
<path d="M20.0815 269.442H41.0693L39.9976 261.701H21.1532L20.0815 269.442Z" fill="#263238"/>
<path d="M18.4488 265.568H42.6948V259.01H18.4488V265.568Z" fill="#455A64"/>
<path d="M172.297 15.8898C172.297 18.8043 171.474 21.6613 169.921 24.1422C168.367 26.6231 166.145 28.6303 163.5 29.9399C160.856 31.2494 157.894 31.8098 154.945 31.5585C151.996 31.3072 149.176 30.2542 146.799 28.5168L138.967 30.4855L142.225 23.3116C141.078 21.2023 140.435 18.8632 140.344 16.4723C140.254 14.0815 140.718 11.7017 141.702 9.51407C142.686 7.32642 144.163 5.38847 146.022 3.84758C147.881 2.30669 150.072 1.20345 152.429 0.621736C154.786 0.0400235 157.247 -0.00483654 159.624 0.490566C162.002 0.985969 164.233 2.00859 166.148 3.48067C168.064 4.95274 169.613 6.83551 170.679 8.9858C171.744 11.1361 172.298 13.4973 172.297 15.8898Z" fill="white"/>
<path d="M172.297 15.8827C172.296 18.8008 171.48 21.6624 169.938 24.1543C169.563 24.7825 169.149 25.3879 168.701 25.9673C168.223 26.522 167.712 27.0471 167.169 27.5394C166.096 28.5355 164.885 29.3771 163.572 30.0393C162.256 30.701 160.852 31.1778 159.401 31.4557C158.672 31.5985 157.934 31.6884 157.193 31.7248C156.453 31.785 155.71 31.785 154.97 31.7248C151.978 31.4963 149.11 30.4543 146.684 28.715L146.9 28.7575L139.089 30.7829L138.456 30.9458L138.722 30.3509L141.952 23.1629V23.4603C140.777 21.31 140.12 18.9224 140.033 16.4823C139.946 14.0422 140.43 11.615 141.448 9.38863C142.468 7.16852 143.985 5.20485 145.886 3.64524C147.785 2.10862 150.012 1.01536 152.402 0.447482C154.791 -0.120394 157.28 -0.148139 159.681 0.366332C162.061 0.899401 164.29 1.94951 166.205 3.43986C168.109 4.92567 169.647 6.81726 170.702 8.97241C171.757 11.1276 172.303 13.4902 172.297 15.8827ZM172.297 15.8827C172.296 12.285 171.03 8.79869 168.714 6.01553C166.399 3.23236 163.177 1.32392 159.595 0.614198C157.238 0.15228 154.805 0.224935 152.481 0.826654C150.165 1.41572 148.017 2.52054 146.202 4.05599C144.405 5.60805 142.971 7.52678 142.002 9.67898C141.046 11.8251 140.598 14.1572 140.693 16.4988C140.804 18.8171 141.432 21.0828 142.534 23.1345L142.613 23.2832L142.541 23.432L139.254 30.5988L138.888 30.1739L146.735 28.2618H146.857L146.95 28.3326C149.276 30.072 152.048 31.1387 154.956 31.4132C155.674 31.4653 156.395 31.4653 157.113 31.4132C159.311 31.3389 161.468 30.8003 163.436 29.834C164.749 29.2046 165.96 28.3886 167.032 27.412C167.575 26.9269 168.087 26.4089 168.564 25.861C169.022 25.2976 169.447 24.7088 169.837 24.0977C171.407 21.6335 172.258 18.7914 172.297 15.8827Z" fill="#263238"/>
<path d="M157.43 17.5894V19.3245C157.435 19.4978 157.404 19.6704 157.339 19.8316C157.274 19.9927 157.176 20.1391 157.051 20.2617C156.927 20.3844 156.778 20.4807 156.614 20.5448C156.451 20.6089 156.275 20.6395 156.099 20.6346C155.925 20.6346 155.752 20.6007 155.591 20.5347C155.43 20.4688 155.284 20.3722 155.161 20.2504C155.038 20.1287 154.941 19.9842 154.874 19.8253C154.808 19.6664 154.775 19.4962 154.776 19.3245V16.5554C154.776 16.5554 154.776 16.5555 154.776 16.4988C154.776 16.4421 154.776 16.4988 154.776 16.4492C154.785 16.1058 154.927 15.7787 155.173 15.5351C155.419 15.2915 155.75 15.1498 156.099 15.1391C156.51 15.1588 156.92 15.0962 157.305 14.955C157.691 14.8139 158.043 14.5972 158.34 14.3181C158.638 14.039 158.875 13.7032 159.037 13.3313C159.199 12.9593 159.282 12.5588 159.282 12.1541C159.282 11.7494 159.199 11.3489 159.037 10.9769C158.875 10.6049 158.638 10.2692 158.34 9.99004C158.043 9.71092 157.691 9.49423 157.305 9.35311C156.92 9.21198 156.51 9.14937 156.099 9.16906C155.574 9.16743 155.057 9.30206 154.601 9.5594C154.146 9.81673 153.767 10.1877 153.503 10.635C153.414 10.7859 153.296 10.918 153.156 11.0239C153.015 11.1298 152.855 11.2074 152.684 11.2521C152.513 11.2969 152.334 11.3079 152.159 11.2846C151.983 11.2614 151.814 11.2043 151.661 11.1166C151.511 11.029 151.38 10.9132 151.276 10.7756C151.171 10.638 151.096 10.4815 151.053 10.315C151.01 10.1485 151.001 9.97527 151.027 9.80535C151.052 9.63543 151.111 9.47214 151.201 9.32487C151.674 8.52266 152.342 7.8487 153.145 7.36349C153.948 6.87829 154.861 6.59703 155.802 6.54496C156.742 6.4929 157.681 6.67167 158.535 7.06521C159.388 7.45875 160.128 8.05475 160.69 8.7997C161.251 9.54465 161.616 10.4152 161.751 11.3332C161.887 12.2513 161.788 13.188 161.465 14.0594C161.142 14.9308 160.604 15.7095 159.9 16.3256C159.195 16.9417 158.347 17.376 157.43 17.5894ZM157.43 23.4319V23.9135C157.434 24.0863 157.402 24.2581 157.337 24.4184C157.271 24.5787 157.173 24.7243 157.049 24.8461C156.924 24.968 156.776 25.0637 156.613 25.1274C156.449 25.1911 156.275 25.2214 156.099 25.2166C155.748 25.2166 155.412 25.0793 155.163 24.8349C154.915 24.5905 154.776 24.2591 154.776 23.9135V23.4319C154.78 23.0868 154.92 22.7568 155.167 22.5121C155.414 22.2673 155.749 22.1273 156.099 22.1218C156.275 22.1199 156.448 22.1525 156.611 22.2177C156.773 22.2828 156.92 22.3793 157.044 22.5013C157.168 22.6233 157.266 22.7685 157.332 22.9283C157.399 23.0881 157.432 23.2594 157.43 23.4319Z" fill="#B3D59F"/>
</svg>
