<svg width="300" height="300" viewBox="0 0 300 300" fill="none" xmlns="http://www.w3.org/2000/svg">
<path d="M155.051 300C229.258 300 289.415 297.276 289.415 293.915C289.415 290.554 229.258 287.83 155.051 287.83C80.8439 287.83 20.687 290.554 20.687 293.915C20.687 297.276 80.8439 300 155.051 300Z" fill="#263238"/>
<path d="M246.026 13.8114C246.987 15.377 250.457 17.6729 250.457 17.6794C250.457 17.686 251.324 14.9955 251.357 14.8179C251.723 12.772 251.202 8.60798 249.091 7.52256C248.734 7.35004 248.344 7.25263 247.947 7.2367C247.549 7.22078 247.152 7.28669 246.782 7.43013C246.413 7.57357 246.078 7.79131 245.801 8.0691C245.524 8.34689 245.31 8.67847 245.173 9.04214C244.544 10.5683 245.207 12.4826 246.026 13.8114Z" fill="#263238"/>
<path d="M280.045 38.5462C280.045 38.5856 282.284 36.77 282.413 36.6385C283.881 35.132 285.796 31.3758 284.666 29.3431C284.466 29.0088 284.196 28.7192 283.873 28.4933C283.55 28.2674 283.182 28.1102 282.793 28.0319C282.403 27.9537 282.001 27.9563 281.613 28.0394C281.224 28.1225 280.858 28.2843 280.539 28.5143C279.145 29.4418 278.61 31.3956 278.509 32.948C278.448 34.7637 280.045 38.5462 280.045 38.5462Z" fill="#263238"/>
<path d="M240.133 24.2577C241.432 25.4682 245.112 26.7246 245.403 26.8233C244.66 28.8604 244.059 30.9438 243.603 33.0595C243.326 34.2896 243.089 35.5461 242.866 36.8026C242.866 36.2171 242.866 35.6842 242.866 35.6119C242.67 33.5463 241.039 29.6914 238.698 29.1586C238.306 29.0821 237.902 29.0871 237.512 29.1732C237.123 29.2592 236.756 29.4245 236.437 29.6581C236.117 29.8916 235.852 30.1883 235.659 30.5285C235.466 30.8686 235.348 31.2447 235.315 31.632C235.119 33.2634 236.276 34.9212 237.426 36.0132C238.576 37.1051 241.709 38.2366 242.541 38.5261C242.46 39.0129 242.372 39.4931 242.298 39.9799C241.926 42.302 241.56 44.5847 241.134 46.8871C240.985 47.683 240.809 48.4659 240.633 49.2421C240.633 48.7224 240.633 48.2817 240.633 48.2159C240.437 46.1437 238.806 42.2954 236.472 41.756C236.08 41.6806 235.677 41.6864 235.287 41.7729C234.898 41.8594 234.532 42.0247 234.213 42.2581C233.893 42.4915 233.628 42.7877 233.435 43.1274C233.241 43.467 233.124 43.8426 233.089 44.2294C232.893 45.8609 234.05 47.5186 235.2 48.6172C236.35 49.7157 239.185 50.7288 240.166 51.0774C239.963 51.8668 239.76 52.6694 239.524 53.4259C239.354 53.9456 239.226 54.4521 239.023 54.9652L238.455 56.4716C238.062 57.4189 237.663 58.3991 237.25 59.3135C236.973 59.9713 236.695 60.5568 236.418 61.162C236.574 60.3726 236.851 58.8135 236.858 58.6819C236.986 56.6098 235.978 52.5312 233.746 51.6892C233.37 51.5597 232.97 51.5089 232.573 51.54C232.176 51.5711 231.79 51.6836 231.44 51.8699C231.091 52.0562 230.786 52.3123 230.545 52.6213C230.305 52.9302 230.134 53.2851 230.045 53.6627C229.591 55.2481 230.478 57.0768 231.445 58.307C232.514 59.6621 235.816 61.3922 236.229 61.5961C235.762 62.596 235.302 63.5696 234.875 64.484C233.576 67.1153 232.372 69.3717 231.411 71.0623L232.717 71.9701C233.658 70.2005 234.862 67.8521 236.161 65.0497C236.641 64.0367 237.129 62.9381 237.616 61.8066C238.789 62.0891 239.977 62.3087 241.175 62.4645C241.398 64.2011 243.049 67.2008 243.265 67.5889C242.304 68.181 241.371 68.7401 240.478 69.2598C237.934 70.7465 235.701 71.9438 233.949 72.8516L235.369 73.8383C237.007 72.9305 238.996 71.7991 241.215 70.4373C242.196 69.8387 243.245 69.1875 244.273 68.5033C244.585 68.8322 247.149 71.503 248.766 72.1674C250.241 72.7726 252.284 73.141 253.746 72.3187C254.096 72.1359 254.402 71.8836 254.645 71.5781C254.889 71.2726 255.063 70.9209 255.158 70.5456C255.252 70.1703 255.264 69.7799 255.194 69.3998C255.123 69.0196 254.971 68.6582 254.747 68.3389C253.346 66.4509 249.03 66.5364 247 67.1745C246.878 67.214 245.647 67.7666 244.842 68.1284C245.275 67.8521 245.687 67.5824 246.127 67.2863C246.993 66.714 247.846 66.1154 248.759 65.4707L250.065 64.484C250.505 64.1682 250.931 63.7735 251.378 63.4183C252.379 62.5631 253.353 61.6553 254.314 60.7212C254.835 61.458 256.723 64.0498 258.089 64.8655C259.456 65.6812 261.411 66.3391 262.981 65.7404C263.356 65.613 263.7 65.4098 263.989 65.1444C264.278 64.8789 264.506 64.557 264.658 64.1999C264.81 63.8427 264.882 63.4584 264.871 63.072C264.859 62.6857 264.764 62.306 264.591 61.9579C263.502 59.8923 259.226 59.3266 257.115 59.6687C256.986 59.6687 255.505 60.0963 254.693 60.3265C255.261 59.7542 255.836 59.1951 256.398 58.603C258.015 56.8926 259.598 55.1099 261.188 53.3404L262.656 51.7287C262.839 51.9918 265.011 55.1231 266.54 56.0375C267.893 56.8466 269.869 57.511 271.438 56.9124C271.812 56.7832 272.154 56.5791 272.442 56.3133C272.73 56.0474 272.957 55.7258 273.109 55.3693C273.261 55.0127 273.334 54.6291 273.323 54.2434C273.313 53.8576 273.219 53.4783 273.049 53.1299C271.959 51.0577 267.683 50.4985 265.572 50.8406C265.417 50.8406 263.279 51.4524 262.744 51.63C263.82 50.4459 264.909 49.2816 266.026 48.1698C267.55 46.6678 269.172 45.2636 270.884 43.9663C270.972 44.0913 273.225 47.3673 274.794 48.3014C276.148 49.1105 278.116 49.7749 279.693 49.1763C280.067 49.048 280.41 48.8444 280.698 48.5787C280.987 48.313 281.214 47.9913 281.366 47.6345C281.518 47.2776 281.591 46.8937 281.58 46.5076C281.569 46.1215 281.475 45.742 281.303 45.3938C280.207 43.3282 275.931 42.7625 273.827 43.1045C273.685 43.1045 272.061 43.5782 271.29 43.8084L271.229 43.69C272.966 42.4226 274.816 41.3086 276.756 40.3614C277.819 39.822 278.861 39.3747 279.889 38.9536C280.248 39.6115 281.919 42.5651 283.218 43.5585C284.517 44.5518 286.357 45.3806 287.988 44.9531C288.375 44.8666 288.739 44.7016 289.056 44.4688C289.374 44.236 289.637 43.9407 289.828 43.6023C290.02 43.2638 290.136 42.8898 290.168 42.5047C290.201 42.1197 290.15 41.7323 290.018 41.3679C289.165 39.1905 284.977 38.184 282.846 38.2958C282.731 38.2958 281.553 38.4866 280.701 38.6379C281.168 38.4537 281.648 38.2564 282.102 38.0919C283.786 37.4341 285.376 36.9933 286.784 36.5855C287.589 36.3618 288.319 36.171 289.003 36C289.679 36.4671 292.514 38.2958 294.118 38.5853C295.721 38.8747 297.765 38.7958 299.01 37.684C299.311 37.4332 299.555 37.1233 299.726 36.7746C299.897 36.4259 299.99 36.0462 299.999 35.6602C300.009 35.2742 299.935 34.8906 299.782 34.5343C299.629 34.178 299.4 33.8571 299.111 33.5923C297.325 32.0464 293.13 33.0266 291.29 34.0791C291.134 34.1712 288.813 35.8684 288.847 35.8947H288.888C288.211 36.046 287.535 36.2171 286.743 36.4144C285.322 36.7894 283.719 37.2301 282.007 37.8222C280.162 38.4451 278.354 39.1699 276.594 39.993C274.594 40.9153 272.683 42.0095 270.884 43.2624L270.823 43.3085C271.235 42.7625 272.352 41.1903 272.419 41.0587C273.428 39.2299 274.273 35.1382 272.609 33.441C272.325 33.1717 271.986 32.9634 271.613 32.8296C271.241 32.6957 270.844 32.6394 270.448 32.6642C270.052 32.689 269.666 32.7944 269.314 32.9736C268.963 33.1527 268.654 33.4016 268.407 33.7042C267.318 34.9606 267.332 36.9933 267.677 38.4932C268.076 40.2035 270.43 43.223 270.62 43.4664C268.838 44.7726 267.147 46.1923 265.559 47.7159C264.632 48.5974 263.725 49.5184 262.853 50.4459C263.198 49.9657 263.529 49.525 263.529 49.4658C264.537 47.6304 265.383 43.5453 263.719 41.8415C263.434 41.5722 263.095 41.3639 262.723 41.23C262.351 41.0962 261.954 41.0399 261.558 41.0647C261.161 41.0895 260.775 41.1949 260.424 41.374C260.072 41.5532 259.763 41.8021 259.517 42.1047C258.421 43.3611 258.441 45.3938 258.786 46.8936C259.131 48.3935 261.1 51.0445 261.628 51.7353C261.283 52.0905 260.951 52.4523 260.599 52.8141C258.976 54.5508 257.359 56.2874 255.714 57.9517C255.139 58.5372 254.544 59.0898 253.955 59.649C254.26 59.2148 254.517 58.853 254.551 58.7938C255.559 56.9584 256.398 52.8733 254.733 51.1761C254.45 50.9054 254.111 50.6958 253.739 50.5609C253.367 50.4259 252.97 50.3687 252.574 50.3929C252.177 50.4171 251.791 50.5222 251.439 50.7013C251.087 50.8805 250.778 51.1297 250.532 51.4327C249.442 52.6891 249.456 54.7218 249.808 56.2217C250.16 57.7215 251.926 60.1226 252.514 60.9383C251.898 61.4909 251.276 62.05 250.647 62.5566C250.207 62.8986 249.815 63.2539 249.355 63.5696L248.001 64.5235C247.135 65.1024 246.242 65.7076 245.383 66.247C244.788 66.6285 244.212 66.9837 243.637 67.3456C244.219 66.7667 245.336 65.6155 245.417 65.5102C246.487 64.0076 247.143 62.2639 247.325 60.4449C247.452 60.2845 247.563 60.1127 247.656 59.9318C247.845 59.5915 247.959 59.2163 247.989 58.8306C248.019 58.4449 247.965 58.0573 247.831 57.6931C247.697 57.3288 247.486 56.9961 247.211 56.7165C246.936 56.437 246.604 56.2168 246.235 56.0704C243.996 55.2547 240.451 57.636 239.118 59.2608C239.036 59.3529 238.306 60.491 237.859 61.2343C238.055 60.7673 238.252 60.3199 238.455 59.8397C238.847 58.8924 239.219 57.9386 239.618 56.9124C239.788 56.4124 239.97 55.9059 240.146 55.3928C240.322 54.8797 240.464 54.3337 240.633 53.7943C240.985 52.551 241.31 51.2682 241.553 49.9723C242.406 50.3078 245.451 51.459 247.054 51.4064C248.658 51.3537 250.721 50.8209 251.696 49.5052C251.935 49.1971 252.105 48.8433 252.195 48.4669C252.285 48.0905 252.292 47.7 252.216 47.3208C252.14 46.9416 251.983 46.5822 251.754 46.266C251.526 45.9498 251.232 45.684 250.89 45.4859C248.806 44.3413 244.923 46.1437 243.36 47.5844C243.258 47.6765 242.25 48.8079 241.709 49.446C241.871 48.6632 242.027 47.887 242.162 47.091C242.541 44.7952 242.839 42.4862 243.17 40.1377C243.265 39.4207 243.373 38.7168 243.475 38.0064C243.779 38.1248 247.365 39.572 249.165 39.5128C250.755 39.4602 252.771 38.9602 253.746 37.6183C253.984 37.3092 254.154 36.9549 254.243 36.5782C254.332 36.2015 254.339 35.8108 254.263 35.4314C254.187 35.0519 254.03 34.6922 253.802 34.3754C253.575 34.0586 253.281 33.7919 252.94 33.5923C250.857 32.4543 246.973 34.2896 245.41 35.6974C245.288 35.8026 243.84 37.4406 243.495 37.8748C243.725 36.3092 243.969 34.7501 244.273 33.2305C244.661 31.1686 245.187 29.1337 245.85 27.139C245.992 27.1982 249.727 28.7178 251.567 28.6586C253.157 28.606 255.173 28.106 256.147 26.7641C256.387 26.4559 256.557 26.1022 256.647 25.7258C256.737 25.3494 256.744 24.9589 256.668 24.5796C256.592 24.2004 256.435 23.841 256.206 23.5249C255.978 23.2087 255.683 22.9429 255.342 22.7447C253.258 21.6067 249.375 23.4355 247.812 24.8432C247.71 24.9353 246.601 26.1589 246.093 26.8167L245.972 26.7509C246.697 24.7627 247.603 22.8409 248.678 21.0081C249.26 19.995 249.875 19.0346 250.491 18.1531C251.168 18.5083 254.226 20.0871 255.904 20.2121C257.582 20.3371 259.558 20.0476 260.674 18.8175C260.947 18.5364 261.156 18.2026 261.287 17.8378C261.419 17.473 261.47 17.0854 261.437 16.7002C261.405 16.3149 261.289 15.9407 261.098 15.6016C260.907 15.2626 260.645 14.9665 260.329 14.7324C258.387 13.3773 254.321 14.785 252.602 16.048C252.507 16.1138 251.635 16.8966 251.012 17.4821C251.296 17.0808 251.587 16.6598 251.865 16.2783C252.92 14.8508 253.976 13.6009 254.923 12.5089C255.464 11.8906 255.965 11.338 256.438 10.8315C257.284 10.8315 260.667 10.8315 262.169 10.2394C263.671 9.64737 265.336 8.45669 265.742 6.86475C265.851 6.49344 265.879 6.10391 265.823 5.72152C265.767 5.33914 265.629 4.97247 265.418 4.64541C265.206 4.31835 264.927 4.03823 264.596 3.8233C264.266 3.60838 263.894 3.46346 263.502 3.39799C261.134 3.06907 258.191 6.13456 257.257 8.00279C257.176 8.16067 256.202 10.8249 256.249 10.8249H256.296C255.829 11.3051 255.336 11.8314 254.801 12.4102C253.834 13.4825 252.771 14.7126 251.655 16.127C250.464 17.6362 249.364 19.211 248.36 20.8436C247.226 22.6678 246.264 24.5876 245.484 26.5799C245.481 26.6039 245.481 26.6283 245.484 26.6522C245.525 25.9944 245.559 24.067 245.545 23.9157C245.349 21.8501 243.719 17.9952 241.384 17.4624C240.992 17.3859 240.588 17.3909 240.198 17.477C239.809 17.563 239.442 17.7283 239.123 17.9619C238.803 18.1954 238.538 18.4921 238.345 18.8322C238.152 19.1724 238.035 19.5485 238.001 19.9358C237.825 21.5014 238.982 23.1921 240.133 24.2577Z" fill="#263238"/>
<path d="M177.433 47.6631C179.192 47.0053 182.169 44.1437 182.169 44.1437C182.169 44.1437 179.618 42.8281 179.463 42.7557C177.467 42.0255 173.164 41.7558 171.675 43.578C171.437 43.8864 171.268 44.2401 171.179 44.616C171.091 44.992 171.085 45.3819 171.161 45.7603C171.238 46.1387 171.396 46.4973 171.624 46.8127C171.852 47.128 172.146 47.3931 172.487 47.5908C173.874 48.4788 175.938 48.1894 177.433 47.6631Z" fill="#263238"/>
<path d="M208.712 19.7255C208.759 19.7255 207.359 17.2521 207.223 17.0942C205.972 15.4102 202.535 12.8775 200.261 13.5946C199.887 13.7241 199.545 13.929 199.257 14.1957C198.97 14.4624 198.743 14.785 198.593 15.1425C198.442 15.5 198.371 15.8844 198.383 16.2705C198.395 16.6567 198.491 17.0359 198.664 17.3837C199.341 18.8901 201.222 19.765 202.778 20.1202C204.578 20.561 208.712 19.7255 208.712 19.7255Z" fill="#263238"/>
<path d="M186.898 55.2218C188.367 54.2022 190.315 50.9196 190.471 50.6565C192.399 51.7446 194.399 52.7072 196.459 53.5378C197.656 54.0311 198.881 54.485 200.112 54.9324C199.517 54.8074 198.982 54.7021 198.908 54.6955C196.783 54.5048 192.555 55.3534 191.614 57.4913C191.469 57.8506 191.403 58.2356 191.421 58.6213C191.438 59.007 191.539 59.3848 191.716 59.7302C191.894 60.0757 192.144 60.3811 192.45 60.6266C192.757 60.8721 193.113 61.0522 193.495 61.1554C195.106 61.6422 197.02 60.8462 198.319 59.945C199.618 59.0438 201.357 56.2612 201.797 55.5244L203.218 56.0244C205.498 56.8072 207.778 57.5834 209.984 58.4057C210.762 58.7017 211.513 59.0109 212.271 59.3267C211.75 59.2148 211.303 59.1293 211.235 59.1227C209.104 58.932 204.882 59.7806 203.942 61.9119C203.794 62.2711 203.726 62.6565 203.742 63.0429C203.758 63.4294 203.858 63.8082 204.035 64.1546C204.212 64.501 204.462 64.8072 204.769 65.0533C205.076 65.2994 205.432 65.4797 205.816 65.5826C207.433 66.0694 209.341 65.2734 210.64 64.3722C211.939 63.471 213.509 60.9581 214.023 60.0832C214.788 60.4252 215.559 60.741 216.283 61.1291C216.77 61.3922 217.264 61.6093 217.744 61.8988L219.165 62.7145C220.051 63.2671 220.965 63.8262 221.811 64.3854C222.406 64.7735 222.968 65.1484 223.529 65.53C222.758 65.234 221.235 64.6814 221.1 64.6485C219.03 64.142 214.72 64.3525 213.455 66.3325C213.255 66.6657 213.129 67.0361 213.086 67.4196C213.043 67.803 213.083 68.191 213.205 68.5583C213.326 68.9256 213.525 69.2639 213.79 69.5514C214.054 69.8389 214.378 70.069 214.74 70.2269C216.263 70.9505 218.272 70.444 219.7 69.7467C221.263 68.977 223.624 66.1418 223.915 65.7997C224.842 66.4575 225.742 67.0496 226.581 67.6482C229.023 69.3849 231.06 70.9373 232.609 72.1741L233.766 71.1018C232.149 69.8717 229.997 68.2863 227.406 66.497C226.466 65.8392 225.444 65.1813 224.388 64.5235C224.889 63.4533 225.322 62.355 225.687 61.2344C227.487 61.3396 230.823 60.3134 231.256 60.1818C231.675 61.2015 232.074 62.2014 232.433 63.1552C233.461 65.8589 234.26 68.2139 234.855 70.0558L236.114 68.8783C235.505 67.1482 234.72 65.0366 233.752 62.6619C233.333 61.6225 232.866 60.5173 232.365 59.3727C232.758 59.1359 235.931 57.1821 236.899 55.7546C237.778 54.439 238.529 52.5708 237.968 51.0249C237.848 50.6563 237.65 50.3164 237.387 50.0273C237.123 49.7381 236.8 49.5062 236.438 49.3467C236.076 49.1872 235.683 49.1036 235.286 49.1015C234.888 49.0993 234.495 49.1786 234.131 49.3342C231.966 50.321 231.256 54.4587 231.533 56.5177C231.533 56.6427 231.871 57.9386 232.095 58.7543C231.892 58.2939 231.696 57.8465 231.479 57.3729C231.06 56.4388 230.606 55.5178 230.126 54.5245C229.882 54.0509 229.625 53.5772 229.375 53.097C229.125 52.6168 228.813 52.1366 228.536 51.6432C227.859 50.5315 227.122 49.4329 226.35 48.3541C227.196 47.9923 230.166 46.67 231.242 45.5122C232.318 44.3545 233.346 42.6112 233.028 40.9995C232.969 40.6174 232.827 40.2519 232.612 39.9267C232.397 39.6015 232.114 39.3241 231.781 39.1124C231.449 38.9007 231.074 38.7596 230.681 38.6983C230.289 38.6369 229.887 38.6567 229.503 38.7563C227.21 39.4142 225.857 43.4006 225.809 45.4794C225.809 45.6109 225.945 47.1042 226.032 47.9199C225.566 47.2621 225.106 46.6042 224.612 45.9464C223.177 44.0848 221.675 42.2428 220.18 40.4009C219.72 39.8352 219.267 39.2694 218.827 38.6971C219.124 38.5721 222.69 37.0723 223.894 35.783C224.963 34.6318 225.999 32.8753 225.687 31.2637C225.627 30.8814 225.484 30.5159 225.268 30.1909C225.053 29.866 224.769 29.5889 224.436 29.3778C224.102 29.1667 223.727 29.0264 223.334 28.9659C222.941 28.9055 222.54 28.9263 222.156 29.027C219.869 29.6849 218.516 33.6713 218.468 35.7501C218.468 35.9014 218.664 38.0525 218.739 38.5985C217.744 37.3486 216.763 36.0921 215.85 34.8225C214.604 33.1086 213.474 31.3177 212.467 29.4612C212.602 29.402 216.337 27.8561 217.568 26.5273C218.637 25.3827 219.673 23.6263 219.361 22.0146C219.3 21.6327 219.156 21.2676 218.94 20.943C218.725 20.6183 218.441 20.3413 218.108 20.1299C217.775 19.9185 217.4 19.7773 217.008 19.7156C216.615 19.6538 216.214 19.6728 215.83 19.7714C213.536 20.4292 212.189 24.4222 212.142 26.4944C212.142 26.6326 212.284 28.2705 212.379 29.0468L212.244 29.0863C211.285 27.1839 210.501 25.2026 209.903 23.1658C209.557 22.0541 209.294 20.9752 209.057 19.9161C209.788 19.6925 213.083 18.6531 214.334 17.5808C215.586 16.5086 216.756 14.9495 216.621 13.2852C216.607 12.8968 216.509 12.5156 216.334 12.1667C216.158 11.8177 215.908 11.5088 215.6 11.2603C215.293 11.0119 214.935 10.8294 214.55 10.7249C214.165 10.6203 213.762 10.5961 213.367 10.6539C211.012 11.0683 209.226 14.8837 208.942 16.9427C208.942 17.0546 208.894 18.2123 208.888 19.0544C208.793 18.5741 208.678 18.0808 208.597 17.6203C208.272 15.8836 208.089 14.2851 207.92 12.8642C207.839 12.0485 207.785 11.3183 207.737 10.6341C208.333 10.0553 210.708 7.70681 211.29 6.22011C211.871 4.73342 212.183 2.77309 211.29 1.37849C211.091 1.04359 210.823 0.753048 210.501 0.525814C210.18 0.29858 209.813 0.139754 209.424 0.0596873C209.035 -0.0203792 208.634 -0.0198876 208.245 0.0611302C207.857 0.142148 207.49 0.301872 207.169 0.529892C205.275 1.9508 205.491 6.14117 206.215 8.09493C206.276 8.25938 207.568 10.792 207.602 10.7657L207.636 10.7262C207.636 11.3841 207.704 12.1011 207.765 12.8708C207.886 14.2983 208.035 15.9165 208.319 17.6598C208.601 19.5429 208.999 21.4079 209.51 23.2447C210.067 25.3051 210.812 27.3129 211.736 29.2441L211.777 29.3099C211.296 28.81 209.916 27.4614 209.801 27.3364C208.137 26.0208 204.131 24.4683 202.135 25.7511C201.809 25.9719 201.534 26.2571 201.329 26.5881C201.124 26.9191 200.993 27.2885 200.944 27.6721C200.896 28.0557 200.931 28.4449 201.048 28.8144C201.164 29.1839 201.36 29.5253 201.621 29.8164C202.69 31.0861 204.733 31.4479 206.357 31.3887C208.157 31.3295 211.648 29.6388 211.926 29.5007C212.921 31.4458 214.051 33.3228 215.309 35.1185C216.026 36.1711 216.79 37.2039 217.562 38.2367C217.135 37.8156 216.756 37.4473 216.696 37.4012C215.031 36.0856 211.026 34.5331 209.03 35.8158C208.704 36.0367 208.429 36.3219 208.224 36.6529C208.018 36.9839 207.887 37.3533 207.839 37.7369C207.79 38.1205 207.825 38.5097 207.942 38.8792C208.059 39.2487 208.254 39.5901 208.516 39.8812C209.585 41.1508 211.628 41.5126 213.252 41.46C214.876 41.4074 217.873 40.0194 218.664 39.6378C218.969 40.0325 219.26 40.4272 219.564 40.8153C221.019 42.6967 222.48 44.565 223.854 46.4332C224.341 47.091 224.794 47.7489 225.248 48.4067L224.497 47.6765C222.832 46.3608 218.827 44.8149 216.831 46.0911C216.505 46.312 216.23 46.5972 216.025 46.9282C215.819 47.2592 215.688 47.6286 215.64 48.0122C215.591 48.3958 215.626 48.785 215.743 49.1545C215.86 49.524 216.055 49.8654 216.317 50.1565C217.379 51.4327 219.429 51.7945 221.053 51.7353C222.677 51.6761 225.383 50.4197 226.323 49.9855C226.77 50.6828 227.217 51.3801 227.616 52.0708C227.873 52.551 228.157 52.9983 228.394 53.4917C228.631 53.9851 228.881 54.4587 229.118 54.9389C229.544 55.8731 229.984 56.8335 230.376 57.7544C230.654 58.4123 230.904 59.0109 231.161 59.6293C230.687 58.9714 229.727 57.6558 229.639 57.59C228.317 56.2891 226.675 55.338 224.869 54.8271C224.73 54.676 224.576 54.5393 224.409 54.4193C224.099 54.1761 223.741 53.9991 223.356 53.8999C222.971 53.8007 222.57 53.7815 222.177 53.8436C221.784 53.9057 221.409 54.0477 221.077 54.2602C220.744 54.4728 220.462 54.7511 220.248 55.0771C219.009 57.0506 220.755 60.8989 222.156 62.4645C222.237 62.5566 223.252 63.4644 223.894 64.0301C223.461 63.7538 223.049 63.4841 222.602 63.2079C221.716 62.6553 220.816 62.1224 219.855 61.5567L218.414 60.7673C217.94 60.491 217.399 60.2608 216.892 60.0108C215.694 59.4385 214.456 58.9188 213.198 58.4189C213.691 57.6689 215.417 54.9718 215.66 53.4325C215.904 51.8932 215.769 49.8802 214.591 48.7027C214.325 48.4154 214 48.1857 213.637 48.0284C213.274 47.8711 212.881 47.7898 212.484 47.7898C212.086 47.7898 211.693 47.8711 211.33 48.0284C210.967 48.1857 210.642 48.4154 210.376 48.7027C208.84 50.4854 209.977 54.5311 211.114 56.2875C211.181 56.3993 212.149 57.6031 212.69 58.2018C211.926 57.9123 211.168 57.6163 210.39 57.34C208.143 56.5572 205.843 55.827 203.549 55.0902L201.452 54.4324C201.628 54.1693 203.752 51.0051 204.023 49.275C204.26 47.7423 204.131 45.7228 202.954 44.5518C202.688 44.2645 202.363 44.0348 202 43.8775C201.637 43.7202 201.244 43.6389 200.846 43.6389C200.449 43.6389 200.056 43.7202 199.693 43.8775C199.33 44.0348 199.005 44.2645 198.739 44.5518C197.203 46.3345 198.34 50.3868 199.476 52.1432C199.557 52.2747 200.945 53.9588 201.323 54.3732C199.781 53.8601 198.252 53.347 196.77 52.7747C194.762 52.0184 192.805 51.1395 190.911 50.1434C190.992 50.0184 193.225 46.7226 193.502 44.9597C193.746 43.4269 193.61 41.4074 192.433 40.2299C192.167 39.9426 191.842 39.7128 191.479 39.5555C191.116 39.3983 190.723 39.317 190.325 39.317C189.928 39.317 189.535 39.3983 189.172 39.5555C188.809 39.7128 188.484 39.9426 188.218 40.2299C186.682 42.0126 187.819 46.0582 188.955 47.8146C189.03 47.9331 190.085 49.2158 190.599 49.7881L190.511 49.8934C188.637 48.8275 186.864 47.6013 185.214 46.2293C184.294 45.4859 183.455 44.7229 182.663 43.9663C183.143 43.394 185.308 40.7561 185.735 39.1971C186.161 37.638 186.249 35.6777 185.207 34.3818C184.974 34.0688 184.676 33.8071 184.332 33.6137C183.988 33.4202 183.606 33.2994 183.211 33.259C182.816 33.2187 182.417 33.2597 182.039 33.3795C181.661 33.4993 181.314 33.6951 181.019 33.9542C179.287 35.5659 179.963 39.7102 180.89 41.5784C180.944 41.6771 181.567 42.6573 182.047 43.3611C181.695 43.0125 181.323 42.6638 180.992 42.3218C179.74 41.0522 178.671 39.8154 177.744 38.7103C177.216 38.0525 176.756 37.4933 176.323 36.9473C176.499 36.1448 177.142 32.9148 176.79 31.3623C176.438 29.8099 175.572 28.0074 174.036 27.3233C173.667 27.1468 173.263 27.0506 172.852 27.0413C172.44 27.032 172.032 27.1098 171.655 27.2694C171.277 27.4291 170.94 27.6666 170.667 27.9656C170.394 28.2645 170.19 28.6178 170.072 29.0007C169.3 31.2045 171.858 34.5791 173.57 35.8224C173.718 35.9277 176.229 37.3486 176.242 37.3091C176.256 37.2696 176.242 37.2696 176.242 37.2565C176.641 37.7959 177.074 38.3682 177.595 38.98C178.502 40.1049 179.544 41.3679 180.769 42.6704C182.074 44.0902 183.463 45.4345 184.93 46.6963C186.565 48.1147 188.327 49.3893 190.193 50.5052H190.268C189.591 50.3473 187.663 49.9526 187.514 49.9394C185.39 49.7487 181.161 50.5973 180.221 52.7286C180.074 53.0883 180.007 53.4739 180.024 53.8604C180.041 54.2469 180.142 54.6255 180.319 54.9717C180.497 55.318 180.747 55.624 181.054 55.87C181.361 56.1159 181.718 56.2963 182.101 56.3993C183.691 56.919 185.633 56.123 186.898 55.2218Z" fill="#263238"/>
<path d="M77.2703 244.453C78.5288 244.874 80.6533 246.893 80.6533 246.893C80.6533 246.893 78.8535 247.874 78.7317 247.92C77.3177 248.472 74.2527 248.729 73.1634 247.453C72.9906 247.235 72.8663 246.985 72.7987 246.718C72.731 246.451 72.7214 246.174 72.7704 245.903C72.8195 245.633 72.9261 245.375 73.0835 245.147C73.2409 244.919 73.4455 244.725 73.6844 244.578C74.7196 243.92 76.1945 244.091 77.2703 244.453Z" fill="#263238"/>
<path d="M99.9972 263.918C99.9972 263.918 99.05 265.701 98.9755 265.806C98.1095 267.023 95.6941 268.878 94.0635 268.398C93.7959 268.309 93.5502 268.167 93.3422 267.981C93.1343 267.795 92.9686 267.568 92.8559 267.316C92.7432 267.064 92.6858 266.792 92.6875 266.517C92.6893 266.242 92.75 265.971 92.8659 265.72C93.3328 264.641 94.6521 263.99 95.755 263.714C97.0472 263.392 99.9972 263.918 99.9972 263.918Z" fill="#263238"/>
<path d="M83.901 238.96C84.9632 239.664 86.4044 241.98 86.5194 242.164C87.8781 241.358 89.2908 240.641 90.7481 240.019C91.5938 239.657 92.4599 239.309 93.3259 238.98C92.9064 239.072 92.5275 239.158 92.4734 239.158C90.9646 239.329 87.9402 238.789 87.2298 237.276C87.1235 237.022 87.0727 236.75 87.0807 236.476C87.0887 236.202 87.1553 235.933 87.2762 235.685C87.3972 235.438 87.5698 235.217 87.7831 235.038C87.9965 234.859 88.2458 234.725 88.5154 234.645C89.6588 234.27 91.0323 234.809 91.9727 235.434C92.9132 236.059 94.1987 238.019 94.5235 238.539L95.5316 238.158C97.1419 237.566 98.7522 236.98 100.315 236.362C100.87 236.145 101.404 235.908 101.939 235.704L101.201 235.862C99.6859 236.026 96.6615 235.487 95.9579 233.974C95.8515 233.72 95.8008 233.447 95.8088 233.174C95.8167 232.9 95.8833 232.63 96.0043 232.383C96.1252 232.135 96.2978 231.915 96.5112 231.736C96.7245 231.557 96.9739 231.423 97.2434 231.343C98.38 230.968 99.7535 231.514 100.694 232.132C101.634 232.75 102.791 234.526 103.191 235.145C103.725 234.888 104.273 234.632 104.781 234.362C105.126 234.171 105.457 234.007 105.809 233.796L106.81 233.191C107.433 232.79 108.082 232.369 108.678 231.961L109.855 231.066C109.307 231.29 108.231 231.724 108.136 231.724C106.668 232.112 103.59 232.02 102.663 230.632C102.516 230.396 102.422 230.134 102.386 229.86C102.35 229.587 102.373 229.31 102.454 229.046C102.535 228.782 102.672 228.537 102.856 228.328C103.04 228.118 103.267 227.949 103.522 227.83C104.591 227.297 106.032 227.626 107.061 228.106C108.089 228.586 109.909 230.619 110.126 230.869C110.802 230.408 111.411 229.948 112 229.514C113.712 228.238 115.139 227.093 116.229 226.225L117.067 226.975C115.931 227.869 114.422 229.034 112.602 230.323C111.925 230.797 111.249 231.29 110.484 231.783C110.855 232.538 111.18 233.314 111.459 234.105C112.812 234.146 114.153 234.367 115.444 234.763C115.728 234.026 115.998 233.309 116.235 232.625C116.912 230.685 117.467 228.994 117.859 227.672L118.772 228.488C118.367 229.731 117.839 231.25 117.189 232.961C116.905 233.704 116.587 234.5 116.249 235.316C116.533 235.474 118.827 236.822 119.537 237.829C120.247 238.835 120.748 240.072 120.369 241.184C120.288 241.447 120.151 241.691 119.968 241.9C119.784 242.108 119.558 242.278 119.303 242.397C119.048 242.516 118.771 242.581 118.488 242.59C118.206 242.599 117.925 242.55 117.663 242.447C116.107 241.789 115.532 238.829 115.694 237.355C115.694 237.27 115.917 236.342 116.066 235.757C115.924 236.085 115.795 236.414 115.647 236.75C115.362 237.408 115.051 238.066 114.726 238.802C114.557 239.138 114.388 239.46 114.212 239.829C114.036 240.197 113.827 240.526 113.637 240.874C113.17 241.684 112.663 242.473 112.128 243.262C112.737 243.512 114.875 244.414 115.66 245.236C116.445 246.058 117.203 247.275 117.013 248.433C116.974 248.705 116.877 248.965 116.728 249.198C116.579 249.431 116.381 249.632 116.148 249.786C115.915 249.941 115.652 250.047 115.374 250.097C115.097 250.147 114.812 250.141 114.537 250.077C112.893 249.643 111.864 246.821 111.831 245.341C111.831 245.249 111.898 244.183 111.952 243.598C111.628 244.071 111.276 244.539 110.965 245.006C109.97 246.354 108.935 247.69 107.886 249.025C107.568 249.433 107.257 249.847 106.946 250.255C107.162 250.341 109.726 251.36 110.606 252.268C111.384 253.071 112.149 254.307 111.959 255.459C111.92 255.731 111.822 255.992 111.673 256.226C111.524 256.459 111.326 256.66 111.092 256.815C110.858 256.97 110.594 257.075 110.315 257.125C110.037 257.175 109.751 257.167 109.476 257.103C107.832 256.669 106.81 253.847 106.77 252.367C106.77 252.255 106.871 250.722 106.919 250.334C106.242 251.235 105.565 252.143 104.889 253.064C104.031 254.305 103.253 255.597 102.561 256.932C102.663 256.972 105.349 258.024 106.249 258.952C107.027 259.754 107.791 260.991 107.602 262.149C107.563 262.421 107.465 262.682 107.316 262.916C107.166 263.15 106.968 263.35 106.735 263.505C106.501 263.66 106.236 263.766 105.958 263.815C105.68 263.865 105.394 263.857 105.119 263.793C103.475 263.352 102.453 260.504 102.413 259.057C102.413 258.958 102.487 257.787 102.541 257.235H102.446C101.792 258.598 101.264 260.016 100.87 261.471C100.64 262.267 100.464 263.043 100.315 263.806C100.836 263.951 103.204 264.642 104.111 265.392C105.017 266.142 105.877 267.253 105.809 268.418C105.801 268.693 105.734 268.963 105.612 269.211C105.49 269.459 105.316 269.68 105.101 269.859C104.887 270.038 104.636 270.171 104.365 270.25C104.094 270.33 103.81 270.353 103.529 270.319C101.844 270.062 100.511 267.365 100.274 265.905C100.274 265.826 100.227 265.004 100.207 264.398C100.146 264.747 100.072 265.096 100.024 265.425C99.8212 266.668 99.7129 267.813 99.625 268.826C99.5776 269.404 99.5505 269.931 99.5303 270.418C99.9633 270.825 101.689 272.463 102.128 273.516C102.568 274.568 102.805 275.956 102.203 276.963C102.065 277.202 101.876 277.411 101.651 277.576C101.425 277.74 101.166 277.857 100.891 277.919C100.616 277.981 100.33 277.987 100.053 277.935C99.7756 277.884 99.5123 277.777 99.2799 277.621C97.9267 276.641 97.9944 273.674 98.4815 272.246C98.5289 272.121 99.4085 270.273 99.4288 270.319C99.4288 269.845 99.4288 269.339 99.4896 268.786C99.5505 267.767 99.6317 266.615 99.8076 265.372C99.9846 264.026 100.24 262.691 100.572 261.372C100.939 259.894 101.439 258.45 102.067 257.057C102.07 257.042 102.07 257.026 102.067 257.011C101.736 257.373 100.775 258.36 100.714 258.425C99.5438 259.379 96.7156 260.55 95.2677 259.669C95.033 259.514 94.8341 259.314 94.6838 259.081C94.5335 258.847 94.4351 258.586 94.395 258.313C94.3548 258.041 94.3738 257.763 94.4507 257.498C94.5276 257.233 94.6607 256.986 94.8415 256.774C95.5857 255.853 97.0336 255.57 98.1771 255.584C99.4558 255.584 101.973 256.761 102.169 256.853C102.834 255.447 103.593 254.084 104.442 252.775C104.943 252.011 105.471 251.262 106.005 250.518C105.708 250.821 105.437 251.091 105.396 251.123C104.233 252.077 101.398 253.248 99.9836 252.367C99.7489 252.213 99.55 252.012 99.3997 251.779C99.2494 251.545 99.151 251.284 99.1108 251.011C99.0707 250.739 99.0897 250.461 99.1665 250.196C99.2434 249.931 99.3766 249.684 99.5573 249.472C100.295 248.551 101.749 248.268 102.886 248.282C104.023 248.295 106.208 249.242 106.777 249.499L107.399 248.65C108.407 247.288 109.429 245.933 110.376 244.578C110.708 244.104 111.053 243.618 111.337 243.137C111.073 243.407 110.85 243.637 110.809 243.664C109.639 244.617 106.81 245.788 105.396 244.907C105.163 244.753 104.965 244.553 104.815 244.32C104.665 244.087 104.567 243.826 104.527 243.555C104.487 243.283 104.506 243.006 104.582 242.741C104.658 242.477 104.79 242.231 104.97 242.019C105.708 241.092 107.162 240.809 108.299 240.822C109.436 240.835 111.404 241.69 112.081 241.993C112.392 241.493 112.697 240.993 112.974 240.493C113.15 240.144 113.346 239.835 113.509 239.467C113.671 239.098 113.84 238.769 114.003 238.427C114.287 237.77 114.591 237.059 114.855 236.401C115.044 235.941 115.214 235.5 115.383 235.053C115.058 235.533 114.395 236.454 114.327 236.526C113.411 237.476 112.257 238.178 110.978 238.565C110.878 238.673 110.77 238.772 110.653 238.861C110.437 239.038 110.184 239.169 109.912 239.245C109.641 239.322 109.355 239.342 109.075 239.305C108.795 239.267 108.526 239.174 108.285 239.029C108.044 238.885 107.837 238.694 107.676 238.467C106.763 237.066 107.954 234.309 108.921 233.165C108.982 233.099 109.686 232.441 110.139 232.027C109.835 232.231 109.544 232.428 109.226 232.632C108.61 233.04 107.974 233.428 107.298 233.849L106.283 234.434C105.951 234.638 105.565 234.809 105.207 234.993C104.368 235.421 103.488 235.809 102.595 236.178C102.961 236.71 104.233 238.612 104.429 239.704C104.625 240.796 104.564 242.236 103.752 243.091C103.565 243.297 103.335 243.463 103.078 243.578C102.821 243.692 102.542 243.754 102.259 243.757C101.976 243.761 101.696 243.707 101.436 243.599C101.175 243.491 100.941 243.332 100.748 243.131C99.6317 241.881 100.376 238.98 101.161 237.71C101.208 237.631 101.878 236.783 102.25 236.322C101.716 236.546 101.181 236.763 100.626 236.98C99.0363 237.572 97.4058 238.125 95.7819 238.684C95.288 238.848 94.7941 239.026 94.3002 239.204C94.4287 239.388 95.9917 241.611 96.2082 242.841C96.4044 243.927 96.3435 245.367 95.5316 246.223C95.3447 246.428 95.1159 246.593 94.8596 246.708C94.6034 246.822 94.3254 246.884 94.0434 246.888C93.7614 246.893 93.4815 246.84 93.2217 246.733C92.9619 246.626 92.7278 246.468 92.5343 246.269C91.4112 245.019 92.1554 242.118 92.9403 240.848C92.9944 240.749 93.9619 239.532 94.219 239.23C93.1297 239.618 92.0472 240.006 90.9984 240.44C89.5762 241.007 88.195 241.666 86.8645 242.414C86.9254 242.499 88.5627 244.815 88.7927 246.071C88.9822 247.157 88.9213 248.597 88.1162 249.453C87.9292 249.659 87.7 249.825 87.4431 249.94C87.1863 250.056 86.9075 250.117 86.6246 250.122C86.3417 250.126 86.0611 250.073 85.8006 249.966C85.5401 249.858 85.3056 249.699 85.1121 249.499C83.989 248.249 84.7332 245.348 85.518 244.078C85.5722 243.993 86.3029 243.065 86.6615 242.631L86.5938 242.558C85.2738 243.344 84.0285 244.242 82.8726 245.242C82.2298 245.788 81.648 246.341 81.0932 246.894C81.4382 247.295 83.0214 249.143 83.353 250.249C83.6845 251.354 83.7724 252.755 83.0553 253.689C82.8924 253.914 82.6829 254.104 82.4401 254.246C82.1974 254.388 81.9268 254.478 81.6458 254.513C81.3648 254.547 81.0795 254.523 80.8084 254.444C80.5373 254.364 80.2863 254.23 80.0715 254.051C78.813 252.932 79.2258 249.972 79.8618 248.624C79.8956 248.551 80.3354 247.847 80.6601 247.308C80.4166 247.558 80.1527 247.815 79.9226 248.065C79.0498 248.985 78.3124 249.887 77.6628 250.696C77.2975 251.15 76.9862 251.577 76.6818 251.972C76.8171 252.538 77.3245 254.834 77.0945 255.919C76.8645 257.004 76.2826 258.327 75.1933 258.833C74.9428 258.96 74.668 259.034 74.3863 259.051C74.1047 259.068 73.8224 259.028 73.5575 258.934C73.2927 258.839 73.0511 258.692 72.8481 258.501C72.6451 258.31 72.4852 258.081 72.3787 257.827C71.7968 256.268 73.5695 253.821 74.767 252.913C74.8753 252.834 76.6412 251.788 76.6479 251.814C76.9253 251.426 77.2298 251.012 77.5681 250.571C78.1973 249.755 78.9213 248.834 79.7738 247.893C80.6847 246.864 81.6561 245.887 82.6831 244.966C83.8087 243.96 85.0221 243.051 86.3097 242.249H86.357C85.8766 242.374 84.5099 242.683 84.4084 242.697C82.8929 242.861 79.8685 242.322 79.1649 240.809C79.0584 240.555 79.0074 240.283 79.0149 240.01C79.0225 239.736 79.0885 239.467 79.2087 239.219C79.329 238.972 79.5009 238.752 79.7135 238.572C79.9261 238.393 80.1747 238.258 80.4436 238.177C81.5871 237.763 82.9605 238.302 83.901 238.96Z" fill="#263238"/>
<path d="M118.258 253.86C119.503 253.38 122.494 253.551 122.494 253.551C122.494 253.551 121.777 255.432 121.716 255.524C121.039 256.84 118.854 258.965 117.169 258.682C116.893 258.625 116.632 258.513 116.402 258.353C116.173 258.193 115.981 257.988 115.837 257.752C115.694 257.515 115.603 257.252 115.57 256.98C115.537 256.707 115.563 256.431 115.647 256.169C115.944 255.064 117.203 254.261 118.258 253.86Z" fill="#263238"/>
<path d="M148.543 254.287C148.543 254.287 149.016 256.261 149.03 256.366C149.185 257.839 148.597 260.773 147 261.438C146.737 261.541 146.455 261.589 146.172 261.579C145.889 261.57 145.611 261.503 145.356 261.383C145.101 261.263 144.875 261.092 144.692 260.881C144.509 260.671 144.373 260.426 144.294 260.162C143.921 259.05 144.496 257.714 145.146 256.813C145.951 255.748 148.543 254.287 148.543 254.287Z" fill="#263238"/>
<path d="M119.605 245.466C120.883 245.335 123.522 246.183 123.732 246.249C124.228 244.778 124.825 243.341 125.518 241.947C125.91 241.138 126.344 240.329 126.777 239.526C126.526 239.861 126.289 240.184 126.256 240.184C125.214 241.263 122.555 242.769 121.012 242.065C120.759 241.94 120.536 241.766 120.357 241.552C120.178 241.338 120.047 241.091 119.973 240.825C119.898 240.559 119.882 240.281 119.924 240.008C119.967 239.736 120.068 239.475 120.22 239.243C120.836 238.243 122.25 237.783 123.373 237.664C124.496 237.546 126.79 238.217 127.392 238.408L127.9 237.487C128.732 236.013 129.564 234.553 130.335 233.092C130.613 232.579 130.856 232.066 131.107 231.547C130.883 231.849 130.687 232.099 130.653 232.132C129.618 233.217 126.952 234.717 125.41 234.013C125.158 233.889 124.936 233.714 124.758 233.501C124.579 233.288 124.449 233.041 124.374 232.776C124.3 232.511 124.283 232.233 124.325 231.962C124.367 231.69 124.467 231.43 124.618 231.198C125.241 230.191 126.648 229.737 127.778 229.619C128.908 229.501 130.971 230.106 131.682 230.33C131.919 229.79 132.162 229.257 132.358 228.724C132.494 228.363 132.649 228.021 132.758 227.646C132.866 227.271 133.001 226.915 133.116 226.554C133.319 225.85 133.529 225.133 133.712 224.442C133.84 223.962 133.948 223.501 134.063 223.041C133.8 223.554 133.258 224.554 133.204 224.633C132.345 225.856 129.95 227.731 128.312 227.264C128.044 227.177 127.797 227.037 127.587 226.852C127.378 226.668 127.21 226.442 127.096 226.191C126.981 225.939 126.922 225.667 126.921 225.392C126.921 225.117 126.98 224.845 127.095 224.593C127.548 223.514 128.867 222.85 129.97 222.567C131.181 222.251 133.813 222.672 134.145 222.725C134.334 221.962 134.51 221.219 134.659 220.515C135.112 218.462 135.43 216.693 135.66 215.318L136.797 215.364C136.54 216.759 136.168 218.594 135.647 220.725C135.457 221.501 135.247 222.33 135.017 223.179C135.803 223.514 136.567 223.897 137.304 224.324C138.364 223.513 139.535 222.849 140.782 222.35C140.505 221.607 140.227 220.896 139.957 220.225C139.185 218.311 138.461 216.686 137.873 215.43L139.118 215.476C139.639 216.68 140.254 218.16 140.897 219.877C141.188 220.62 141.472 221.429 141.763 222.258C142.088 222.205 144.726 221.778 145.938 222.087C147.04 222.37 148.36 223.028 148.82 224.113C148.934 224.365 148.993 224.637 148.993 224.912C148.993 225.187 148.934 225.459 148.819 225.71C148.704 225.962 148.537 226.187 148.327 226.372C148.118 226.557 147.871 226.697 147.602 226.784C145.965 227.257 143.542 225.383 142.71 224.153C142.656 224.08 142.196 223.238 141.919 222.705C142.034 223.041 142.149 223.363 142.264 223.725C142.494 224.416 142.71 225.113 142.94 225.863C143.035 226.231 143.137 226.6 143.231 226.968C143.326 227.336 143.407 227.744 143.495 228.132C143.678 229.034 143.827 229.961 143.948 230.895C144.571 230.698 146.797 230.033 147.934 230.152C149.07 230.27 150.471 230.724 151.093 231.731C151.245 231.962 151.345 232.222 151.388 232.493C151.43 232.765 151.414 233.042 151.34 233.307C151.266 233.572 151.136 233.819 150.959 234.032C150.781 234.246 150.56 234.421 150.308 234.546C148.766 235.257 146.1 233.757 145.065 232.678C144.997 232.606 144.341 231.75 143.989 231.27C144.057 231.836 144.131 232.395 144.185 232.967C144.334 234.619 144.429 236.296 144.537 237.967C144.537 238.48 144.605 238.987 144.639 239.5C144.862 239.427 147.494 238.579 148.766 238.71C149.896 238.829 151.303 239.283 151.925 240.282C152.078 240.514 152.179 240.775 152.223 241.047C152.266 241.319 152.25 241.597 152.176 241.863C152.102 242.128 151.972 242.376 151.793 242.59C151.615 242.804 151.393 242.979 151.141 243.105C149.598 243.808 146.932 242.315 145.89 241.23C145.816 241.151 144.869 239.914 144.645 239.592C144.726 240.717 144.814 241.835 144.95 242.934C145.128 244.418 145.401 245.89 145.768 247.341C145.877 247.308 148.617 246.413 149.916 246.552C151.046 246.663 152.453 247.124 153.076 248.124C153.228 248.356 153.33 248.616 153.373 248.888C153.416 249.16 153.4 249.438 153.326 249.704C153.252 249.97 153.122 250.217 152.944 250.431C152.765 250.645 152.543 250.821 152.291 250.946C150.748 251.65 148.082 250.156 147.047 249.071C146.98 248.999 146.256 248.058 145.924 247.604L145.836 247.644C146.249 249.097 146.797 250.51 147.473 251.867C147.832 252.617 148.218 253.314 148.61 253.985C149.104 253.768 151.371 252.794 152.555 252.794C153.739 252.794 155.146 253.09 155.87 254.025C156.047 254.238 156.176 254.486 156.249 254.751C156.322 255.016 156.337 255.293 156.294 255.564C156.251 255.835 156.15 256.094 155.997 256.325C155.845 256.557 155.645 256.754 155.41 256.906C153.955 257.774 151.141 256.57 149.997 255.59C149.936 255.538 149.321 254.932 148.942 254.492C149.124 254.788 149.307 255.103 149.49 255.386C150.166 256.459 150.843 257.393 151.459 258.221C151.81 258.689 152.135 259.103 152.453 259.491C153.049 259.491 155.457 259.675 156.513 260.195C157.568 260.715 158.664 261.622 158.874 262.774C158.93 263.043 158.928 263.322 158.867 263.59C158.806 263.859 158.688 264.112 158.521 264.334C158.353 264.556 158.14 264.741 157.894 264.878C157.648 265.015 157.376 265.1 157.095 265.129C155.396 265.247 153.461 262.918 152.893 261.544C152.846 261.425 152.298 259.485 152.331 259.485H152.365C152.054 259.123 151.729 258.728 151.384 258.287C150.748 257.472 150.031 256.544 149.354 255.485C148.587 254.352 147.889 253.177 147.264 251.966C146.554 250.611 145.97 249.198 145.518 247.742C145.518 247.742 145.518 247.703 145.518 247.69C145.518 248.176 145.437 249.532 145.417 249.663C145.166 251.124 143.8 253.801 142.115 254.044C141.834 254.075 141.549 254.049 141.279 253.967C141.008 253.885 140.759 253.749 140.546 253.567C140.333 253.386 140.162 253.163 140.043 252.913C139.924 252.663 139.86 252.392 139.855 252.117C139.801 250.946 140.714 249.808 141.587 249.104C142.575 248.308 145.261 247.598 145.478 247.538C145.055 246.048 144.736 244.531 144.524 242.999C144.395 242.105 144.293 241.203 144.199 240.296C144.199 240.717 144.158 241.092 144.145 241.144C143.894 242.605 142.528 245.282 140.843 245.525C140.556 245.563 140.263 245.54 139.986 245.459C139.709 245.378 139.452 245.239 139.234 245.054C139.016 244.868 138.842 244.639 138.723 244.382C138.603 244.125 138.542 243.847 138.542 243.565C138.488 242.401 139.402 241.263 140.275 240.552C141.147 239.842 143.441 239.19 144.043 239.026C144.043 238.677 143.982 238.329 143.948 237.98C143.806 236.309 143.671 234.645 143.488 233.013C143.427 232.435 143.339 231.869 143.258 231.31C143.258 231.678 143.218 231.968 143.211 232.04C142.961 233.5 141.594 236.184 139.902 236.421C139.622 236.451 139.338 236.424 139.068 236.342C138.799 236.259 138.55 236.123 138.338 235.941C138.126 235.76 137.955 235.537 137.837 235.288C137.718 235.039 137.654 234.768 137.649 234.494C137.595 233.329 138.509 232.191 139.381 231.487C140.254 230.783 142.325 230.172 143.042 229.981C142.94 229.409 142.839 228.83 142.71 228.277C142.616 227.902 142.548 227.534 142.433 227.159L142.108 226.06C141.878 225.363 141.648 224.646 141.431 223.975C141.269 223.508 141.1 223.067 140.938 222.62C141.005 223.192 141.12 224.317 141.12 224.409C141.053 225.71 140.643 226.971 139.929 228.073C139.93 228.219 139.916 228.364 139.889 228.507C139.842 228.779 139.737 229.038 139.581 229.268C139.425 229.497 139.222 229.693 138.983 229.842C138.745 229.99 138.477 230.089 138.197 230.131C137.918 230.173 137.632 230.158 137.358 230.086C135.728 229.599 134.787 226.751 134.767 225.271C134.767 225.185 134.855 224.238 134.929 223.639C134.828 223.981 134.74 224.297 134.639 224.672C134.442 225.376 134.219 226.073 133.962 226.823C133.84 227.179 133.712 227.54 133.583 227.902C133.454 228.264 133.292 228.639 133.143 229.007C132.785 229.862 132.379 230.711 131.952 231.56C132.582 231.731 134.821 232.369 135.701 233.079C136.58 233.79 137.494 234.915 137.44 236.086C137.436 236.361 137.373 236.632 137.254 236.882C137.136 237.132 136.966 237.355 136.753 237.537C136.541 237.72 136.292 237.857 136.022 237.94C135.753 238.023 135.468 238.05 135.187 238.02C133.495 237.776 132.128 235.105 131.871 233.645C131.871 233.553 131.797 232.481 131.777 231.895C131.513 232.402 131.256 232.908 130.971 233.415C130.159 234.869 129.293 236.322 128.427 237.77L127.649 239.085C127.873 239.144 130.552 239.848 131.533 240.638C132.514 241.427 133.326 242.48 133.279 243.651C133.274 243.926 133.21 244.197 133.091 244.447C132.972 244.697 132.8 244.919 132.588 245.101C132.375 245.282 132.125 245.419 131.855 245.501C131.585 245.583 131.3 245.609 131.019 245.578C129.334 245.341 127.961 242.664 127.71 241.203C127.71 241.092 127.602 239.559 127.602 239.164C127.034 240.144 126.472 241.138 125.958 242.118C125.265 243.453 124.657 244.828 124.138 246.236C124.246 246.236 127.04 246.986 128.049 247.795C128.928 248.505 129.841 249.637 129.787 250.808C129.782 251.082 129.719 251.353 129.6 251.602C129.482 251.851 129.311 252.074 129.099 252.255C128.887 252.437 128.638 252.573 128.369 252.656C128.099 252.738 127.815 252.765 127.534 252.735C125.85 252.498 124.476 249.821 124.219 248.361C124.219 248.269 124.138 247.098 124.124 246.538H124.023C123.546 247.971 123.202 249.441 122.994 250.933C122.866 251.755 122.791 252.544 122.744 253.314C123.279 253.4 125.714 253.801 126.709 254.432C127.703 255.064 128.698 256.07 128.779 257.241C128.806 257.516 128.773 257.792 128.683 258.053C128.593 258.314 128.447 258.554 128.256 258.757C128.065 258.961 127.832 259.123 127.573 259.233C127.313 259.344 127.033 259.4 126.749 259.399C125.044 259.34 123.367 256.827 122.961 255.406C122.961 255.327 122.798 254.511 122.703 253.919C122.703 254.268 122.656 254.63 122.649 254.959C122.602 256.215 122.649 257.366 122.683 258.386C122.683 258.965 122.751 259.485 122.791 259.971C123.272 260.32 125.193 261.741 125.762 262.734C126.33 263.728 126.756 265.076 126.269 266.148C126.163 266.403 126.004 266.633 125.801 266.825C125.598 267.016 125.357 267.164 125.092 267.259C124.827 267.355 124.545 267.395 124.263 267.378C123.981 267.362 123.705 267.288 123.454 267.161C121.966 266.346 121.682 263.366 121.986 261.899C121.986 261.774 122.663 259.859 122.663 259.873C122.615 259.399 122.568 258.892 122.528 258.346C122.46 257.327 122.392 256.169 122.413 254.913C122.414 253.556 122.497 252.201 122.663 250.854C122.843 249.344 123.158 247.851 123.603 246.394V246.341C123.319 246.742 122.487 247.834 122.413 247.913C121.377 248.999 118.718 250.499 117.176 249.795C116.924 249.67 116.702 249.495 116.523 249.282C116.345 249.069 116.214 248.822 116.14 248.557C116.065 248.292 116.049 248.015 116.091 247.743C116.133 247.471 116.233 247.211 116.384 246.979C117.067 246.045 118.475 245.591 119.605 245.466Z" fill="#263238"/>
<path d="M273.698 52.2881H84.7467C82.1796 52.2881 80.0985 54.3114 80.0985 56.8074V235.401C80.0985 237.897 82.1796 239.921 84.7467 239.921H273.698C276.265 239.921 278.346 237.897 278.346 235.401V56.8074C278.346 54.3114 276.265 52.2881 273.698 52.2881Z" fill="white" stroke="#263238" stroke-linecap="round" stroke-linejoin="round"/>
<path d="M273.827 52.2881H84.6317C83.4306 52.2881 82.2786 52.7515 81.4286 53.5767C80.5787 54.4018 80.1003 55.5212 80.0985 56.689V64.4579H278.326V56.689C278.324 55.5268 277.851 54.4124 277.008 53.5882C276.165 52.764 275.022 52.2968 273.827 52.2881Z" fill="#B3D59F" stroke="#263238" stroke-linecap="round" stroke-linejoin="round"/>
<path d="M89.6114 58.1625C89.6127 58.5219 89.5043 58.8736 89.2999 59.173C89.0956 59.4725 88.8044 59.7062 88.4633 59.8446C88.1222 59.9831 87.7465 60.02 87.3838 59.9506C87.0211 59.8813 86.6878 59.7089 86.4259 59.4553C86.1641 59.2016 85.9856 58.8781 85.913 58.5258C85.8404 58.1734 85.8769 57.808 86.0181 57.4758C86.1592 57.1437 86.3986 56.8598 86.7058 56.66C87.013 56.4602 87.3743 56.3535 87.744 56.3535C88.2375 56.3552 88.7104 56.5462 89.0601 56.8849C89.4097 57.2236 89.6078 57.6827 89.6114 58.1625Z" fill="white" stroke="#263238" stroke-linecap="round" stroke-linejoin="round"/>
<path d="M97.4396 58.1625C97.4409 58.5219 97.3326 58.8736 97.1282 59.173C96.9238 59.4725 96.6326 59.7062 96.2915 59.8446C95.9504 59.9831 95.5748 60.02 95.2121 59.9506C94.8494 59.8813 94.516 59.7089 94.2542 59.4553C93.9923 59.2016 93.8138 58.8781 93.7412 58.5258C93.6686 58.1734 93.7052 57.808 93.8463 57.4758C93.9875 57.1437 94.2268 56.8598 94.534 56.66C94.8413 56.4602 95.2026 56.3535 95.5722 56.3535C96.0663 56.3535 96.5403 56.5439 96.8903 56.883C97.2403 57.222 97.4378 57.6822 97.4396 58.1625Z" fill="white" stroke="#263238" stroke-linecap="round" stroke-linejoin="round"/>
<path d="M105.268 58.1626C105.269 58.5222 105.16 58.8741 104.956 59.1737C104.751 59.4733 104.459 59.707 104.118 59.8453C103.776 59.9835 103.4 60.02 103.038 59.9502C102.675 59.8803 102.341 59.7073 102.08 59.453C101.818 59.1986 101.64 58.8745 101.568 58.5217C101.497 58.1689 101.534 57.8033 101.676 57.4713C101.818 57.1393 102.059 56.8558 102.367 56.6568C102.675 56.4578 103.037 56.3522 103.407 56.3535C103.9 56.3553 104.372 56.5464 104.721 56.8853C105.069 57.2242 105.266 57.6833 105.268 58.1626Z" fill="white" stroke="#263238" stroke-linecap="round" stroke-linejoin="round"/>
<path d="M182.25 86.6135V74.2923H179.652V72.9043H186.418V74.2923H183.82V86.6135H182.25Z" fill="#263238"/>
<path d="M187.392 76.2136C187.392 74.1152 188.461 72.7666 190.613 72.7666C192.764 72.7666 193.861 74.0823 193.861 76.2136V83.2984C193.861 85.3772 192.792 86.7455 190.613 86.7455C188.434 86.7455 187.392 85.3772 187.392 83.2984V76.2136ZM188.942 83.3774C188.942 84.6338 189.49 85.3509 190.613 85.3509C191.736 85.3509 192.284 84.6273 192.284 83.3774V76.1413C192.284 74.9045 191.763 74.1678 190.613 74.1678C189.463 74.1678 188.942 74.9111 188.942 76.1413V83.3774Z" fill="#263238"/>
<path d="M198.651 72.9043C200.843 72.9043 201.851 74.22 201.851 76.3118V83.2256C201.851 85.3175 200.843 86.6135 198.651 86.6135H195.349V72.9043H198.651ZM198.651 85.2188C199.781 85.2188 200.322 84.561 200.322 83.2848V76.2329C200.322 74.9765 199.781 74.2923 198.63 74.2923H196.939V85.2188H198.651Z" fill="#263238"/>
<path d="M204.889 83.8506L204.348 86.6135H202.9L205.606 72.9043H207.879L210.586 86.6135H209.016L208.468 83.8506H204.889ZM205.092 82.5349H208.238L206.641 74.641L205.092 82.5349Z" fill="#263238"/>
<path d="M213.312 81.6929L210.329 72.9043H211.959L214.158 79.6405L216.371 72.9043H217.859L214.862 81.6929V86.6135H213.312V81.6929Z" fill="#263238"/>
<path d="M92.4667 73.2795V73.4769H91.6751V73.2335C91.6751 72.5757 91.4179 72.1941 90.8158 72.1941C90.2136 72.1941 89.9633 72.5822 89.9633 73.2269C89.9633 74.8583 92.4734 75.0162 92.4734 77.062C92.4734 78.1606 91.9322 78.8777 90.7887 78.8777C89.6453 78.8777 89.104 78.1606 89.104 77.062V76.6476H89.8889V77.1344C89.8889 77.7922 90.1662 78.1738 90.7616 78.1738C91.357 78.1738 91.6412 77.7922 91.6412 77.1344C91.6412 75.5161 89.1378 75.3583 89.1378 73.3124C89.1378 72.1875 89.6723 71.4902 90.7955 71.4902C91.9186 71.4902 92.4667 72.1744 92.4667 73.2795Z" fill="#263238"/>
<path d="M96.5058 73.2863V73.9441H95.7142V73.2468C95.7142 72.589 95.4503 72.1943 94.8414 72.1943C94.2324 72.1943 93.9618 72.589 93.9618 73.2468V77.0951C93.9618 77.7529 94.2392 78.1411 94.8414 78.1411C95.4435 78.1411 95.7142 77.7464 95.7142 77.0951V76.1478H96.5058V77.0491C96.5058 78.1542 95.9713 78.8778 94.8211 78.8778C93.6709 78.8778 93.1364 78.1542 93.1364 77.0491V73.2863C93.1364 72.1877 93.6709 71.4575 94.8211 71.4575C95.9713 71.4575 96.5058 72.1877 96.5058 73.2863Z" fill="#263238"/>
<path d="M98.1026 75.536V78.8251H97.2704V71.5298H98.1026V74.8189H99.9429V71.5298H100.775V78.8054H99.9429V75.5162L98.1026 75.536Z" fill="#263238"/>
<path d="M104.293 74.7531V75.4833H102.467V78.0686H104.713V78.8054H101.634V71.5298H104.713V72.2666H102.467V74.7531H104.293Z" fill="#263238"/>
<path d="M107.237 71.5298C108.4 71.5298 108.935 72.1876 108.935 73.3388V77.0095C108.935 78.1212 108.4 78.8054 107.237 78.8054H105.484V71.5298H107.237ZM107.237 78.0686C107.839 78.0686 108.123 77.7068 108.123 77.0424V73.2993C108.123 72.6415 107.839 72.2666 107.23 72.2666H106.33V78.0686H107.237Z" fill="#263238"/>
<path d="M110.531 77.095C110.531 77.7528 110.795 78.141 111.404 78.141C112.013 78.141 112.27 77.7463 112.27 77.095V71.5298H113.055V77.049C113.055 78.1541 112.527 78.8909 111.377 78.8909C110.227 78.8909 109.706 78.1541 109.706 77.049V71.5298H110.531V77.095Z" fill="#263238"/>
<path d="M113.854 78.8054V71.5298H114.693V78.0686H116.831V78.8054H113.854Z" fill="#263238"/>
<path d="M120.126 74.7531V75.4833H118.292V78.0686H120.538V78.8054H117.46V71.5298H120.538V72.2666H118.292V74.7531H120.126Z" fill="#263238"/>
<path d="M140.708 95.1192V95.3363C140.747 95.6273 140.689 95.9229 140.543 96.1797C140.397 96.4366 140.17 96.6412 139.896 96.7638C140.173 96.8913 140.402 97.1018 140.548 97.3645C140.694 97.6272 140.75 97.9284 140.708 98.2241V98.7372C140.708 99.1734 140.529 99.5917 140.212 99.9001C139.895 100.209 139.465 100.382 139.016 100.382C138.568 100.382 138.137 100.209 137.82 99.9001C137.503 99.5917 137.325 99.1734 137.325 98.7372V98.2241C137.281 97.9266 137.338 97.6235 137.487 97.3601C137.636 97.0968 137.868 96.8875 138.15 96.7638C137.871 96.6459 137.64 96.4427 137.491 96.185C137.341 95.9272 137.283 95.6292 137.325 95.3363V95.1192C137.325 94.683 137.503 94.2647 137.82 93.9563C138.137 93.6479 138.568 93.4746 139.016 93.4746C139.465 93.4746 139.895 93.6479 140.212 93.9563C140.529 94.2647 140.708 94.683 140.708 95.1192ZM138.137 95.1192V95.4547C138.137 96.1125 138.468 96.4283 139.03 96.4283C139.591 96.4283 139.923 96.1257 139.923 95.4547V95.1192C139.923 94.4087 139.591 94.0864 139.03 94.0864C138.468 94.0864 138.137 94.4285 138.137 95.1389V95.1192ZM138.137 98.1123V98.6978C138.137 99.4082 138.461 99.7437 139.03 99.7437C139.598 99.7437 139.916 99.4082 139.923 98.6978V98.1123C139.923 97.4545 139.618 97.119 139.03 97.119C138.441 97.119 138.137 97.4611 138.137 98.132V98.1123Z" fill="#263238"/>
<path d="M142.189 95.6719V96.6323H141.425V95.6719H142.189ZM142.189 99.4412V100.395H141.425V99.4412H142.189Z" fill="#263238"/>
<path d="M142.94 95.1524C142.94 94.0933 143.481 93.4092 144.571 93.4092C145.66 93.4092 146.201 94.067 146.201 95.1524V98.7179C146.201 99.777 145.667 100.468 144.571 100.468C143.475 100.468 142.94 99.777 142.94 98.7179V95.1524ZM143.725 98.7639C143.725 99.4217 143.996 99.7638 144.571 99.7638C145.146 99.7638 145.41 99.3888 145.41 98.7639V95.113C145.41 94.4551 145.146 94.1065 144.571 94.1065C143.996 94.1065 143.725 94.4814 143.725 95.113V98.7639Z" fill="#263238"/>
<path d="M146.892 95.1524C146.892 94.0933 147.433 93.4092 148.522 93.4092C149.611 93.4092 150.153 94.067 150.153 95.1524V98.7179C150.153 99.777 149.618 100.468 148.522 100.468C147.426 100.468 146.892 99.777 146.892 98.7179V95.1524ZM147.676 98.7639C147.676 99.4217 147.947 99.7638 148.522 99.7638C149.097 99.7638 149.361 99.3888 149.361 98.7639V95.113C149.361 94.4551 149.097 94.1065 148.522 94.1065C147.947 94.1065 147.676 94.4814 147.676 95.113V98.7639Z" fill="#263238"/>
<path d="M158.441 94.7378C158.142 94.9141 157.802 95.0158 157.453 95.0339V94.376C157.734 94.3829 158.009 94.2949 158.231 94.127C158.453 93.9591 158.609 93.7217 158.671 93.4551H159.246V100.369H158.461L158.441 94.7378Z" fill="#263238"/>
<path d="M160.363 95.1524C160.363 94.0933 160.897 93.4092 161.986 93.4092C163.076 93.4092 163.624 94.067 163.624 95.1524V98.7179C163.624 99.777 163.082 100.468 161.986 100.468C160.89 100.468 160.363 99.777 160.363 98.7179V95.1524ZM161.141 98.7639C161.141 99.4217 161.418 99.7638 161.986 99.7638C162.555 99.7638 162.832 99.3888 162.832 98.7639V95.113C162.832 94.4551 162.568 94.1065 161.986 94.1065C161.404 94.1065 161.141 94.4814 161.141 95.113V98.7639Z" fill="#263238"/>
<path d="M165.132 95.6719V96.6323H164.375V95.6719H165.132ZM165.132 99.4412V100.395H164.375V99.4412H165.132Z" fill="#263238"/>
<path d="M165.89 95.1524C165.89 94.0933 166.425 93.4092 167.514 93.4092C168.603 93.4092 169.151 94.067 169.151 95.1524V98.7179C169.151 99.777 168.61 100.468 167.514 100.468C166.418 100.468 165.89 99.777 165.89 98.7179V95.1524ZM166.668 98.7639C166.668 99.4217 166.946 99.7638 167.514 99.7638C168.082 99.7638 168.36 99.3888 168.36 98.7639V95.113C168.36 94.4551 168.089 94.1065 167.514 94.1065C166.939 94.1065 166.668 94.4814 166.668 95.113V98.7639Z" fill="#263238"/>
<path d="M169.841 95.1524C169.841 94.0933 170.376 93.4092 171.465 93.4092C172.555 93.4092 173.103 94.067 173.103 95.1524V98.7179C173.103 99.777 172.561 100.468 171.465 100.468C170.369 100.468 169.841 99.777 169.841 98.7179V95.1524ZM170.62 98.7639C170.62 99.4217 170.897 99.7638 171.465 99.7638C172.034 99.7638 172.311 99.3888 172.311 98.7639V95.113C172.311 94.4551 172.047 94.1065 171.465 94.1065C170.883 94.1065 170.62 94.4814 170.62 95.113V98.7639Z" fill="#263238"/>
<path d="M181.892 94.7378C181.592 94.9141 181.253 95.0158 180.904 95.0339V94.376C181.185 94.3829 181.46 94.2949 181.682 94.127C181.904 93.9591 182.059 93.7217 182.122 93.4551H182.676V100.369H181.892V94.7378Z" fill="#263238"/>
<path d="M187.074 95.1588C187.074 97.2441 184.666 97.994 184.652 99.586V99.6978H186.986V100.395H183.874V99.8031C183.874 97.573 186.283 97.1388 186.283 95.1982C186.283 94.4878 186.039 94.1128 185.444 94.1128C184.848 94.1128 184.612 94.5141 184.612 95.1259V95.7377H183.874V95.1785C183.874 94.1194 184.368 93.4155 185.471 93.4155C186.574 93.4155 187.074 94.1062 187.074 95.1588Z" fill="#263238"/>
<path d="M188.57 95.6719V96.6323H187.805V95.6719H188.57ZM188.57 99.4412V100.395H187.805V99.4412H188.57Z" fill="#263238"/>
<path d="M189.321 95.1524C189.321 94.0933 189.855 93.4092 190.944 93.4092C192.034 93.4092 192.582 94.067 192.582 95.1524V98.7179C192.582 99.777 192.04 100.468 190.944 100.468C189.848 100.468 189.321 99.777 189.321 98.7179V95.1524ZM190.099 98.7639C190.099 99.4217 190.376 99.7638 190.944 99.7638C191.513 99.7638 191.79 99.3888 191.79 98.7639V95.113C191.79 94.4551 191.519 94.1065 190.944 94.1065C190.369 94.1065 190.099 94.4814 190.099 95.113V98.7639Z" fill="#263238"/>
<path d="M193.272 95.1524C193.272 94.0933 193.806 93.4092 194.896 93.4092C195.985 93.4092 196.533 94.067 196.533 95.1524V98.7179C196.533 99.777 195.992 100.468 194.896 100.468C193.8 100.468 193.272 99.777 193.272 98.7179V95.1524ZM194.05 98.7639C194.05 99.4217 194.327 99.7638 194.896 99.7638C195.464 99.7638 195.742 99.3888 195.742 98.7639V95.113C195.742 94.4551 195.478 94.1065 194.896 94.1065C194.314 94.1065 194.05 94.4814 194.05 95.113V98.7639Z" fill="#263238"/>
<path d="M207.961 95.1588C207.961 97.2441 205.552 97.994 205.538 99.586V99.6978H207.879V100.395H204.76V99.8031C204.76 97.573 207.162 97.1388 207.162 95.1982C207.162 94.4878 206.919 94.1128 206.33 94.1128C205.741 94.1128 205.498 94.5141 205.498 95.1259V95.7377H204.76V95.1785C204.76 94.1194 205.254 93.4155 206.35 93.4155C207.446 93.4155 207.961 94.1062 207.961 95.1588Z" fill="#263238"/>
<path d="M209.449 95.6719V96.6323H208.691V95.6719H209.449ZM209.449 99.4412V100.395H208.691V99.4412H209.449Z" fill="#263238"/>
<path d="M210.2 95.1524C210.2 94.0933 210.741 93.4092 211.831 93.4092C212.92 93.4092 213.461 94.067 213.461 95.1524V98.7179C213.461 99.777 212.927 100.468 211.831 100.468C210.735 100.468 210.2 99.777 210.2 98.7179V95.1524ZM210.985 98.7639C210.985 99.4217 211.262 99.7638 211.831 99.7638C212.399 99.7638 212.67 99.3888 212.67 98.7639V95.113C212.67 94.4551 212.406 94.1065 211.831 94.1065C211.256 94.1065 210.985 94.4814 210.985 95.113V98.7639Z" fill="#263238"/>
<path d="M214.151 95.1524C214.151 94.0933 214.693 93.4092 215.782 93.4092C216.871 93.4092 217.419 94.067 217.419 95.1524V98.7179C217.419 99.777 216.878 100.468 215.782 100.468C214.686 100.468 214.151 99.777 214.151 98.7179V95.1524ZM214.936 98.7639C214.936 99.4217 215.214 99.7638 215.782 99.7638C216.35 99.7638 216.621 99.3888 216.621 98.7639V95.113C216.621 94.4551 216.357 94.1065 215.782 94.1065C215.207 94.1065 214.936 94.4814 214.936 95.113V98.7639Z" fill="#263238"/>
<path d="M230.227 99.0006V100.395H229.449V99.0006H227.156V98.3033L229.361 93.4814H230.227V98.3033H230.796V99.0006H230.227ZM227.886 98.3033H229.449V94.8958L227.886 98.3033Z" fill="#263238"/>
<path d="M232.162 95.6719V96.6323H231.405V95.6719H232.162ZM232.162 99.4412V100.395H231.405V99.4412H232.162Z" fill="#263238"/>
<path d="M232.913 95.1524C232.913 94.0933 233.455 93.4092 234.544 93.4092C235.633 93.4092 236.175 94.067 236.175 95.1524V98.7179C236.175 99.777 235.64 100.468 234.544 100.468C233.448 100.468 232.913 99.777 232.913 98.7179V95.1524ZM233.698 98.7639C233.698 99.4217 233.976 99.7638 234.544 99.7638C235.112 99.7638 235.383 99.3888 235.383 98.7639V95.113C235.383 94.4551 235.119 94.1065 234.544 94.1065C233.969 94.1065 233.698 94.4814 233.698 95.113V98.7639Z" fill="#263238"/>
<path d="M236.871 95.1524C236.871 94.0933 237.406 93.4092 238.495 93.4092C239.584 93.4092 240.132 94.067 240.132 95.1524V98.7179C240.132 99.777 239.591 100.468 238.495 100.468C237.399 100.468 236.871 99.777 236.871 98.7179V95.1524ZM237.649 98.7639C237.649 99.4217 237.927 99.7638 238.495 99.7638C239.063 99.7638 239.341 99.3888 239.341 98.7639V95.113C239.341 94.4551 239.07 94.1065 238.495 94.1065C237.92 94.1065 237.649 94.4814 237.649 95.113V98.7639Z" fill="#263238"/>
<path d="M254.415 95.1393V95.2708H253.671V95.0932C253.671 94.4354 253.407 94.1065 252.832 94.1065C252.257 94.1065 251.966 94.4814 251.966 95.2182V96.7707C252.048 96.5418 252.205 96.3453 252.413 96.2111C252.62 96.0769 252.867 96.0124 253.116 96.0273C254.03 96.0273 254.436 96.6852 254.436 97.6719V98.7179C254.436 99.777 253.894 100.468 252.805 100.468C251.716 100.468 251.174 99.777 251.174 98.7179V95.1919C251.174 94.0933 251.682 93.4092 252.805 93.4092C253.928 93.4092 254.415 94.0867 254.415 95.1393ZM251.939 97.7311V98.7639C251.939 99.4217 252.203 99.7638 252.778 99.7638C253.353 99.7638 253.624 99.3888 253.624 98.7639V97.7311C253.624 97.1062 253.353 96.7312 252.778 96.7312C252.203 96.7312 251.939 97.1062 251.939 97.7311Z" fill="#263238"/>
<path d="M255.938 95.6719V96.6323H255.173V95.6719H255.938ZM255.938 99.4412V100.395H255.173V99.4412H255.938Z" fill="#263238"/>
<path d="M256.675 95.1524C256.675 94.0933 257.216 93.4092 258.299 93.4092C259.382 93.4092 259.936 94.067 259.936 95.1524V98.7179C259.936 99.777 259.402 100.468 258.299 100.468C257.196 100.468 256.675 99.777 256.675 98.7179V95.1524ZM257.46 98.7639C257.46 99.4217 257.731 99.7638 258.299 99.7638C258.867 99.7638 259.145 99.3888 259.145 98.7639V95.113C259.145 94.4551 258.881 94.1065 258.299 94.1065C257.717 94.1065 257.46 94.4814 257.46 95.113V98.7639Z" fill="#263238"/>
<path d="M260.64 95.1524C260.64 94.0933 261.181 93.4092 262.271 93.4092C263.36 93.4092 263.901 94.067 263.901 95.1524V98.7179C263.901 99.777 263.367 100.468 262.271 100.468C261.175 100.468 260.64 99.777 260.64 98.7179V95.1524ZM261.425 98.7639C261.425 99.4217 261.695 99.7638 262.271 99.7638C262.846 99.7638 263.11 99.3888 263.11 98.7639V95.113C263.11 94.4551 262.846 94.1065 262.271 94.1065C261.695 94.1065 261.425 94.4814 261.425 95.113V98.7639Z" fill="#263238"/>
<path d="M155.532 177.486H133.867V197.333H155.532V177.486Z" stroke="#ADADAD" stroke-miterlimit="10"/>
<path d="M177.825 177.486H156.161V197.333H177.825V177.486Z" stroke="#ADADAD" stroke-miterlimit="10"/>
<path d="M200.119 177.486H178.454V197.333H200.119V177.486Z" stroke="#ADADAD" stroke-miterlimit="10"/>
<path d="M222.419 177.486H200.755V197.333H222.419V177.486Z" stroke="#ADADAD" stroke-miterlimit="10"/>
<path d="M244.713 177.486H223.049V197.333H244.713V177.486Z" stroke="#ADADAD" stroke-miterlimit="10"/>
<path d="M267.101 177.486H245.437V197.333H267.101V177.486Z" stroke="#ADADAD" stroke-miterlimit="10"/>
<path d="M89.3204 104.566H124.402" stroke="#ADADAD" stroke-miterlimit="10"/>
<path d="M89.3204 108.309H124.402" stroke="#ADADAD" stroke-miterlimit="10"/>
<path d="M89.3204 112.045H124.402" stroke="#ADADAD" stroke-miterlimit="10"/>
<path d="M89.3204 115.782H124.402" stroke="#ADADAD" stroke-miterlimit="10"/>
<path d="M89.3204 119.518H124.402" stroke="#ADADAD" stroke-miterlimit="10"/>
<path d="M89.3204 123.261H124.402" stroke="#ADADAD" stroke-miterlimit="10"/>
<path d="M89.3204 126.998H124.402" stroke="#ADADAD" stroke-miterlimit="10"/>
<path d="M89.3204 130.734H124.402" stroke="#ADADAD" stroke-miterlimit="10"/>
<path d="M89.3204 187.821H124.402" stroke="#ADADAD" stroke-miterlimit="10"/>
<path d="M89.3204 191.557H124.402" stroke="#ADADAD" stroke-miterlimit="10"/>
<path d="M89.3204 195.293H124.402" stroke="#ADADAD" stroke-miterlimit="10"/>
<path d="M89.3204 199.03H124.402" stroke="#ADADAD" stroke-miterlimit="10"/>
<path d="M89.3204 202.773H124.402" stroke="#ADADAD" stroke-miterlimit="10"/>
<path d="M89.3204 206.51H124.402" stroke="#ADADAD" stroke-miterlimit="10"/>
<path d="M89.3204 210.246H124.402" stroke="#ADADAD" stroke-miterlimit="10"/>
<path d="M89.3204 213.982H124.402" stroke="#ADADAD" stroke-miterlimit="10"/>
<path d="M155.532 104.585H133.867V124.432H155.532V104.585Z" stroke="#ADADAD" stroke-miterlimit="10"/>
<path d="M177.825 104.585H156.161V124.432H177.825V104.585Z" fill="#B3D59F" stroke="#ADADAD" stroke-miterlimit="10"/>
<path d="M200.119 104.585H178.454V124.432H200.119V104.585Z" fill="#B3D59F" stroke="#ADADAD" stroke-miterlimit="10"/>
<path d="M222.419 104.585H200.755V124.432H222.419V104.585Z" stroke="#ADADAD" stroke-miterlimit="10"/>
<path d="M244.713 104.585H223.049V124.432H244.713V104.585Z" stroke="#ADADAD" stroke-miterlimit="10"/>
<path d="M267.101 104.585H245.437V124.432H267.101V104.585Z" stroke="#ADADAD" stroke-miterlimit="10"/>
<path d="M159.963 110.243H175.112" stroke="#ADADAD" stroke-miterlimit="10"/>
<path d="M159.963 112.486H175.112" stroke="#ADADAD" stroke-miterlimit="10"/>
<path d="M159.963 114.729H175.112" stroke="#ADADAD" stroke-miterlimit="10"/>
<path d="M159.963 116.966H175.112" stroke="#ADADAD" stroke-miterlimit="10"/>
<path d="M159.963 119.209H175.112" stroke="#ADADAD" stroke-miterlimit="10"/>
<path d="M155.532 128.866H133.867V148.713H155.532V128.866Z" stroke="#ADADAD" stroke-miterlimit="10"/>
<path d="M177.825 128.866H156.161V148.713H177.825V128.866Z" fill="#B3D59F" stroke="#ADADAD" stroke-miterlimit="10"/>
<path d="M200.119 128.866H178.454V148.713H200.119V128.866Z" stroke="#ADADAD" stroke-miterlimit="10"/>
<path d="M222.419 128.866H200.755V148.713H222.419V128.866Z" stroke="#ADADAD" stroke-miterlimit="10"/>
<path d="M244.713 128.866H223.049V148.713H244.713V128.866Z" stroke="#ADADAD" stroke-miterlimit="10"/>
<path d="M267.101 128.866H245.437V148.713H267.101V128.866Z" stroke="#ADADAD" stroke-miterlimit="10"/>
<path d="M159.963 134.26H175.112" stroke="#ADADAD" stroke-miterlimit="10"/>
<path d="M159.963 136.497H175.112" stroke="#ADADAD" stroke-miterlimit="10"/>
<path d="M159.963 138.74H175.112" stroke="#ADADAD" stroke-miterlimit="10"/>
<path d="M159.963 140.983H175.112" stroke="#ADADAD" stroke-miterlimit="10"/>
<path d="M159.963 143.227H175.112" stroke="#ADADAD" stroke-miterlimit="10"/>
<path d="M155.532 153.14H133.867V172.986H155.532V153.14Z" stroke="#ADADAD" stroke-miterlimit="10"/>
<path d="M177.825 153.14H156.161V172.986H177.825V153.14Z" stroke="#ADADAD" stroke-miterlimit="10"/>
<path d="M200.119 153.14H178.454V172.986H200.119V153.14Z" stroke="#ADADAD" stroke-miterlimit="10"/>
<path d="M222.419 153.14H200.755V172.986H222.419V153.14Z" stroke="#ADADAD" stroke-miterlimit="10"/>
<path d="M244.713 153.14H223.049V172.986H244.713V153.14Z" fill="#B3D59F" stroke="#ADADAD" stroke-miterlimit="10"/>
<path d="M267.101 153.14H245.437V172.986H267.101V153.14Z" stroke="#ADADAD" stroke-miterlimit="10"/>
<path d="M227.142 158.593H242.291" stroke="#ADADAD" stroke-miterlimit="10"/>
<path d="M227.142 160.836H242.291" stroke="#ADADAD" stroke-miterlimit="10"/>
<path d="M227.142 163.073H242.291" stroke="#ADADAD" stroke-miterlimit="10"/>
<path d="M227.142 165.316H242.291" stroke="#ADADAD" stroke-miterlimit="10"/>
<path d="M227.142 167.56H242.291" stroke="#ADADAD" stroke-miterlimit="10"/>
<path d="M155.532 201.826H133.867V221.672H155.532V201.826Z" stroke="#ADADAD" stroke-miterlimit="10"/>
<path d="M177.825 201.826H156.161V221.672H177.825V201.826Z" stroke="#ADADAD" stroke-miterlimit="10"/>
<path d="M200.119 201.826H178.454V221.672H200.119V201.826Z" fill="#B3D59F" stroke="#ADADAD" stroke-miterlimit="10"/>
<path d="M222.419 201.826H200.755V221.672H222.419V201.826Z" fill="#B3D59F" stroke="#ADADAD" stroke-miterlimit="10"/>
<path d="M244.713 201.826H223.049V221.672H244.713V201.826Z" fill="#B3D59F" stroke="#ADADAD" stroke-miterlimit="10"/>
<path d="M267.101 201.826H245.437V221.672H267.101V201.826Z" stroke="#ADADAD" stroke-miterlimit="10"/>
<path d="M182.027 207.259H197.176" stroke="#ADADAD" stroke-miterlimit="10"/>
<path d="M182.027 209.503H197.176" stroke="#ADADAD" stroke-miterlimit="10"/>
<path d="M182.027 211.746H197.176" stroke="#ADADAD" stroke-miterlimit="10"/>
<path d="M182.027 213.982H197.176" stroke="#ADADAD" stroke-miterlimit="10"/>
<path d="M182.027 216.226H197.176" stroke="#ADADAD" stroke-miterlimit="10"/>
<path d="M204.091 207.259H219.239" stroke="#ADADAD" stroke-miterlimit="10"/>
<path d="M204.091 209.503H219.239" stroke="#ADADAD" stroke-miterlimit="10"/>
<path d="M204.091 211.746H219.239" stroke="#ADADAD" stroke-miterlimit="10"/>
<path d="M204.091 213.982H219.239" stroke="#ADADAD" stroke-miterlimit="10"/>
<path d="M204.091 216.226H219.239" stroke="#ADADAD" stroke-miterlimit="10"/>
<path d="M226.154 207.259H241.303" stroke="#ADADAD" stroke-miterlimit="10"/>
<path d="M226.154 209.503H241.303" stroke="#ADADAD" stroke-miterlimit="10"/>
<path d="M226.154 211.746H241.303" stroke="#ADADAD" stroke-miterlimit="10"/>
<path d="M226.154 213.982H241.303" stroke="#ADADAD" stroke-miterlimit="10"/>
<path d="M226.154 216.226H241.303" stroke="#ADADAD" stroke-miterlimit="10"/>
<path d="M73.9145 63.0238C67.7846 58.6098 59.7061 59.0768 54.855 62.0305C50.0038 64.9842 48.5018 70.2994 47.1418 73.9372C44.4355 81.1733 38.6236 85.4755 32.3313 89.6527C26.2419 93.7115 18.3326 99.6583 22.5072 107.769C24.3948 111.447 26.7562 113.973 23.1838 119.946C19.6114 125.919 15.8563 128.682 18.4476 134.418C21.039 140.154 24.3543 149.127 38.2988 145.91C52.2433 142.693 56.4991 127.294 57.9199 121.571C59.3408 115.847 66.1676 113.499 71.154 109.388C76.1405 105.276 75.6466 98.8163 74.2258 94.6851C73.1432 91.5144 71.9254 87.0017 75.6534 83.4099L76.1405 83.5547C76.1405 83.5547 83.6304 80.2655 84.8753 78.2591C86.1202 76.2528 80.0377 67.4313 73.9145 63.0238Z" fill="#263238" stroke="#263238" stroke-linecap="round" stroke-linejoin="round"/>
<path d="M84.8211 101.81C84.8211 101.81 99.4084 112.762 103.211 115.071C107.013 117.38 116.222 121.702 118.279 123.248C120.335 124.794 117.169 131.418 112.731 133.885C108.292 136.352 104.165 133.576 101.79 132.339C99.4152 131.103 83.5221 121.084 83.5221 121.084L84.8211 101.81Z" fill="#919191" stroke="#263238" stroke-linecap="round" stroke-linejoin="round"/>
<path d="M88.0756 108.329L85.5992 122.136L91.2352 111.177" stroke="#263238" stroke-linecap="round" stroke-linejoin="round"/>
<path d="M89.7197 173.835C89.7197 173.835 85.9173 173.986 81.6006 170.132C77.284 166.277 76.1879 164.579 76.1879 164.579C76.1879 164.579 73.9957 143.134 73.9957 141.128C73.9957 139.121 75.7684 129.103 77.3787 124.169C78.989 119.235 81.9795 125.097 81.9795 125.097C81.9795 125.097 85.6263 159.633 86.2623 163.027C86.8983 166.421 89.7197 173.835 89.7197 173.835Z" fill="#787878" stroke="#263238" stroke-linecap="round" stroke-linejoin="round"/>
<path d="M76.9862 211.68C76.9862 211.68 72.656 222.152 72.4869 227.211C72.3177 232.27 73.3867 239.901 69.3745 248.459C65.3624 257.017 61.6005 269.562 60.9713 273.397C60.3421 277.232 63.9483 287.731 65.8157 291.159C67.6831 294.586 66.9524 294.329 64.9699 294.264C63.4886 294.267 62.0328 293.889 60.7496 293.17C59.4665 292.45 58.4016 291.414 57.6628 290.165C55.5518 286.718 56.3637 284.574 54.9564 283.324L53.5085 282.067L52.2636 289.507L50.5315 289.211L52.108 279.614C52.108 279.614 51.932 277.436 52.9537 276.502C53.9753 275.568 55.5653 272.726 55.5653 272.726C55.5653 272.726 57.2703 259.274 56.8441 250.09C56.4178 240.907 56.1201 235.112 57.2433 231.29C58.3664 227.468 58.407 226.257 58.5423 222.402C58.6777 218.547 58.5829 213.962 58.6032 213.239C58.6235 212.515 76.9862 211.68 76.9862 211.68Z" fill="white"/>
<mask id="mask0_501_2863" style="mask-type:luminance" maskUnits="userSpaceOnUse" x="50" y="211" width="27" height="84">
<path d="M76.9862 211.68C76.9862 211.68 72.656 222.152 72.4869 227.211C72.3177 232.27 73.3867 239.901 69.3745 248.459C65.3624 257.017 61.6005 269.562 60.9713 273.397C60.3421 277.232 63.9483 287.731 65.8157 291.159C67.6831 294.586 66.9524 294.329 64.9699 294.264C63.4886 294.267 62.0328 293.889 60.7496 293.17C59.4665 292.45 58.4016 291.414 57.6628 290.165C55.5518 286.718 56.3637 284.574 54.9564 283.324L53.5085 282.067L52.2636 289.507L50.5315 289.211L52.108 279.614C52.108 279.614 51.932 277.436 52.9537 276.502C53.9753 275.568 55.5653 272.726 55.5653 272.726C55.5653 272.726 57.2703 259.274 56.8441 250.09C56.4178 240.907 56.1201 235.112 57.2433 231.29C58.3664 227.468 58.407 226.257 58.5423 222.402C58.6777 218.547 58.5829 213.962 58.6032 213.239C58.6235 212.515 76.9862 211.68 76.9862 211.68Z" fill="white"/>
</mask>
<g mask="url(#mask0_501_2863)">
<path opacity="0.2" d="M58.5693 213.252C58.5693 213.778 58.5693 216.383 58.5693 219.251C60.7277 219.685 66.0118 220.264 74.5842 218.186C75.7615 214.647 76.9861 211.68 76.9861 211.68C76.9861 211.68 58.5964 212.528 58.5693 213.252Z" fill="black"/>
</g>
<path d="M76.9862 211.68C76.9862 211.68 72.656 222.152 72.4869 227.211C72.3177 232.27 73.3867 239.901 69.3745 248.459C65.3624 257.017 61.6005 269.562 60.9713 273.397C60.3421 277.232 63.9483 287.731 65.8157 291.159C67.6831 294.586 66.9524 294.329 64.9699 294.264C63.4886 294.267 62.0328 293.889 60.7496 293.17C59.4665 292.45 58.4016 291.414 57.6628 290.165C55.5518 286.718 56.3637 284.574 54.9564 283.324L53.5085 282.067L52.2636 289.507L50.5315 289.211L52.108 279.614C52.108 279.614 51.932 277.436 52.9537 276.502C53.9753 275.568 55.5653 272.726 55.5653 272.726C55.5653 272.726 57.2703 259.274 56.8441 250.09C56.4178 240.907 56.1201 235.112 57.2433 231.29C58.3664 227.468 58.407 226.257 58.5423 222.402C58.6777 218.547 58.5829 213.962 58.6032 213.239C58.6235 212.515 76.9862 211.68 76.9862 211.68Z" stroke="#263238" stroke-linecap="round" stroke-linejoin="round"/>
<path d="M65.8157 291.172L65.6195 290.791C61.3705 292.027 59.5302 287.857 57.3313 282.897C56.2807 280.514 54.8715 278.297 53.1499 276.318C53.0687 276.397 52.9943 276.476 52.9199 276.542C51.8982 277.476 52.0741 279.654 52.0741 279.654L50.4977 289.251L52.2298 289.547L53.4747 282.107L54.9226 283.364C56.3637 284.614 55.5518 286.758 57.6289 290.205C58.3678 291.453 59.4327 292.49 60.7158 293.209C61.999 293.929 63.4548 294.306 64.9361 294.303C66.9524 294.343 67.6831 294.606 65.8157 291.172Z" fill="#B3D59F" stroke="#263238" stroke-linecap="round" stroke-linejoin="round"/>
<path d="M50.1459 285.113L50.403 293.816L51.6411 293.856L52.3042 287.35L50.1459 285.113Z" fill="#B3D59F" stroke="#263238" stroke-linecap="round" stroke-linejoin="round"/>
<path d="M43.0484 210.095C43.0484 210.095 45.8224 215.969 43.5288 225.067C41.2351 234.165 43.4679 248.466 46.9117 257.504C50.3556 266.543 50.0376 274.733 50.4706 276.674C50.9036 278.614 50.024 282.449 50.1797 285.114C50.3353 287.778 54.9158 292.264 55.836 293.738C56.7561 295.211 63.7182 295.441 65.4571 295.501C67.1959 295.56 67.4869 293.876 66.2825 293.113C65.0782 292.35 62.4868 287.922 62.4868 287.922C62.4868 287.922 58.5694 279.371 58.1702 276.443C57.771 273.516 56.3772 256.36 56.9997 252.762C57.6222 249.163 59.794 229.211 60.4706 223.929C61.1472 218.647 61.6546 211.18 61.6546 211.18L43.0484 210.095Z" fill="white"/>
<mask id="mask1_501_2863" style="mask-type:luminance" maskUnits="userSpaceOnUse" x="42" y="210" width="26" height="86">
<path d="M43.0484 210.095C43.0484 210.095 45.8224 215.969 43.5288 225.067C41.2351 234.165 43.4679 248.466 46.9117 257.504C50.3556 266.543 50.0376 274.733 50.4706 276.674C50.9036 278.614 50.024 282.449 50.1797 285.114C50.3353 287.778 54.9158 292.264 55.836 293.738C56.7561 295.211 63.7182 295.441 65.4571 295.501C67.1959 295.56 67.4869 293.876 66.2825 293.113C65.0782 292.35 62.4868 287.922 62.4868 287.922C62.4868 287.922 58.5694 279.371 58.1702 276.443C57.771 273.516 56.3772 256.36 56.9997 252.762C57.6222 249.163 59.794 229.211 60.4706 223.929C61.1472 218.647 61.6546 211.18 61.6546 211.18L43.0484 210.095Z" fill="white"/>
</mask>
<g mask="url(#mask1_501_2863)">
<path opacity="0.2" d="M61.0187 218.607C61.3841 214.693 61.6209 211.18 61.6209 211.18L43.0485 210.095C43.877 212.166 44.3347 214.36 44.4016 216.581C47.4598 217.64 52.8996 218.896 61.0187 218.607Z" fill="black"/>
</g>
<path d="M43.0484 210.095C43.0484 210.095 45.8224 215.969 43.5288 225.067C41.2351 234.165 43.4679 248.466 46.9117 257.504C50.3556 266.543 50.0376 274.733 50.4706 276.674C50.9036 278.614 50.024 282.449 50.1797 285.114C50.3353 287.778 54.9158 292.264 55.836 293.738C56.7561 295.211 63.7182 295.441 65.4571 295.501C67.1959 295.56 67.4869 293.876 66.2825 293.113C65.0782 292.35 62.4868 287.922 62.4868 287.922C62.4868 287.922 58.5694 279.371 58.1702 276.443C57.771 273.516 56.3772 256.36 56.9997 252.762C57.6222 249.163 59.794 229.211 60.4706 223.929C61.1472 218.647 61.6546 211.18 61.6546 211.18L43.0484 210.095Z" stroke="#263238" stroke-linecap="round" stroke-linejoin="round"/>
<path d="M66.2487 293.113C65.7081 292.682 65.2381 292.174 64.8549 291.606C61.5261 291.448 57.5207 291.08 56.1878 289.889C54.6249 288.501 50.9171 281.89 50.3691 280.903C50.1919 282.3 50.1173 283.707 50.1458 285.113C50.3014 287.745 54.882 292.264 55.8021 293.738C56.7223 295.211 63.6844 295.441 65.4233 295.501C67.1621 295.56 67.4598 293.876 66.2487 293.113Z" fill="#B3D59F" stroke="#263238" stroke-linecap="round" stroke-linejoin="round"/>
<path d="M39.9226 143.904C39.9226 143.904 31.3637 168.901 31.9929 179.677C32.6221 190.452 38.9753 211.752 38.9753 211.752C38.9753 211.752 53.2446 215.449 63.3935 215.449C69.8622 215.369 76.2804 214.329 82.426 212.364C82.426 212.364 87.5004 177.499 85.2812 165.185C83.8839 157.667 80.8555 150.524 76.3976 144.233L39.9226 143.904Z" fill="#263238" stroke="#263238" stroke-linecap="round" stroke-linejoin="round"/>
<path d="M47.223 100.888C47.223 100.888 55.4638 97.3428 59.591 97.3428C63.7182 97.3428 72.7507 104.125 74.1783 105.362C75.6059 106.598 80.6804 120.623 81.472 124.478C82.2636 128.333 76.3976 145.292 76.3976 145.292C76.3976 145.292 65.7751 147.45 57.8454 147.147C49.9158 146.844 46.4246 145.91 46.4246 145.91C46.4246 145.91 43.2581 130.491 41.6884 121.393C40.1188 112.295 38.3596 106.263 39.7872 103.974C41.2148 101.684 47.223 100.888 47.223 100.888Z" fill="white"/>
<mask id="mask2_501_2863" style="mask-type:luminance" maskUnits="userSpaceOnUse" x="39" y="97" width="43" height="51">
<path d="M47.223 100.888C47.223 100.888 55.4638 97.3428 59.591 97.3428C63.7182 97.3428 72.7507 104.125 74.1783 105.362C75.6059 106.598 80.6804 120.623 81.472 124.478C82.2636 128.333 76.3976 145.292 76.3976 145.292C76.3976 145.292 65.7751 147.45 57.8454 147.147C49.9158 146.844 46.4246 145.91 46.4246 145.91C46.4246 145.91 43.2581 130.491 41.6884 121.393C40.1188 112.295 38.3596 106.263 39.7872 103.974C41.2148 101.684 47.223 100.888 47.223 100.888Z" fill="white"/>
</mask>
<g mask="url(#mask2_501_2863)">
<path opacity="0.3" d="M76.3975 145.292C76.3975 145.292 82.2703 128.333 81.472 124.478C80.6736 120.623 75.6059 106.592 74.1783 105.362C73.7453 104.98 72.5951 104.085 71.0931 103.026L70.0714 104.467C70.0714 104.467 75.3488 119.235 75.5247 124.965C75.6939 130.313 70.7886 144.502 70.112 146.331C73.7656 145.831 76.3975 145.292 76.3975 145.292Z" fill="black"/>
</g>
<path d="M47.223 100.888C47.223 100.888 55.4638 97.3428 59.591 97.3428C63.7182 97.3428 72.7507 104.125 74.1783 105.362C75.6059 106.598 80.6804 120.623 81.472 124.478C82.2636 128.333 76.3976 145.292 76.3976 145.292C76.3976 145.292 65.7751 147.45 57.8454 147.147C49.9158 146.844 46.4246 145.91 46.4246 145.91C46.4246 145.91 43.2581 130.491 41.6884 121.393C40.1188 112.295 38.3596 106.263 39.7872 103.974C41.2148 101.684 47.223 100.888 47.223 100.888Z" stroke="#263238" stroke-linecap="round" stroke-linejoin="round"/>
<path d="M67.0404 99.6519C67.0404 99.6519 75.288 113.993 77.6696 122.939C80.0512 131.885 84.0093 169.349 85.7549 171.046C86.9373 172.146 88.2717 173.081 89.7197 173.822C89.7197 173.822 84.9836 148.535 84.9836 140.977C84.9836 133.418 86.2556 103.816 85.4572 102.119C84.6588 100.422 81.9728 101.349 76.418 100.731C70.8631 100.112 67.0404 99.6519 67.0404 99.6519Z" fill="#919191" stroke="#263238" stroke-linecap="round" stroke-linejoin="round"/>
<path d="M53.4882 96.5532L27.1012 106.283C27.1012 106.283 28.0484 136.194 28.3664 140.049C28.6844 143.904 30.2744 145.91 32.4936 147.449C34.7128 148.989 35.5044 147.147 35.5044 147.147C35.5044 147.147 31.066 163.336 28.3664 168.855C25.6668 174.374 27.1012 174.716 27.1012 174.716C27.1012 174.716 37.4056 179.032 44.8617 176.723C52.3177 174.414 54.5369 169.164 54.5369 169.164L50.3894 121.866C50.3894 121.866 50.3894 108.295 51.181 105.21C51.9727 102.125 53.4882 96.5532 53.4882 96.5532Z" fill="#919191" stroke="#263238" stroke-linecap="round" stroke-linejoin="round"/>
<path d="M34.8887 155.225C34.8887 155.225 42.7777 155.442 47.5071 153.692V156.541C43.9977 157.001 40.4595 157.221 36.9184 157.199" stroke="#263238" stroke-linecap="round" stroke-linejoin="round"/>
<path d="M32.6357 106.355C32.6357 106.355 39.6249 110.96 41.878 118.196" stroke="#263238" stroke-linecap="round" stroke-linejoin="round"/>
<path d="M53.4881 96.5534C52.7818 97.1157 52.1357 97.746 51.5599 98.4348C50.6532 99.5334 48.1769 104.612 46.6816 106.151C45.1864 107.69 46.0051 108.026 46.5734 107.921C47.1417 107.815 52.5815 105.947 53.6032 105.493C54.4562 105.153 55.3281 104.858 56.2148 104.612L64.3813 112.44L66.6546 104.5C66.6546 104.5 75.1594 105.158 76.181 105.27C77.2027 105.381 77.9943 104.829 77.2027 104.829C76.4111 104.829 69.8278 101.632 68.9212 101.191C68.0146 100.75 66.7629 98.0993 64.043 96.3363C61.3231 94.5733 55.4232 94.0207 53.4881 96.5534Z" fill="white" stroke="#263238" stroke-linecap="round" stroke-linejoin="round"/>
<path d="M64.9497 99.2045L64.3813 112.44C64.3813 112.44 56.0999 102.29 55.0511 101.079C54.3305 100.046 53.8291 98.8828 53.5762 97.6586L54.4828 86.186C54.4828 86.186 59.8143 94.5734 61.1811 95.4549C62.5478 96.3363 64.8346 98.0993 64.9497 99.2045Z" fill="white" stroke="#263238" stroke-linecap="round" stroke-linejoin="round"/>
<path d="M61.2082 95.4549C59.855 94.5734 54.51 86.186 54.51 86.186L53.8334 94.7773C54.8753 96.8231 62.8794 101.402 64.2123 101.612C64.42 101.65 64.6304 101.672 64.8415 101.678L64.9498 99.2045C64.8347 98.0993 62.5682 96.3363 61.2082 95.4549Z" fill="#263238" stroke="#263238" stroke-linecap="round" stroke-linejoin="round"/>
<path d="M74.7061 72.2861C74.7061 72.2861 62.568 79.2394 58.9347 80.8905L56.905 81.4431C56.905 81.4431 54.2933 77.8053 53.0416 78.575C51.79 79.3446 51.1134 81.3313 51.7967 83.1008C52.4031 84.3434 53.3368 85.4078 54.5031 86.1861C54.5031 86.1861 54.6181 91.4816 55.4165 93.4682C56.2149 95.4549 64.5234 100.198 65.8766 100.415C67.2298 100.632 68.4882 100.415 69.1716 99.2045C69.8549 97.9941 74.158 93.0275 76.0863 86.1861C78.0146 79.3446 76.8644 73.3913 74.7061 72.2861Z" fill="white" stroke="#263238" stroke-linecap="round" stroke-linejoin="round"/>
<path d="M71.9862 83.4297L72.3245 89.8304L68.6912 89.0541" stroke="#263238" stroke-linecap="round" stroke-linejoin="round"/>
<path d="M64.158 89.8301C64.158 89.8301 64.9496 90.8168 68.2175 91.922" stroke="#263238" stroke-linecap="round" stroke-linejoin="round"/>
<path d="M63.5897 82.6602C63.5897 82.6602 64.4964 84.535 67.7846 83.8706" stroke="#263238" stroke-linecap="round" stroke-linejoin="round"/>
<path d="M73.2311 85.1924C73.473 85.5712 73.8432 85.856 74.278 85.9977C74.7128 86.1394 75.1849 86.1291 75.6127 85.9686" stroke="#263238" stroke-linecap="round" stroke-linejoin="round"/>
<path d="M64.5234 79.5682C65.3664 79.2194 66.2731 79.0396 67.1892 79.0396C68.1053 79.0396 69.012 79.2194 69.855 79.5682" stroke="#263238" stroke-linecap="round" stroke-linejoin="round"/>
<path d="M76.5194 82.1074C76.0661 80.8905 74.0295 80.4497 74.0295 80.4497" stroke="#263238" stroke-linecap="round" stroke-linejoin="round"/>
<path d="M97.1554 129.892L87.0066 132.109C87.0066 132.109 74.4152 131.576 73.4747 131.931C72.5343 132.287 73.3868 135.924 73.3868 135.924C72.0196 136.021 70.6471 136.021 69.2799 135.924C67.7305 135.747 66.9998 136.016 67.3651 136.99C67.7305 137.964 69.2799 138.852 70.7481 138.852C72.25 138.751 73.7424 138.544 75.2136 138.233C75.2136 138.233 78.9551 139.549 80.3286 139.549C81.7021 139.549 83.7116 138.398 83.7116 138.398C83.7116 138.398 86.1744 138.483 87.4531 138.575C88.7319 138.668 90.3692 137.062 90.3692 137.062L100.315 136.799L97.1554 129.892Z" fill="white" stroke="#263238" stroke-linecap="round" stroke-linejoin="round"/>
<path d="M71.79 131.313C71.79 131.313 69.4152 131.491 69.4152 132.201C69.4152 132.912 71.3367 138.233 71.3367 138.233L75.1662 138.589C75.1662 138.589 75.7142 138.411 75.2541 137.701C74.7229 137.04 74.1118 136.443 73.4341 135.924L73.5221 131.931L71.79 131.313Z" fill="white" stroke="#263238" stroke-linecap="round" stroke-linejoin="round"/>
<path d="M75.7007 130.688C75.7007 130.688 71.5667 130.339 71.4111 130.793C71.2555 131.247 72.0877 138.029 72.0877 138.029C72.0877 138.029 76.269 138.904 76.8238 138.865C76.967 138.848 77.1025 138.793 77.2151 138.706C77.3276 138.618 77.4126 138.501 77.4605 138.369C77.5084 138.237 77.5173 138.095 77.4861 137.958C77.4548 137.821 77.3848 137.695 77.2839 137.595C76.6076 137.087 75.8717 136.659 75.0918 136.319L75.7007 130.688Z" fill="white" stroke="#263238" stroke-linecap="round" stroke-linejoin="round"/>
<path d="M78.089 130.247C78.089 130.247 73.9821 129.589 73.7994 130.069C73.6168 130.55 73.9821 137.345 73.9821 137.345C73.9821 137.345 78.089 138.496 78.6303 138.496C78.7744 138.488 78.9133 138.441 79.0314 138.36C79.1495 138.279 79.2422 138.168 79.2991 138.039C79.3559 137.91 79.3748 137.768 79.3535 137.629C79.3321 137.491 79.2715 137.36 79.1783 137.253C78.5386 136.703 77.8346 136.229 77.0809 135.839L78.089 130.247Z" fill="white" stroke="#263238" stroke-linecap="round" stroke-linejoin="round"/>
<path d="M88.6709 132.905C88.6709 132.905 78.4476 129.182 77.9064 129.004C77.3651 128.826 76.993 129.096 76.993 129.451C76.993 129.806 75.3488 136.339 75.8969 136.812C76.4449 137.286 79.7264 138.233 79.7264 138.233C79.7264 138.233 80.6398 137.608 80.7345 137.345C80.8292 137.082 79.7264 136.365 79.7264 136.365L79.9091 134.391L82.2839 135.187" fill="white"/>
<path d="M88.6709 132.905C88.6709 132.905 78.4476 129.182 77.9064 129.004C77.3651 128.826 76.993 129.096 76.993 129.451C76.993 129.806 75.3488 136.339 75.8969 136.812C76.4449 137.286 79.7264 138.233 79.7264 138.233C79.7264 138.233 80.6398 137.608 80.7345 137.345C80.8292 137.082 79.7264 136.365 79.7264 136.365L79.9091 134.391L82.2839 135.187" stroke="#263238" stroke-linecap="round" stroke-linejoin="round"/>
<path d="M89.6724 131.398C89.6724 131.398 91.9592 134.03 90.8632 136.812H93.2312C93.2312 136.812 94.1446 132.379 92.0472 131.135L89.6724 131.398Z" fill="#263238" stroke="#263238" stroke-linecap="round" stroke-linejoin="round"/>
<path d="M93.2312 130.07C93.2312 130.07 94.8483 132.122 95.261 139.01C95.3422 140.286 112.372 138.056 117.115 137.168C121.858 136.28 123.685 134.536 124.05 130.688C124.415 126.84 120.031 122.972 116.75 121.643C113.468 120.314 93.2312 130.07 93.2312 130.07Z" fill="#919191" stroke="#263238" stroke-linecap="round" stroke-linejoin="round"/>
<path d="M49.9281 75.1722L43.9628 78.0613C43.3106 78.3772 43.0452 79.1474 43.3701 79.7815L51.1988 95.0613C51.5237 95.6954 52.3158 95.9534 52.968 95.6375L58.9333 92.7483C59.5855 92.4324 59.8508 91.6623 59.5259 91.0282L51.6973 75.7484C51.3724 75.1143 50.5803 74.8563 49.9281 75.1722Z" fill="#B3D59F" stroke="#263238" stroke-linecap="round" stroke-linejoin="round"/>
<path d="M45.2068 106.151L46.7968 99.8689L43.4138 89.4949C43.4138 89.4949 46.4788 81.8838 47.0471 81.1141C47.6154 80.3445 49.0769 79.5683 49.652 79.7985C50.2271 80.0287 50.2203 80.7918 49.4287 81.2326C48.8698 81.6199 48.4357 82.1538 48.177 82.7719L46.4788 88.4029L47.2501 89.633L49.4084 83.2324C49.4084 83.2324 55.6466 82.4627 55.9849 82.4627C56.3232 82.4627 57.6899 82.5745 57.0065 83.456C56.6271 83.97 56.0613 84.325 55.4233 84.4493H58.0282C58.0282 84.4493 58.9348 84.8901 58.3665 85.5545C57.7981 86.2189 53.9483 87.2056 53.9483 87.2056L52.4734 91.7315L55.3083 88.5279L58.1432 88.0871C58.1432 88.0871 60.0715 88.5279 59.7332 89.3041C59.3949 90.0804 57.7034 89.633 57.7034 89.633L55.9984 90.5145L53.3935 95.1193V100.856C53.3935 102.29 50.7819 107.48 50.7819 107.48L45.2068 106.151Z" fill="white" stroke="#263238" stroke-linecap="round" stroke-linejoin="round"/>
<path d="M55.4233 84.4229L51.56 85.3043L49.5234 91.705" stroke="#263238" stroke-linecap="round" stroke-linejoin="round"/>
<path d="M43.8874 104.105L54.1986 107.499C54.1986 107.499 46.0254 142.575 44.7264 145.785C42.656 150.969 35.315 149.896 32.2974 148.976C29.2798 148.055 27.5613 142.345 28.3326 140.029C29.1039 137.713 43.8874 104.105 43.8874 104.105Z" fill="#919191" stroke="#263238" stroke-linecap="round" stroke-linejoin="round"/>
</svg>
