<svg width="40" height="40" viewBox="0 0 40 40" fill="none" xmlns="http://www.w3.org/2000/svg">
<path d="M34.5833 5.41675L24.5767 15.4234M34.5833 5.41675V14.3917M34.5833 5.41675H25.6083M16.6333 34.5834C19.6084 34.5834 22.4616 33.4016 24.5653 31.2979C26.669 29.1942 27.8508 26.341 27.8508 23.3659C27.8508 20.3908 26.669 17.5376 24.5653 15.4339C22.4616 13.3303 19.6084 12.1484 16.6333 12.1484C13.6583 12.1484 10.8051 13.3303 8.70136 15.4339C6.59767 17.5376 5.41583 20.3908 5.41583 23.3659C5.41583 26.341 6.59767 29.1942 8.70136 31.2979C10.8051 33.4016 13.6583 34.5834 16.6333 34.5834Z" stroke="black" stroke-width="1.5" stroke-linecap="round" stroke-linejoin="round"/>
</svg>
