<svg width="25" height="24" viewBox="0 0 25 24" fill="none" xmlns="http://www.w3.org/2000/svg">
<path d="M20.09 15.5L18.27 14.2C18.57 13.12 18.59 11.95 18.27 10.78L20.09 9.5L18.64 7L16.61 7.92C15.82 7.12 14.82 6.5 13.65 6.21L13.45 4H10.55L10.35 6.21C9.18002 6.5 8.18002 7.12 7.39002 7.92L5.36002 7L3.91002 9.5L5.73002 10.78C5.41002 11.95 5.43002 13.12 5.73002 14.2L3.91002 15.5L5.36002 18L7.39002 17.07C8.18002 17.86 9.18002 18.46 10.35 18.77L10.55 21H13.45L13.65 18.77C14.82 18.46 15.82 17.86 16.61 17.07L18.64 18L20.09 15.5ZM14 3C14.27 3 14.5 3.2 14.5 3.46L14.68 5.5C15.44 5.78 16.12 6.19 16.73 6.68L18.58 5.81C18.81 5.69 19.1 5.77 19.24 6L21.24 9.5C21.38 9.71 21.3 10 21.08 10.15L19.41 11.32C19.54 12.12 19.53 12.91 19.41 13.68L21.08 14.85C21.3 15 21.38 15.29 21.24 15.5L19.24 19C19.1 19.21 18.81 19.29 18.58 19.17L16.73 18.31C16.12 18.8 15.44 19.2 14.68 19.5L14.5 21.5C14.5 21.79 14.27 22 14 22H10C9.86741 22 9.74023 21.9473 9.64646 21.8536C9.5527 21.7598 9.50002 21.6326 9.50002 21.5L9.32002 19.5C8.56002 19.2 7.88002 18.8 7.27002 18.31L5.42002 19.17C5.19002 19.29 4.90002 19.21 4.76002 19L2.76002 15.5C2.62002 15.29 2.70002 15 2.92002 14.85L4.59002 13.68C4.47002 12.91 4.46002 12.12 4.59002 11.32L2.92002 10.15C2.70002 10 2.62002 9.71 2.76002 9.5L4.76002 6C4.90002 5.77 5.19002 5.69 5.42002 5.81L7.27002 6.68C7.88002 6.19 8.56002 5.78 9.32002 5.5L9.50002 3.46C9.50002 3.2 9.73002 3 10 3H14ZM12 9C12.9283 9 13.8185 9.36875 14.4749 10.0251C15.1313 10.6815 15.5 11.5717 15.5 12.5C15.5 13.4283 15.1313 14.3185 14.4749 14.9749C13.8185 15.6313 12.9283 16 12 16C11.0718 16 10.1815 15.6313 9.52514 14.9749C8.86877 14.3185 8.50002 13.4283 8.50002 12.5C8.50002 11.5717 8.86877 10.6815 9.52514 10.0251C10.1815 9.36875 11.0718 9 12 9ZM12 10C11.337 10 10.7011 10.2634 10.2323 10.7322C9.76341 11.2011 9.50002 11.837 9.50002 12.5C9.50002 13.163 9.76341 13.7989 10.2323 14.2678C10.7011 14.7366 11.337 15 12 15C12.6631 15 13.2989 14.7366 13.7678 14.2678C14.2366 13.7989 14.5 13.163 14.5 12.5C14.5 11.837 14.2366 11.2011 13.7678 10.7322C13.2989 10.2634 12.6631 10 12 10Z" fill="#666666"/>
</svg>
