<svg width="30" height="30" viewBox="0 0 30 30" fill="none" xmlns="http://www.w3.org/2000/svg">
<path d="M2.5 7.5V22.5M27.5 22.5V19.5537C27.5 17.06 27.5 15.8125 27.15 14.8112C26.8398 13.9245 26.3337 13.1191 25.6693 12.4549C25.0049 11.7908 24.1993 11.2849 23.3125 10.975C22.3125 10.625 21.065 10.625 18.5713 10.625C17.5738 10.625 17.075 10.625 16.6737 10.765C16.3193 10.8891 15.9974 11.0913 15.7319 11.3569C15.4663 11.6224 15.2641 11.9443 15.14 12.2987C15 12.7 15 13.2 15 14.1963V20M2.5 20H27.5" stroke="#42960F" stroke-width="1.5" stroke-linecap="round" stroke-linejoin="round"/>
<path d="M11.875 13.75C11.875 14.5788 11.5458 15.3737 10.9597 15.9597C10.3737 16.5458 9.5788 16.875 8.75 16.875C7.9212 16.875 7.12634 16.5458 6.54029 15.9597C5.95424 15.3737 5.625 14.5788 5.625 13.75C5.625 12.9212 5.95424 12.1263 6.54029 11.5403C7.12634 10.9542 7.9212 10.625 8.75 10.625C9.5788 10.625 10.3737 10.9542 10.9597 11.5403C11.5458 12.1263 11.875 12.9212 11.875 13.75Z" stroke="#42960F" stroke-width="1.5"/>
</svg>
