<svg width="24" height="24" viewBox="0 0 24 24" fill="none" xmlns="http://www.w3.org/2000/svg">
<path d="M8.3076 5.79958C8.67691 5.11687 9.22819 4.54986 9.90023 4.16149C10.5723 3.77311 11.3388 3.57857 12.1147 3.59945C12.8906 3.62034 13.6456 3.85583 14.2958 4.27979C14.946 4.70375 15.4659 5.2996 15.798 6.00118C14.9239 6.02087 14.0745 6.29476 13.3535 6.78939C12.6326 7.28401 12.0713 7.97795 11.7384 8.78638C11.431 8.27494 11.0631 7.80235 10.6428 7.37878C9.96677 6.71492 9.17545 6.17978 8.3076 5.79958ZM20.3904 10.8C20.3968 10.7008 20.4 10.6008 20.4 10.5C20.4004 9.52493 20.0841 8.57612 19.4987 7.79637C18.9133 7.01661 18.0904 6.44809 17.154 6.17638C16.8306 5.15171 16.2089 4.24676 15.3685 3.5772C14.5281 2.90765 13.5071 2.50392 12.4361 2.41761C11.3651 2.3313 10.2926 2.56633 9.35586 3.09266C8.41908 3.619 7.66054 4.41272 7.1772 5.37238C6.69987 5.22378 6.21372 5.10514 5.7216 5.01718C4.88923 4.86764 4.04488 4.79494 3.1992 4.79998L2.9784 4.80718H2.9736C2.82681 4.81575 2.68828 4.87792 2.58431 4.9819C2.48034 5.08587 2.41817 5.22439 2.4096 5.37118V5.37238L2.4 5.59798C2.39434 6.44482 2.46664 7.29039 2.616 8.12398C2.7636 8.94238 3.0132 9.88078 3.438 10.8H3C2.84087 10.8 2.68825 10.8632 2.57573 10.9757C2.46321 11.0882 2.4 11.2409 2.4 11.4V12C2.4 14.5461 3.41142 16.9879 5.21177 18.7882C7.01212 20.5886 9.45392 21.6 12 21.6C14.5461 21.6 16.9879 20.5886 18.7882 18.7882C20.5886 16.9879 21.6 14.5461 21.6 12V11.4C21.6 11.2409 21.5368 11.0882 21.4243 10.9757C21.3117 10.8632 21.1591 10.8 21 10.8H20.3904ZM4.7808 10.8C4.26 9.86158 3.9624 8.83318 3.7968 7.91038C3.68362 7.28024 3.61863 6.64239 3.6024 6.00238L3.7392 6.00718C4.1856 6.02278 4.8072 6.07078 5.508 6.19798C6.924 6.45358 8.5872 7.01998 9.7944 8.22718C10.5336 8.96638 11.034 9.87838 11.37 10.8H9.2496L7.0248 8.57518C6.96901 8.51947 6.9028 8.4753 6.82994 8.44518C6.75709 8.41506 6.67901 8.39959 6.60017 8.39965C6.52134 8.3997 6.44328 8.41529 6.37047 8.44551C6.29765 8.47573 6.2315 8.51999 6.1758 8.57578C6.12009 8.63157 6.07592 8.69778 6.0458 8.77063C6.01568 8.84349 6.00021 8.92157 6.00026 9.0004C6.00032 9.07924 6.0159 9.1573 6.04612 9.23011C6.07634 9.30292 6.12061 9.36907 6.1764 9.42478L7.5528 10.8H4.7808ZM12.6384 10.8L12.606 10.7028C12.5799 10.2501 12.6474 9.79682 12.8042 9.37134C12.961 8.94586 13.2039 8.55727 13.5176 8.22982C13.8313 7.90238 14.2092 7.6431 14.6275 7.46817C15.0459 7.29324 15.4958 7.20641 15.9492 7.21311C16.4027 7.21981 16.8498 7.31988 17.2629 7.50709C17.6759 7.69429 18.0459 7.96462 18.3498 8.30118C18.6537 8.63775 18.885 9.03334 19.0292 9.46327C19.1734 9.8932 19.2275 10.3482 19.188 10.8H12.6384ZM3.6 12H20.4C20.4 12.834 20.2788 13.6392 20.052 14.4H3.948C3.71652 13.621 3.5993 12.8126 3.6 12ZM12 20.4C10.4101 20.4003 8.85279 19.9494 7.50901 19.0997C6.16522 18.2501 5.09017 17.0364 4.4088 15.6H19.5912C18.9098 17.0364 17.8348 18.2501 16.491 19.0997C15.1472 19.9494 13.5899 20.4003 12 20.4Z" fill="#666666"/>
</svg>
