<svg width="40" height="40" viewBox="0 0 40 40" fill="none" xmlns="http://www.w3.org/2000/svg">
<circle cx="20" cy="20" r="20" fill="white"/>
<rect width="26.6667" height="26.6667" transform="translate(6.66675 6.66675)" fill="white"/>
<path d="M27.5001 23.3335C27.5001 27.9361 24.6027 30.8335 20.0001 30.8335C15.3975 30.8335 12.5001 27.9361 12.5001 23.3335C12.5001 18.3944 17.8767 11.7267 19.5256 9.79808C19.5843 9.72956 19.6571 9.67455 19.7391 9.63683C19.821 9.59912 19.9102 9.57959 20.0004 9.57959C20.0906 9.57959 20.1797 9.59912 20.2617 9.63683C20.3436 9.67455 20.4164 9.72956 20.4751 9.79808C22.1236 11.7267 27.5001 18.3944 27.5001 23.3335Z" stroke="#FF7A00" stroke-width="1.29771" stroke-miterlimit="10"/>
<path d="M24.5835 23.75C24.5835 24.7446 24.1884 25.6984 23.4851 26.4017C22.7819 27.1049 21.8281 27.5 20.8335 27.5" stroke="#FF7A00" stroke-width="1.29771" stroke-linecap="round" stroke-linejoin="round"/>
</svg>
