<svg width="41" height="41" viewBox="0 0 41 41" fill="none" xmlns="http://www.w3.org/2000/svg">
<circle cx="20.0382" cy="20.168" r="20" fill="white"/>
<g clip-path="url(#clip0_503_3315)">
<rect width="26.6667" height="26.6667" transform="translate(6.70496 6.83472)" fill="white"/>
<path d="M13.3716 17.6125C12.1751 18.9721 11.4224 20.6648 11.2145 22.464C11.0065 24.2631 11.353 26.0829 12.2078 27.6796C13.0625 29.2764 14.3846 30.574 15.9971 31.3987C17.6095 32.2234 19.4355 32.5358 21.2304 32.2942C23.0254 32.0525 24.7037 31.2684 26.0407 30.0466C27.3777 28.8249 28.3096 27.2239 28.7116 25.458C29.1137 23.692 28.9667 21.8454 28.2903 20.1653C27.614 18.4852 26.4406 17.0518 24.9271 16.0569C24.6308 18.7977 23.0012 20.5384 20.0382 21.2791C22.2604 16.8347 21.5197 12.3902 17.816 7.9458C17.816 11.6495 16.3345 14.8717 13.3716 17.6125Z" stroke="#FF7A00" stroke-width="1.73028" stroke-linecap="round" stroke-linejoin="round"/>
</g>
<defs>
<clipPath id="clip0_503_3315">
<rect width="26.6667" height="26.6667" fill="white" transform="translate(6.70496 6.83472)"/>
</clipPath>
</defs>
</svg>
