<svg width="41" height="40" viewBox="0 0 41 40" fill="none" xmlns="http://www.w3.org/2000/svg">
<circle cx="20.2137" cy="20" r="20" fill="white"/>
<rect width="26.6667" height="26.6667" transform="translate(6.88037 6.66675)" fill="white"/>
<path d="M17.2971 19.5231C17.756 22.5762 16.9153 24.2455 14.5414 24.5965C11.9034 24.9866 10.8164 23.2195 10.3575 20.1663C9.74034 16.058 11.1909 13.5028 13.2591 13.3382C15.1414 13.1887 16.8377 16.4705 17.2971 19.5231ZM18.5289 27.9965C18.6919 29.7299 17.7549 31.3476 16.3414 31.6247C14.9143 31.9038 13.2836 30.7721 12.9513 29.0627C12.619 27.3533 13.8758 27.2627 15.4159 26.9684C16.956 26.6741 18.332 25.9059 18.5289 27.9965ZM23.1304 14.5226C22.6716 17.5757 23.5122 19.245 25.8856 19.596C28.5242 19.9861 29.6106 18.2189 30.0695 15.1658C30.6872 11.057 29.2362 8.48769 27.1685 8.33769C25.2726 8.20019 23.5898 11.4695 23.1304 14.5226ZM21.8987 22.9965C21.7356 24.7294 22.6726 26.3476 24.0862 26.6247C25.5133 26.9038 27.144 25.7721 27.4763 24.0627C27.8086 22.3533 26.5518 22.2627 25.0117 21.9679C23.4716 21.6731 22.0955 20.9054 21.8987 22.9965Z" stroke="#FF7A00" stroke-width="1.55725" stroke-miterlimit="10"/>
</svg>
