<svg width="40" height="40" viewBox="0 0 40 40" fill="none" xmlns="http://www.w3.org/2000/svg">
<path fill-rule="evenodd" clip-rule="evenodd" d="M31.6667 14.9999C31.6667 21.1633 26.8875 26.2099 20.8334 26.6374V30.8333H25C25.2211 30.8333 25.433 30.921 25.5893 31.0773C25.7456 31.2336 25.8334 31.4456 25.8334 31.6666C25.8334 31.8876 25.7456 32.0996 25.5893 32.2558C25.433 32.4121 25.2211 32.4999 25 32.4999H20.8334V35.8333C20.8334 36.0543 20.7456 36.2662 20.5893 36.4225C20.433 36.5788 20.2211 36.6666 20 36.6666C19.779 36.6666 19.5671 36.5788 19.4108 36.4225C19.2545 36.2662 19.1667 36.0543 19.1667 35.8333V32.4999H15C14.779 32.4999 14.5671 32.4121 14.4108 32.2558C14.2545 32.0996 14.1667 31.8876 14.1667 31.6666C14.1667 31.4456 14.2545 31.2336 14.4108 31.0773C14.5671 30.921 14.779 30.8333 15 30.8333H19.1667V26.6374C13.1125 26.2099 8.33337 21.1624 8.33337 14.9999C8.33337 8.55659 13.5567 3.33325 20 3.33325C26.4434 3.33325 31.6667 8.55659 31.6667 14.9999ZM20 24.9999C25.5225 24.9999 30 20.5224 30 14.9999C30 9.47742 25.5225 4.99992 20 4.99992C14.4775 4.99992 10 9.47742 10 14.9999C10 20.5224 14.4775 24.9999 20 24.9999Z" fill="#666666"/>
</svg>
